<svg xmlns="http://www.w3.org/2000/svg" version="1.1" xmlns:xlink="http://www.w3.org/1999/xlink" xmlns:svgjs="http://svgjs.dev/svgjs" width="2140" height="2140" preserveAspectRatio="none" viewBox="0 0 2140 2140"><g mask="url(&quot;#SvgjsMask1566&quot;)" fill="none"><rect width="2140" height="2140" x="0" y="0" fill="rgba(18, 17, 17, 1)"></rect><path d="M32.69 105.65L69.06 126.65L69.06 168.65L32.69 189.65L-3.68 168.65L-3.68 126.65zM69.06 294.65L105.44 315.65L105.44 357.65L69.06 378.65L32.69 357.65L32.69 315.65zM32.69 609.65L69.06 630.65L69.06 672.65L32.69 693.65L-3.68 672.65L-3.68 630.65zM69.06 924.65L105.44 945.65L105.44 987.65L69.06 1008.65L32.69 987.65L32.69 945.65zM69.06 1302.65L105.44 1323.65L105.44 1365.65L69.06 1386.65L32.69 1365.65L32.69 1323.65zM32.69 1743.65L69.06 1764.65L69.06 1806.65L32.69 1827.65L-3.68 1806.65L-3.68 1764.65zM105.44 231.65L141.81 252.65L141.81 294.65L105.44 315.65L69.06 294.65L69.06 252.65zM141.81 294.65L178.19 315.65L178.19 357.65L141.81 378.65L105.44 357.65L105.44 315.65zM141.81 546.65L178.19 567.65L178.19 609.65L141.81 630.65L105.44 609.65L105.44 567.65zM105.44 735.65L141.81 756.65L141.81 798.65L105.44 819.65L69.06 798.65L69.06 756.65zM141.81 798.65L178.19 819.65L178.19 861.65L141.81 882.65L105.44 861.65L105.44 819.65zM105.44 861.65L141.81 882.65L141.81 924.65L105.44 945.65L69.06 924.65L69.06 882.65zM105.44 987.65L141.81 1008.65L141.81 1050.65L105.44 1071.65L69.06 1050.65L69.06 1008.65zM141.81 1176.65L178.19 1197.65L178.19 1239.65L141.81 1260.65L105.44 1239.65L105.44 1197.65zM105.44 1743.65L141.81 1764.65L141.81 1806.65L105.44 1827.65L69.06 1806.65L69.06 1764.65zM141.81 1806.65L178.19 1827.65L178.19 1869.65L141.81 1890.65L105.44 1869.65L105.44 1827.65zM178.19 861.65L214.56 882.65L214.56 924.65L178.19 945.65L141.81 924.65L141.81 882.65zM178.19 1113.65L214.56 1134.65L214.56 1176.65L178.19 1197.65L141.81 1176.65L141.81 1134.65zM214.56 1176.65L250.93 1197.65L250.93 1239.65L214.56 1260.65L178.19 1239.65L178.19 1197.65zM178.19 1365.65L214.56 1386.65L214.56 1428.65L178.19 1449.65L141.81 1428.65L141.81 1386.65zM178.19 1617.65L214.56 1638.65L214.56 1680.65L178.19 1701.65L141.81 1680.65L141.81 1638.65zM214.56 1806.65L250.93 1827.65L250.93 1869.65L214.56 1890.65L178.19 1869.65L178.19 1827.65zM287.31 42.65L323.68 63.65L323.68 105.65L287.31 126.65L250.93 105.65L250.93 63.65zM250.93 105.65L287.31 126.65L287.31 168.65L250.93 189.65L214.56 168.65L214.56 126.65zM287.31 168.65L323.68 189.65L323.68 231.65L287.31 252.65L250.93 231.65L250.93 189.65zM250.93 231.65L287.31 252.65L287.31 294.65L250.93 315.65L214.56 294.65L214.56 252.65zM250.93 483.65L287.31 504.65L287.31 546.65L250.93 567.65L214.56 546.65L214.56 504.65zM287.31 924.65L323.68 945.65L323.68 987.65L287.31 1008.65L250.93 987.65L250.93 945.65zM287.31 1050.65L323.68 1071.65L323.68 1113.65L287.31 1134.65L250.93 1113.65L250.93 1071.65zM250.93 1113.65L287.31 1134.65L287.31 1176.65L250.93 1197.65L214.56 1176.65L214.56 1134.65zM250.93 1617.65L287.31 1638.65L287.31 1680.65L250.93 1701.65L214.56 1680.65L214.56 1638.65zM287.31 1806.65L323.68 1827.65L323.68 1869.65L287.31 1890.65L250.93 1869.65L250.93 1827.65zM250.93 1869.65L287.31 1890.65L287.31 1932.65L250.93 1953.65L214.56 1932.65L214.56 1890.65zM323.68 231.65L360.06 252.65L360.06 294.65L323.68 315.65L287.31 294.65L287.31 252.65zM323.68 609.65L360.06 630.65L360.06 672.65L323.68 693.65L287.31 672.65L287.31 630.65zM360.06 672.65L396.43 693.65L396.43 735.65L360.06 756.65L323.68 735.65L323.68 693.65zM323.68 987.65L360.06 1008.65L360.06 1050.65L323.68 1071.65L287.31 1050.65L287.31 1008.65zM360.06 1050.65L396.43 1071.65L396.43 1113.65L360.06 1134.65L323.68 1113.65L323.68 1071.65zM360.06 1302.65L396.43 1323.65L396.43 1365.65L360.06 1386.65L323.68 1365.65L323.68 1323.65zM323.68 1365.65L360.06 1386.65L360.06 1428.65L323.68 1449.65L287.31 1428.65L287.31 1386.65zM323.68 1617.65L360.06 1638.65L360.06 1680.65L323.68 1701.65L287.31 1680.65L287.31 1638.65zM323.68 1869.65L360.06 1890.65L360.06 1932.65L323.68 1953.65L287.31 1932.65L287.31 1890.65zM360.06 2058.65L396.43 2079.65L396.43 2121.65L360.06 2142.65L323.68 2121.65L323.68 2079.65zM396.43 105.65L432.81 126.65L432.81 168.65L396.43 189.65L360.06 168.65L360.06 126.65zM432.81 546.65L469.18 567.65L469.18 609.65L432.81 630.65L396.43 609.65L396.43 567.65zM396.43 609.65L432.81 630.65L432.81 672.65L396.43 693.65L360.06 672.65L360.06 630.65zM432.81 798.65L469.18 819.65L469.18 861.65L432.81 882.65L396.43 861.65L396.43 819.65zM432.81 924.65L469.18 945.65L469.18 987.65L432.81 1008.65L396.43 987.65L396.43 945.65zM396.43 1617.65L432.81 1638.65L432.81 1680.65L396.43 1701.65L360.06 1680.65L360.06 1638.65zM432.81 1806.65L469.18 1827.65L469.18 1869.65L432.81 1890.65L396.43 1869.65L396.43 1827.65zM396.43 1869.65L432.81 1890.65L432.81 1932.65L396.43 1953.65L360.06 1932.65L360.06 1890.65zM432.81 1932.65L469.18 1953.65L469.18 1995.65L432.81 2016.65L396.43 1995.65L396.43 1953.65zM432.81 2058.65L469.18 2079.65L469.18 2121.65L432.81 2142.65L396.43 2121.65L396.43 2079.65zM469.18 357.65L505.55 378.65L505.55 420.65L469.18 441.65L432.81 420.65L432.81 378.65zM469.18 735.65L505.55 756.65L505.55 798.65L469.18 819.65L432.81 798.65L432.81 756.65zM469.18 861.65L505.55 882.65L505.55 924.65L469.18 945.65L432.81 924.65L432.81 882.65zM469.18 987.65L505.55 1008.65L505.55 1050.65L469.18 1071.65L432.81 1050.65L432.81 1008.65zM505.55 1050.65L541.93 1071.65L541.93 1113.65L505.55 1134.65L469.18 1113.65L469.18 1071.65zM505.55 1176.65L541.93 1197.65L541.93 1239.65L505.55 1260.65L469.18 1239.65L469.18 1197.65zM505.55 1302.65L541.93 1323.65L541.93 1365.65L505.55 1386.65L469.18 1365.65L469.18 1323.65zM469.18 1491.65L505.55 1512.65L505.55 1554.65L469.18 1575.65L432.81 1554.65L432.81 1512.65zM469.18 1617.65L505.55 1638.65L505.55 1680.65L469.18 1701.65L432.81 1680.65L432.81 1638.65zM505.55 1680.65L541.93 1701.65L541.93 1743.65L505.55 1764.65L469.18 1743.65L469.18 1701.65zM505.55 1806.65L541.93 1827.65L541.93 1869.65L505.55 1890.65L469.18 1869.65L469.18 1827.65zM505.55 2058.65L541.93 2079.65L541.93 2121.65L505.55 2142.65L469.18 2121.65L469.18 2079.65zM541.93 231.65L578.3 252.65L578.3 294.65L541.93 315.65L505.55 294.65L505.55 252.65zM578.3 294.65L614.68 315.65L614.68 357.65L578.3 378.65L541.93 357.65L541.93 315.65zM541.93 357.65L578.3 378.65L578.3 420.65L541.93 441.65L505.55 420.65L505.55 378.65zM578.3 798.65L614.68 819.65L614.68 861.65L578.3 882.65L541.93 861.65L541.93 819.65zM578.3 924.65L614.68 945.65L614.68 987.65L578.3 1008.65L541.93 987.65L541.93 945.65zM541.93 1239.65L578.3 1260.65L578.3 1302.65L541.93 1323.65L505.55 1302.65L505.55 1260.65zM541.93 1365.65L578.3 1386.65L578.3 1428.65L541.93 1449.65L505.55 1428.65L505.55 1386.65zM541.93 1491.65L578.3 1512.65L578.3 1554.65L541.93 1575.65L505.55 1554.65L505.55 1512.65zM578.3 1680.65L614.68 1701.65L614.68 1743.65L578.3 1764.65L541.93 1743.65L541.93 1701.65zM541.93 1869.65L578.3 1890.65L578.3 1932.65L541.93 1953.65L505.55 1932.65L505.55 1890.65zM541.93 1995.65L578.3 2016.65L578.3 2058.65L541.93 2079.65L505.55 2058.65L505.55 2016.65zM578.3 2058.65L614.68 2079.65L614.68 2121.65L578.3 2142.65L541.93 2121.65L541.93 2079.65zM651.05 42.65L687.42 63.65L687.42 105.65L651.05 126.65L614.68 105.65L614.68 63.65zM614.68 105.65L651.05 126.65L651.05 168.65L614.68 189.65L578.3 168.65L578.3 126.65zM651.05 294.65L687.42 315.65L687.42 357.65L651.05 378.65L614.68 357.65L614.68 315.65zM614.68 483.65L651.05 504.65L651.05 546.65L614.68 567.65L578.3 546.65L578.3 504.65zM651.05 924.65L687.42 945.65L687.42 987.65L651.05 1008.65L614.68 987.65L614.68 945.65zM651.05 1050.65L687.42 1071.65L687.42 1113.65L651.05 1134.65L614.68 1113.65L614.68 1071.65zM614.68 1113.65L651.05 1134.65L651.05 1176.65L614.68 1197.65L578.3 1176.65L578.3 1134.65zM614.68 1239.65L651.05 1260.65L651.05 1302.65L614.68 1323.65L578.3 1302.65L578.3 1260.65zM614.68 1365.65L651.05 1386.65L651.05 1428.65L614.68 1449.65L578.3 1428.65L578.3 1386.65zM614.68 1617.65L651.05 1638.65L651.05 1680.65L614.68 1701.65L578.3 1680.65L578.3 1638.65zM651.05 1680.65L687.42 1701.65L687.42 1743.65L651.05 1764.65L614.68 1743.65L614.68 1701.65zM614.68 1995.65L651.05 2016.65L651.05 2058.65L614.68 2079.65L578.3 2058.65L578.3 2016.65zM651.05 2058.65L687.42 2079.65L687.42 2121.65L651.05 2142.65L614.68 2121.65L614.68 2079.65zM687.42 -20.35L723.8 0.65L723.8 42.65L687.42 63.65L651.05 42.65L651.05 0.65zM723.8 168.65L760.17 189.65L760.17 231.65L723.8 252.65L687.42 231.65L687.42 189.65zM687.42 231.65L723.8 252.65L723.8 294.65L687.42 315.65L651.05 294.65L651.05 252.65zM723.8 294.65L760.17 315.65L760.17 357.65L723.8 378.65L687.42 357.65L687.42 315.65zM687.42 483.65L723.8 504.65L723.8 546.65L687.42 567.65L651.05 546.65L651.05 504.65zM723.8 546.65L760.17 567.65L760.17 609.65L723.8 630.65L687.42 609.65L687.42 567.65zM723.8 798.65L760.17 819.65L760.17 861.65L723.8 882.65L687.42 861.65L687.42 819.65zM723.8 1176.65L760.17 1197.65L760.17 1239.65L723.8 1260.65L687.42 1239.65L687.42 1197.65zM723.8 1302.65L760.17 1323.65L760.17 1365.65L723.8 1386.65L687.42 1365.65L687.42 1323.65zM723.8 1428.65L760.17 1449.65L760.17 1491.65L723.8 1512.65L687.42 1491.65L687.42 1449.65zM687.42 1491.65L723.8 1512.65L723.8 1554.65L687.42 1575.65L651.05 1554.65L651.05 1512.65zM723.8 1932.65L760.17 1953.65L760.17 1995.65L723.8 2016.65L687.42 1995.65L687.42 1953.65zM687.42 1995.65L723.8 2016.65L723.8 2058.65L687.42 2079.65L651.05 2058.65L651.05 2016.65zM723.8 2058.65L760.17 2079.65L760.17 2121.65L723.8 2142.65L687.42 2121.65L687.42 2079.65zM760.17 483.65L796.55 504.65L796.55 546.65L760.17 567.65L723.8 546.65L723.8 504.65zM760.17 735.65L796.55 756.65L796.55 798.65L760.17 819.65L723.8 798.65L723.8 756.65zM796.55 1176.65L832.92 1197.65L832.92 1239.65L796.55 1260.65L760.17 1239.65L760.17 1197.65zM760.17 1617.65L796.55 1638.65L796.55 1680.65L760.17 1701.65L723.8 1680.65L723.8 1638.65zM760.17 1869.65L796.55 1890.65L796.55 1932.65L760.17 1953.65L723.8 1932.65L723.8 1890.65zM796.55 1932.65L832.92 1953.65L832.92 1995.65L796.55 2016.65L760.17 1995.65L760.17 1953.65zM796.55 2058.65L832.92 2079.65L832.92 2121.65L796.55 2142.65L760.17 2121.65L760.17 2079.65zM869.29 42.65L905.67 63.65L905.67 105.65L869.29 126.65L832.92 105.65L832.92 63.65zM869.29 924.65L905.67 945.65L905.67 987.65L869.29 1008.65L832.92 987.65L832.92 945.65zM832.92 987.65L869.29 1008.65L869.29 1050.65L832.92 1071.65L796.55 1050.65L796.55 1008.65zM869.29 1050.65L905.67 1071.65L905.67 1113.65L869.29 1134.65L832.92 1113.65L832.92 1071.65zM832.92 1113.65L869.29 1134.65L869.29 1176.65L832.92 1197.65L796.55 1176.65L796.55 1134.65zM832.92 1491.65L869.29 1512.65L869.29 1554.65L832.92 1575.65L796.55 1554.65L796.55 1512.65zM869.29 1680.65L905.67 1701.65L905.67 1743.65L869.29 1764.65L832.92 1743.65L832.92 1701.65zM832.92 2121.65L869.29 2142.65L869.29 2184.65L832.92 2205.65L796.55 2184.65L796.55 2142.65zM905.67 105.65L942.04 126.65L942.04 168.65L905.67 189.65L869.29 168.65L869.29 126.65zM942.04 168.65L978.42 189.65L978.42 231.65L942.04 252.65L905.67 231.65L905.67 189.65zM905.67 483.65L942.04 504.65L942.04 546.65L905.67 567.65L869.29 546.65L869.29 504.65zM905.67 609.65L942.04 630.65L942.04 672.65L905.67 693.65L869.29 672.65L869.29 630.65zM942.04 672.65L978.42 693.65L978.42 735.65L942.04 756.65L905.67 735.65L905.67 693.65zM905.67 735.65L942.04 756.65L942.04 798.65L905.67 819.65L869.29 798.65L869.29 756.65zM942.04 798.65L978.42 819.65L978.42 861.65L942.04 882.65L905.67 861.65L905.67 819.65zM905.67 1491.65L942.04 1512.65L942.04 1554.65L905.67 1575.65L869.29 1554.65L869.29 1512.65zM942.04 1554.65L978.42 1575.65L978.42 1617.65L942.04 1638.65L905.67 1617.65L905.67 1575.65zM905.67 1743.65L942.04 1764.65L942.04 1806.65L905.67 1827.65L869.29 1806.65L869.29 1764.65zM978.42 -20.35L1014.79 0.65L1014.79 42.65L978.42 63.65L942.04 42.65L942.04 0.65zM1014.79 42.65L1051.16 63.65L1051.16 105.65L1014.79 126.65L978.42 105.65L978.42 63.65zM1014.79 420.65L1051.16 441.65L1051.16 483.65L1014.79 504.65L978.42 483.65L978.42 441.65zM978.42 483.65L1014.79 504.65L1014.79 546.65L978.42 567.65L942.04 546.65L942.04 504.65zM1014.79 672.65L1051.16 693.65L1051.16 735.65L1014.79 756.65L978.42 735.65L978.42 693.65zM978.42 735.65L1014.79 756.65L1014.79 798.65L978.42 819.65L942.04 798.65L942.04 756.65zM1014.79 798.65L1051.16 819.65L1051.16 861.65L1014.79 882.65L978.42 861.65L978.42 819.65zM978.42 1113.65L1014.79 1134.65L1014.79 1176.65L978.42 1197.65L942.04 1176.65L942.04 1134.65zM1014.79 1680.65L1051.16 1701.65L1051.16 1743.65L1014.79 1764.65L978.42 1743.65L978.42 1701.65zM978.42 1869.65L1014.79 1890.65L1014.79 1932.65L978.42 1953.65L942.04 1932.65L942.04 1890.65zM978.42 2121.65L1014.79 2142.65L1014.79 2184.65L978.42 2205.65L942.04 2184.65L942.04 2142.65zM1051.16 -20.35L1087.54 0.65L1087.54 42.65L1051.16 63.65L1014.79 42.65L1014.79 0.65zM1087.54 42.65L1123.91 63.65L1123.91 105.65L1087.54 126.65L1051.16 105.65L1051.16 63.65zM1087.54 168.65L1123.91 189.65L1123.91 231.65L1087.54 252.65L1051.16 231.65L1051.16 189.65zM1051.16 483.65L1087.54 504.65L1087.54 546.65L1051.16 567.65L1014.79 546.65L1014.79 504.65zM1051.16 861.65L1087.54 882.65L1087.54 924.65L1051.16 945.65L1014.79 924.65L1014.79 882.65zM1051.16 1113.65L1087.54 1134.65L1087.54 1176.65L1051.16 1197.65L1014.79 1176.65L1014.79 1134.65zM1087.54 1176.65L1123.91 1197.65L1123.91 1239.65L1087.54 1260.65L1051.16 1239.65L1051.16 1197.65zM1051.16 1365.65L1087.54 1386.65L1087.54 1428.65L1051.16 1449.65L1014.79 1428.65L1014.79 1386.65zM1051.16 1617.65L1087.54 1638.65L1087.54 1680.65L1051.16 1701.65L1014.79 1680.65L1014.79 1638.65zM1051.16 1743.65L1087.54 1764.65L1087.54 1806.65L1051.16 1827.65L1014.79 1806.65L1014.79 1764.65zM1087.54 2058.65L1123.91 2079.65L1123.91 2121.65L1087.54 2142.65L1051.16 2121.65L1051.16 2079.65zM1123.91 -20.35L1160.29 0.65L1160.29 42.65L1123.91 63.65L1087.54 42.65L1087.54 0.65zM1160.29 168.65L1196.66 189.65L1196.66 231.65L1160.29 252.65L1123.91 231.65L1123.91 189.65zM1123.91 357.65L1160.29 378.65L1160.29 420.65L1123.91 441.65L1087.54 420.65L1087.54 378.65zM1123.91 609.65L1160.29 630.65L1160.29 672.65L1123.91 693.65L1087.54 672.65L1087.54 630.65zM1123.91 987.65L1160.29 1008.65L1160.29 1050.65L1123.91 1071.65L1087.54 1050.65L1087.54 1008.65zM1160.29 1050.65L1196.66 1071.65L1196.66 1113.65L1160.29 1134.65L1123.91 1113.65L1123.91 1071.65zM1123.91 1113.65L1160.29 1134.65L1160.29 1176.65L1123.91 1197.65L1087.54 1176.65L1087.54 1134.65zM1160.29 1176.65L1196.66 1197.65L1196.66 1239.65L1160.29 1260.65L1123.91 1239.65L1123.91 1197.65zM1123.91 1239.65L1160.29 1260.65L1160.29 1302.65L1123.91 1323.65L1087.54 1302.65L1087.54 1260.65zM1160.29 1428.65L1196.66 1449.65L1196.66 1491.65L1160.29 1512.65L1123.91 1491.65L1123.91 1449.65zM1123.91 1491.65L1160.29 1512.65L1160.29 1554.65L1123.91 1575.65L1087.54 1554.65L1087.54 1512.65zM1160.29 1932.65L1196.66 1953.65L1196.66 1995.65L1160.29 2016.65L1123.91 1995.65L1123.91 1953.65zM1233.04 42.65L1269.41 63.65L1269.41 105.65L1233.04 126.65L1196.66 105.65L1196.66 63.65zM1233.04 420.65L1269.41 441.65L1269.41 483.65L1233.04 504.65L1196.66 483.65L1196.66 441.65zM1233.04 672.65L1269.41 693.65L1269.41 735.65L1233.04 756.65L1196.66 735.65L1196.66 693.65zM1196.66 735.65L1233.04 756.65L1233.04 798.65L1196.66 819.65L1160.29 798.65L1160.29 756.65zM1196.66 861.65L1233.04 882.65L1233.04 924.65L1196.66 945.65L1160.29 924.65L1160.29 882.65zM1233.04 924.65L1269.41 945.65L1269.41 987.65L1233.04 1008.65L1196.66 987.65L1196.66 945.65zM1233.04 1050.65L1269.41 1071.65L1269.41 1113.65L1233.04 1134.65L1196.66 1113.65L1196.66 1071.65zM1196.66 1113.65L1233.04 1134.65L1233.04 1176.65L1196.66 1197.65L1160.29 1176.65L1160.29 1134.65zM1233.04 1176.65L1269.41 1197.65L1269.41 1239.65L1233.04 1260.65L1196.66 1239.65L1196.66 1197.65zM1196.66 1239.65L1233.04 1260.65L1233.04 1302.65L1196.66 1323.65L1160.29 1302.65L1160.29 1260.65zM1233.04 1302.65L1269.41 1323.65L1269.41 1365.65L1233.04 1386.65L1196.66 1365.65L1196.66 1323.65zM1233.04 1428.65L1269.41 1449.65L1269.41 1491.65L1233.04 1512.65L1196.66 1491.65L1196.66 1449.65zM1233.04 1554.65L1269.41 1575.65L1269.41 1617.65L1233.04 1638.65L1196.66 1617.65L1196.66 1575.65zM1196.66 1617.65L1233.04 1638.65L1233.04 1680.65L1196.66 1701.65L1160.29 1680.65L1160.29 1638.65zM1233.04 2058.65L1269.41 2079.65L1269.41 2121.65L1233.04 2142.65L1196.66 2121.65L1196.66 2079.65zM1269.41 -20.35L1305.78 0.65L1305.78 42.65L1269.41 63.65L1233.04 42.65L1233.04 0.65zM1305.78 42.65L1342.16 63.65L1342.16 105.65L1305.78 126.65L1269.41 105.65L1269.41 63.65zM1269.41 105.65L1305.78 126.65L1305.78 168.65L1269.41 189.65L1233.04 168.65L1233.04 126.65zM1269.41 357.65L1305.78 378.65L1305.78 420.65L1269.41 441.65L1233.04 420.65L1233.04 378.65zM1305.78 546.65L1342.16 567.65L1342.16 609.65L1305.78 630.65L1269.41 609.65L1269.41 567.65zM1269.41 609.65L1305.78 630.65L1305.78 672.65L1269.41 693.65L1233.04 672.65L1233.04 630.65zM1269.41 735.65L1305.78 756.65L1305.78 798.65L1269.41 819.65L1233.04 798.65L1233.04 756.65zM1269.41 987.65L1305.78 1008.65L1305.78 1050.65L1269.41 1071.65L1233.04 1050.65L1233.04 1008.65zM1269.41 1239.65L1305.78 1260.65L1305.78 1302.65L1269.41 1323.65L1233.04 1302.65L1233.04 1260.65zM1305.78 1302.65L1342.16 1323.65L1342.16 1365.65L1305.78 1386.65L1269.41 1365.65L1269.41 1323.65zM1305.78 1428.65L1342.16 1449.65L1342.16 1491.65L1305.78 1512.65L1269.41 1491.65L1269.41 1449.65zM1305.78 1554.65L1342.16 1575.65L1342.16 1617.65L1305.78 1638.65L1269.41 1617.65L1269.41 1575.65zM1269.41 1617.65L1305.78 1638.65L1305.78 1680.65L1269.41 1701.65L1233.04 1680.65L1233.04 1638.65zM1269.41 2121.65L1305.78 2142.65L1305.78 2184.65L1269.41 2205.65L1233.04 2184.65L1233.04 2142.65zM1378.53 42.65L1414.91 63.65L1414.91 105.65L1378.53 126.65L1342.16 105.65L1342.16 63.65zM1342.16 105.65L1378.53 126.65L1378.53 168.65L1342.16 189.65L1305.78 168.65L1305.78 126.65zM1378.53 420.65L1414.91 441.65L1414.91 483.65L1378.53 504.65L1342.16 483.65L1342.16 441.65zM1342.16 483.65L1378.53 504.65L1378.53 546.65L1342.16 567.65L1305.78 546.65L1305.78 504.65zM1342.16 735.65L1378.53 756.65L1378.53 798.65L1342.16 819.65L1305.78 798.65L1305.78 756.65zM1342.16 987.65L1378.53 1008.65L1378.53 1050.65L1342.16 1071.65L1305.78 1050.65L1305.78 1008.65zM1342.16 1113.65L1378.53 1134.65L1378.53 1176.65L1342.16 1197.65L1305.78 1176.65L1305.78 1134.65zM1342.16 1491.65L1378.53 1512.65L1378.53 1554.65L1342.16 1575.65L1305.78 1554.65L1305.78 1512.65zM1342.16 1617.65L1378.53 1638.65L1378.53 1680.65L1342.16 1701.65L1305.78 1680.65L1305.78 1638.65zM1378.53 1680.65L1414.91 1701.65L1414.91 1743.65L1378.53 1764.65L1342.16 1743.65L1342.16 1701.65zM1378.53 1932.65L1414.91 1953.65L1414.91 1995.65L1378.53 2016.65L1342.16 1995.65L1342.16 1953.65zM1378.53 2058.65L1414.91 2079.65L1414.91 2121.65L1378.53 2142.65L1342.16 2121.65L1342.16 2079.65zM1342.16 2121.65L1378.53 2142.65L1378.53 2184.65L1342.16 2205.65L1305.78 2184.65L1305.78 2142.65zM1451.28 42.65L1487.65 63.65L1487.65 105.65L1451.28 126.65L1414.91 105.65L1414.91 63.65zM1451.28 168.65L1487.65 189.65L1487.65 231.65L1451.28 252.65L1414.91 231.65L1414.91 189.65zM1414.91 357.65L1451.28 378.65L1451.28 420.65L1414.91 441.65L1378.53 420.65L1378.53 378.65zM1451.28 420.65L1487.65 441.65L1487.65 483.65L1451.28 504.65L1414.91 483.65L1414.91 441.65zM1451.28 546.65L1487.65 567.65L1487.65 609.65L1451.28 630.65L1414.91 609.65L1414.91 567.65zM1414.91 1239.65L1451.28 1260.65L1451.28 1302.65L1414.91 1323.65L1378.53 1302.65L1378.53 1260.65zM1414.91 1617.65L1451.28 1638.65L1451.28 1680.65L1414.91 1701.65L1378.53 1680.65L1378.53 1638.65zM1451.28 1932.65L1487.65 1953.65L1487.65 1995.65L1451.28 2016.65L1414.91 1995.65L1414.91 1953.65zM1414.91 1995.65L1451.28 2016.65L1451.28 2058.65L1414.91 2079.65L1378.53 2058.65L1378.53 2016.65zM1487.65 -20.35L1524.03 0.65L1524.03 42.65L1487.65 63.65L1451.28 42.65L1451.28 0.65zM1487.65 357.65L1524.03 378.65L1524.03 420.65L1487.65 441.65L1451.28 420.65L1451.28 378.65zM1487.65 609.65L1524.03 630.65L1524.03 672.65L1487.65 693.65L1451.28 672.65L1451.28 630.65zM1487.65 861.65L1524.03 882.65L1524.03 924.65L1487.65 945.65L1451.28 924.65L1451.28 882.65zM1524.03 924.65L1560.4 945.65L1560.4 987.65L1524.03 1008.65L1487.65 987.65L1487.65 945.65zM1487.65 1365.65L1524.03 1386.65L1524.03 1428.65L1487.65 1449.65L1451.28 1428.65L1451.28 1386.65zM1487.65 1491.65L1524.03 1512.65L1524.03 1554.65L1487.65 1575.65L1451.28 1554.65L1451.28 1512.65zM1560.4 105.65L1596.78 126.65L1596.78 168.65L1560.4 189.65L1524.03 168.65L1524.03 126.65zM1560.4 357.65L1596.78 378.65L1596.78 420.65L1560.4 441.65L1524.03 420.65L1524.03 378.65zM1596.78 546.65L1633.15 567.65L1633.15 609.65L1596.78 630.65L1560.4 609.65L1560.4 567.65zM1560.4 609.65L1596.78 630.65L1596.78 672.65L1560.4 693.65L1524.03 672.65L1524.03 630.65zM1560.4 861.65L1596.78 882.65L1596.78 924.65L1560.4 945.65L1524.03 924.65L1524.03 882.65zM1560.4 1113.65L1596.78 1134.65L1596.78 1176.65L1560.4 1197.65L1524.03 1176.65L1524.03 1134.65zM1596.78 1176.65L1633.15 1197.65L1633.15 1239.65L1596.78 1260.65L1560.4 1239.65L1560.4 1197.65zM1596.78 1428.65L1633.15 1449.65L1633.15 1491.65L1596.78 1512.65L1560.4 1491.65L1560.4 1449.65zM1596.78 1554.65L1633.15 1575.65L1633.15 1617.65L1596.78 1638.65L1560.4 1617.65L1560.4 1575.65zM1560.4 1743.65L1596.78 1764.65L1596.78 1806.65L1560.4 1827.65L1524.03 1806.65L1524.03 1764.65zM1560.4 1869.65L1596.78 1890.65L1596.78 1932.65L1560.4 1953.65L1524.03 1932.65L1524.03 1890.65zM1669.52 168.65L1705.9 189.65L1705.9 231.65L1669.52 252.65L1633.15 231.65L1633.15 189.65zM1633.15 231.65L1669.52 252.65L1669.52 294.65L1633.15 315.65L1596.78 294.65L1596.78 252.65zM1669.52 672.65L1705.9 693.65L1705.9 735.65L1669.52 756.65L1633.15 735.65L1633.15 693.65zM1633.15 861.65L1669.52 882.65L1669.52 924.65L1633.15 945.65L1596.78 924.65L1596.78 882.65zM1669.52 924.65L1705.9 945.65L1705.9 987.65L1669.52 1008.65L1633.15 987.65L1633.15 945.65zM1669.52 1176.65L1705.9 1197.65L1705.9 1239.65L1669.52 1260.65L1633.15 1239.65L1633.15 1197.65zM1633.15 1239.65L1669.52 1260.65L1669.52 1302.65L1633.15 1323.65L1596.78 1302.65L1596.78 1260.65zM1669.52 1302.65L1705.9 1323.65L1705.9 1365.65L1669.52 1386.65L1633.15 1365.65L1633.15 1323.65zM1669.52 1428.65L1705.9 1449.65L1705.9 1491.65L1669.52 1512.65L1633.15 1491.65L1633.15 1449.65zM1669.52 1554.65L1705.9 1575.65L1705.9 1617.65L1669.52 1638.65L1633.15 1617.65L1633.15 1575.65zM1669.52 1680.65L1705.9 1701.65L1705.9 1743.65L1669.52 1764.65L1633.15 1743.65L1633.15 1701.65zM1633.15 1743.65L1669.52 1764.65L1669.52 1806.65L1633.15 1827.65L1596.78 1806.65L1596.78 1764.65zM1742.27 168.65L1778.65 189.65L1778.65 231.65L1742.27 252.65L1705.9 231.65L1705.9 189.65zM1705.9 357.65L1742.27 378.65L1742.27 420.65L1705.9 441.65L1669.52 420.65L1669.52 378.65zM1742.27 420.65L1778.65 441.65L1778.65 483.65L1742.27 504.65L1705.9 483.65L1705.9 441.65zM1742.27 546.65L1778.65 567.65L1778.65 609.65L1742.27 630.65L1705.9 609.65L1705.9 567.65zM1742.27 672.65L1778.65 693.65L1778.65 735.65L1742.27 756.65L1705.9 735.65L1705.9 693.65zM1742.27 924.65L1778.65 945.65L1778.65 987.65L1742.27 1008.65L1705.9 987.65L1705.9 945.65zM1742.27 1050.65L1778.65 1071.65L1778.65 1113.65L1742.27 1134.65L1705.9 1113.65L1705.9 1071.65zM1705.9 1113.65L1742.27 1134.65L1742.27 1176.65L1705.9 1197.65L1669.52 1176.65L1669.52 1134.65zM1742.27 1176.65L1778.65 1197.65L1778.65 1239.65L1742.27 1260.65L1705.9 1239.65L1705.9 1197.65zM1742.27 1302.65L1778.65 1323.65L1778.65 1365.65L1742.27 1386.65L1705.9 1365.65L1705.9 1323.65zM1705.9 1365.65L1742.27 1386.65L1742.27 1428.65L1705.9 1449.65L1669.52 1428.65L1669.52 1386.65zM1742.27 1680.65L1778.65 1701.65L1778.65 1743.65L1742.27 1764.65L1705.9 1743.65L1705.9 1701.65zM1705.9 1869.65L1742.27 1890.65L1742.27 1932.65L1705.9 1953.65L1669.52 1932.65L1669.52 1890.65zM1742.27 1932.65L1778.65 1953.65L1778.65 1995.65L1742.27 2016.65L1705.9 1995.65L1705.9 1953.65zM1742.27 2058.65L1778.65 2079.65L1778.65 2121.65L1742.27 2142.65L1705.9 2121.65L1705.9 2079.65zM1815.02 168.65L1851.39 189.65L1851.39 231.65L1815.02 252.65L1778.65 231.65L1778.65 189.65zM1778.65 735.65L1815.02 756.65L1815.02 798.65L1778.65 819.65L1742.27 798.65L1742.27 756.65zM1778.65 861.65L1815.02 882.65L1815.02 924.65L1778.65 945.65L1742.27 924.65L1742.27 882.65zM1778.65 987.65L1815.02 1008.65L1815.02 1050.65L1778.65 1071.65L1742.27 1050.65L1742.27 1008.65zM1815.02 1050.65L1851.39 1071.65L1851.39 1113.65L1815.02 1134.65L1778.65 1113.65L1778.65 1071.65zM1815.02 1302.65L1851.39 1323.65L1851.39 1365.65L1815.02 1386.65L1778.65 1365.65L1778.65 1323.65zM1778.65 1491.65L1815.02 1512.65L1815.02 1554.65L1778.65 1575.65L1742.27 1554.65L1742.27 1512.65zM1815.02 1680.65L1851.39 1701.65L1851.39 1743.65L1815.02 1764.65L1778.65 1743.65L1778.65 1701.65zM1778.65 1995.65L1815.02 2016.65L1815.02 2058.65L1778.65 2079.65L1742.27 2058.65L1742.27 2016.65zM1815.02 2058.65L1851.39 2079.65L1851.39 2121.65L1815.02 2142.65L1778.65 2121.65L1778.65 2079.65zM1778.65 2121.65L1815.02 2142.65L1815.02 2184.65L1778.65 2205.65L1742.27 2184.65L1742.27 2142.65zM1887.77 42.65L1924.14 63.65L1924.14 105.65L1887.77 126.65L1851.39 105.65L1851.39 63.65zM1851.39 105.65L1887.77 126.65L1887.77 168.65L1851.39 189.65L1815.02 168.65L1815.02 126.65zM1851.39 231.65L1887.77 252.65L1887.77 294.65L1851.39 315.65L1815.02 294.65L1815.02 252.65zM1887.77 546.65L1924.14 567.65L1924.14 609.65L1887.77 630.65L1851.39 609.65L1851.39 567.65zM1887.77 1176.65L1924.14 1197.65L1924.14 1239.65L1887.77 1260.65L1851.39 1239.65L1851.39 1197.65zM1887.77 1554.65L1924.14 1575.65L1924.14 1617.65L1887.77 1638.65L1851.39 1617.65L1851.39 1575.65zM1887.77 1680.65L1924.14 1701.65L1924.14 1743.65L1887.77 1764.65L1851.39 1743.65L1851.39 1701.65zM1851.39 1743.65L1887.77 1764.65L1887.77 1806.65L1851.39 1827.65L1815.02 1806.65L1815.02 1764.65zM1887.77 1806.65L1924.14 1827.65L1924.14 1869.65L1887.77 1890.65L1851.39 1869.65L1851.39 1827.65zM1887.77 1932.65L1924.14 1953.65L1924.14 1995.65L1887.77 2016.65L1851.39 1995.65L1851.39 1953.65zM1851.39 1995.65L1887.77 2016.65L1887.77 2058.65L1851.39 2079.65L1815.02 2058.65L1815.02 2016.65zM1851.39 2121.65L1887.77 2142.65L1887.77 2184.65L1851.39 2205.65L1815.02 2184.65L1815.02 2142.65zM1924.14 231.65L1960.52 252.65L1960.52 294.65L1924.14 315.65L1887.77 294.65L1887.77 252.65zM1924.14 483.65L1960.52 504.65L1960.52 546.65L1924.14 567.65L1887.77 546.65L1887.77 504.65zM1960.52 924.65L1996.89 945.65L1996.89 987.65L1960.52 1008.65L1924.14 987.65L1924.14 945.65zM1924.14 1239.65L1960.52 1260.65L1960.52 1302.65L1924.14 1323.65L1887.77 1302.65L1887.77 1260.65zM1924.14 1743.65L1960.52 1764.65L1960.52 1806.65L1924.14 1827.65L1887.77 1806.65L1887.77 1764.65zM1960.52 1932.65L1996.89 1953.65L1996.89 1995.65L1960.52 2016.65L1924.14 1995.65L1924.14 1953.65zM1924.14 2121.65L1960.52 2142.65L1960.52 2184.65L1924.14 2205.65L1887.77 2184.65L1887.77 2142.65zM1996.89 231.65L2033.27 252.65L2033.27 294.65L1996.89 315.65L1960.52 294.65L1960.52 252.65zM2033.27 294.65L2069.64 315.65L2069.64 357.65L2033.27 378.65L1996.89 357.65L1996.89 315.65zM2033.27 420.65L2069.64 441.65L2069.64 483.65L2033.27 504.65L1996.89 483.65L1996.89 441.65zM2033.27 672.65L2069.64 693.65L2069.64 735.65L2033.27 756.65L1996.89 735.65L1996.89 693.65zM2033.27 798.65L2069.64 819.65L2069.64 861.65L2033.27 882.65L1996.89 861.65L1996.89 819.65zM1996.89 861.65L2033.27 882.65L2033.27 924.65L1996.89 945.65L1960.52 924.65L1960.52 882.65zM1996.89 1239.65L2033.27 1260.65L2033.27 1302.65L1996.89 1323.65L1960.52 1302.65L1960.52 1260.65zM2069.64 -20.35L2106.01 0.65L2106.01 42.65L2069.64 63.65L2033.27 42.65L2033.27 0.65zM2106.01 42.65L2142.39 63.65L2142.39 105.65L2106.01 126.65L2069.64 105.65L2069.64 63.65zM2106.01 168.65L2142.39 189.65L2142.39 231.65L2106.01 252.65L2069.64 231.65L2069.64 189.65zM2106.01 546.65L2142.39 567.65L2142.39 609.65L2106.01 630.65L2069.64 609.65L2069.64 567.65zM2069.64 735.65L2106.01 756.65L2106.01 798.65L2069.64 819.65L2033.27 798.65L2033.27 756.65zM2069.64 861.65L2106.01 882.65L2106.01 924.65L2069.64 945.65L2033.27 924.65L2033.27 882.65zM2069.64 1113.65L2106.01 1134.65L2106.01 1176.65L2069.64 1197.65L2033.27 1176.65L2033.27 1134.65zM2069.64 1239.65L2106.01 1260.65L2106.01 1302.65L2069.64 1323.65L2033.27 1302.65L2033.27 1260.65zM2069.64 1365.65L2106.01 1386.65L2106.01 1428.65L2069.64 1449.65L2033.27 1428.65L2033.27 1386.65zM2069.64 1491.65L2106.01 1512.65L2106.01 1554.65L2069.64 1575.65L2033.27 1554.65L2033.27 1512.65zM2069.64 1995.65L2106.01 2016.65L2106.01 2058.65L2069.64 2079.65L2033.27 2058.65L2033.27 2016.65zM2142.39 -20.35L2178.76 0.65L2178.76 42.65L2142.39 63.65L2106.01 42.65L2106.01 0.65zM2142.39 357.65L2178.76 378.65L2178.76 420.65L2142.39 441.65L2106.01 420.65L2106.01 378.65zM2178.76 546.65L2215.14 567.65L2215.14 609.65L2178.76 630.65L2142.39 609.65L2142.39 567.65zM2178.76 672.65L2215.14 693.65L2215.14 735.65L2178.76 756.65L2142.39 735.65L2142.39 693.65zM2142.39 735.65L2178.76 756.65L2178.76 798.65L2142.39 819.65L2106.01 798.65L2106.01 756.65zM2142.39 987.65L2178.76 1008.65L2178.76 1050.65L2142.39 1071.65L2106.01 1050.65L2106.01 1008.65zM2142.39 1365.65L2178.76 1386.65L2178.76 1428.65L2142.39 1449.65L2106.01 1428.65L2106.01 1386.65zM2178.76 1428.65L2215.14 1449.65L2215.14 1491.65L2178.76 1512.65L2142.39 1491.65L2142.39 1449.65zM2142.39 1617.65L2178.76 1638.65L2178.76 1680.65L2142.39 1701.65L2106.01 1680.65L2106.01 1638.65zM2142.39 1743.65L2178.76 1764.65L2178.76 1806.65L2142.39 1827.65L2106.01 1806.65L2106.01 1764.65zM2178.76 2058.65L2215.14 2079.65L2215.14 2121.65L2178.76 2142.65L2142.39 2121.65L2142.39 2079.65zM2142.39 2121.65L2178.76 2142.65L2178.76 2184.65L2142.39 2205.65L2106.01 2184.65L2106.01 2142.65z" stroke="rgba(39, 174, 96, 0.2)" stroke-width="2"></path><path d="M32.64 832.25L67.28 852.25L67.28 892.25L32.64 912.25L-2 892.25L-2 852.25zM67.28 1012.25L101.92 1032.25L101.92 1072.25L67.28 1092.25L32.64 1072.25L32.64 1032.25zM67.28 1852.25L101.92 1872.25L101.92 1912.25L67.28 1932.25L32.64 1912.25L32.64 1872.25zM101.92 -7.75L136.57 12.25L136.57 52.25L101.92 72.25L67.28 52.25L67.28 12.25zM136.57 652.25L171.21 672.25L171.21 712.25L136.57 732.25L101.92 712.25L101.92 672.25zM136.57 1252.25L171.21 1272.25L171.21 1312.25L136.57 1332.25L101.92 1312.25L101.92 1272.25zM205.85 292.25L240.49 312.25L240.49 352.25L205.85 372.25L171.21 352.25L171.21 312.25zM171.21 832.25L205.85 852.25L205.85 892.25L171.21 912.25L136.57 892.25L136.57 852.25zM205.85 1252.25L240.49 1272.25L240.49 1312.25L205.85 1332.25L171.21 1312.25L171.21 1272.25zM205.85 2092.25L240.49 2112.25L240.49 2152.25L205.85 2172.25L171.21 2152.25L171.21 2112.25zM240.49 112.25L275.13 132.25L275.13 172.25L240.49 192.25L205.85 172.25L205.85 132.25zM275.13 652.25L309.78 672.25L309.78 712.25L275.13 732.25L240.49 712.25L240.49 672.25zM275.13 1132.25L309.78 1152.25L309.78 1192.25L275.13 1212.25L240.49 1192.25L240.49 1152.25zM240.49 1312.25L275.13 1332.25L275.13 1372.25L240.49 1392.25L205.85 1372.25L205.85 1332.25zM240.49 1792.25L275.13 1812.25L275.13 1852.25L240.49 1872.25L205.85 1852.25L205.85 1812.25zM344.42 292.25L379.06 312.25L379.06 352.25L344.42 372.25L309.78 352.25L309.78 312.25zM344.42 772.25L379.06 792.25L379.06 832.25L344.42 852.25L309.78 832.25L309.78 792.25zM309.78 952.25L344.42 972.25L344.42 1012.25L309.78 1032.25L275.13 1012.25L275.13 972.25zM309.78 2032.25L344.42 2052.25L344.42 2092.25L309.78 2112.25L275.13 2092.25L275.13 2052.25zM379.06 1912.25L413.7 1932.25L413.7 1972.25L379.06 1992.25L344.42 1972.25L344.42 1932.25zM379.06 2032.25L413.7 2052.25L413.7 2092.25L379.06 2112.25L344.42 2092.25L344.42 2052.25zM482.99 1012.25L517.63 1032.25L517.63 1072.25L482.99 1092.25L448.34 1072.25L448.34 1032.25zM448.34 1312.25L482.99 1332.25L482.99 1372.25L448.34 1392.25L413.7 1372.25L413.7 1332.25zM448.34 1432.25L482.99 1452.25L482.99 1492.25L448.34 1512.25L413.7 1492.25L413.7 1452.25zM448.34 1792.25L482.99 1812.25L482.99 1852.25L448.34 1872.25L413.7 1852.25L413.7 1812.25zM448.34 1912.25L482.99 1932.25L482.99 1972.25L448.34 1992.25L413.7 1972.25L413.7 1932.25zM482.99 1972.25L517.63 1992.25L517.63 2032.25L482.99 2052.25L448.34 2032.25L448.34 1992.25zM552.27 412.25L586.91 432.25L586.91 472.25L552.27 492.25L517.63 472.25L517.63 432.25zM517.63 1312.25L552.27 1332.25L552.27 1372.25L517.63 1392.25L482.99 1372.25L482.99 1332.25zM517.63 1432.25L552.27 1452.25L552.27 1492.25L517.63 1512.25L482.99 1492.25L482.99 1452.25zM586.91 -7.75L621.55 12.25L621.55 52.25L586.91 72.25L552.27 52.25L552.27 12.25zM586.91 472.25L621.55 492.25L621.55 532.25L586.91 552.25L552.27 532.25L552.27 492.25zM586.91 832.25L621.55 852.25L621.55 892.25L586.91 912.25L552.27 892.25L552.27 852.25zM586.91 1312.25L621.55 1332.25L621.55 1372.25L586.91 1392.25L552.27 1372.25L552.27 1332.25zM586.91 1432.25L621.55 1452.25L621.55 1492.25L586.91 1512.25L552.27 1492.25L552.27 1452.25zM586.91 1552.25L621.55 1572.25L621.55 1612.25L586.91 1632.25L552.27 1612.25L552.27 1572.25zM621.55 2092.25L656.2 2112.25L656.2 2152.25L621.55 2172.25L586.91 2152.25L586.91 2112.25zM690.84 52.25L725.48 72.25L725.48 112.25L690.84 132.25L656.2 112.25L656.2 72.25zM690.84 532.25L725.48 552.25L725.48 592.25L690.84 612.25L656.2 592.25L656.2 552.25zM690.84 772.25L725.48 792.25L725.48 832.25L690.84 852.25L656.2 832.25L656.2 792.25zM656.2 832.25L690.84 852.25L690.84 892.25L656.2 912.25L621.55 892.25L621.55 852.25zM725.48 112.25L760.12 132.25L760.12 172.25L725.48 192.25L690.84 172.25L690.84 132.25zM760.12 1612.25L794.76 1632.25L794.76 1672.25L760.12 1692.25L725.48 1672.25L725.48 1632.25zM725.48 1912.25L760.12 1932.25L760.12 1972.25L725.48 1992.25L690.84 1972.25L690.84 1932.25zM725.48 2032.25L760.12 2052.25L760.12 2092.25L725.48 2112.25L690.84 2092.25L690.84 2052.25zM829.41 52.25L864.05 72.25L864.05 112.25L829.41 132.25L794.76 112.25L794.76 72.25zM829.41 652.25L864.05 672.25L864.05 712.25L829.41 732.25L794.76 712.25L794.76 672.25zM829.41 1012.25L864.05 1032.25L864.05 1072.25L829.41 1092.25L794.76 1072.25L794.76 1032.25zM829.41 1612.25L864.05 1632.25L864.05 1672.25L829.41 1692.25L794.76 1672.25L794.76 1632.25zM829.41 2092.25L864.05 2112.25L864.05 2152.25L829.41 2172.25L794.76 2152.25L794.76 2112.25zM794.76 2152.25L829.41 2172.25L829.41 2212.25L794.76 2232.25L760.12 2212.25L760.12 2172.25zM898.69 52.25L933.33 72.25L933.33 112.25L898.69 132.25L864.05 112.25L864.05 72.25zM898.69 652.25L933.33 672.25L933.33 712.25L898.69 732.25L864.05 712.25L864.05 672.25zM898.69 1012.25L933.33 1032.25L933.33 1072.25L898.69 1092.25L864.05 1072.25L864.05 1032.25zM864.05 1072.25L898.69 1092.25L898.69 1132.25L864.05 1152.25L829.41 1132.25L829.41 1092.25zM933.33 232.25L967.97 252.25L967.97 292.25L933.33 312.25L898.69 292.25L898.69 252.25zM933.33 352.25L967.97 372.25L967.97 412.25L933.33 432.25L898.69 412.25L898.69 372.25zM933.33 952.25L967.97 972.25L967.97 1012.25L933.33 1032.25L898.69 1012.25L898.69 972.25zM967.97 1012.25L1002.62 1032.25L1002.62 1072.25L967.97 1092.25L933.33 1072.25L933.33 1032.25zM933.33 1552.25L967.97 1572.25L967.97 1612.25L933.33 1632.25L898.69 1612.25L898.69 1572.25zM1037.26 292.25L1071.9 312.25L1071.9 352.25L1037.26 372.25L1002.62 352.25L1002.62 312.25zM1002.62 1072.25L1037.26 1092.25L1037.26 1132.25L1002.62 1152.25L967.97 1132.25L967.97 1092.25zM1002.62 1792.25L1037.26 1812.25L1037.26 1852.25L1002.62 1872.25L967.97 1852.25L967.97 1812.25zM1071.9 712.25L1106.54 732.25L1106.54 772.25L1071.9 792.25L1037.26 772.25L1037.26 732.25zM1106.54 772.25L1141.18 792.25L1141.18 832.25L1106.54 852.25L1071.9 832.25L1071.9 792.25zM1106.54 1372.25L1141.18 1392.25L1141.18 1432.25L1106.54 1452.25L1071.9 1432.25L1071.9 1392.25zM1071.9 1552.25L1106.54 1572.25L1106.54 1612.25L1071.9 1632.25L1037.26 1612.25L1037.26 1572.25zM1071.9 1792.25L1106.54 1812.25L1106.54 1852.25L1071.9 1872.25L1037.26 1852.25L1037.26 1812.25zM1071.9 1912.25L1106.54 1932.25L1106.54 1972.25L1071.9 1992.25L1037.26 1972.25L1037.26 1932.25zM1106.54 2092.25L1141.18 2112.25L1141.18 2152.25L1106.54 2172.25L1071.9 2152.25L1071.9 2112.25zM1141.18 592.25L1175.83 612.25L1175.83 652.25L1141.18 672.25L1106.54 652.25L1106.54 612.25zM1175.83 892.25L1210.47 912.25L1210.47 952.25L1175.83 972.25L1141.18 952.25L1141.18 912.25zM1175.83 1372.25L1210.47 1392.25L1210.47 1432.25L1175.83 1452.25L1141.18 1432.25L1141.18 1392.25zM1175.83 1732.25L1210.47 1752.25L1210.47 1792.25L1175.83 1812.25L1141.18 1792.25L1141.18 1752.25zM1245.11 772.25L1279.75 792.25L1279.75 832.25L1245.11 852.25L1210.47 832.25L1210.47 792.25zM1245.11 1372.25L1279.75 1392.25L1279.75 1432.25L1245.11 1452.25L1210.47 1432.25L1210.47 1392.25zM1245.11 1852.25L1279.75 1872.25L1279.75 1912.25L1245.11 1932.25L1210.47 1912.25L1210.47 1872.25zM1279.75 832.25L1314.39 852.25L1314.39 892.25L1279.75 912.25L1245.11 892.25L1245.11 852.25zM1383.68 412.25L1418.32 432.25L1418.32 472.25L1383.68 492.25L1349.04 472.25L1349.04 432.25zM1383.68 892.25L1418.32 912.25L1418.32 952.25L1383.68 972.25L1349.04 952.25L1349.04 912.25zM1452.96 892.25L1487.6 912.25L1487.6 952.25L1452.96 972.25L1418.32 952.25L1418.32 912.25zM1452.96 1252.25L1487.6 1272.25L1487.6 1312.25L1452.96 1332.25L1418.32 1312.25L1418.32 1272.25zM1487.6 112.25L1522.25 132.25L1522.25 172.25L1487.6 192.25L1452.96 172.25L1452.96 132.25zM1556.89 -7.75L1591.53 12.25L1591.53 52.25L1556.89 72.25L1522.25 52.25L1522.25 12.25zM1591.53 52.25L1626.17 72.25L1626.17 112.25L1591.53 132.25L1556.89 112.25L1556.89 72.25zM1556.89 472.25L1591.53 492.25L1591.53 532.25L1556.89 552.25L1522.25 532.25L1522.25 492.25zM1556.89 592.25L1591.53 612.25L1591.53 652.25L1556.89 672.25L1522.25 652.25L1522.25 612.25zM1591.53 1012.25L1626.17 1032.25L1626.17 1072.25L1591.53 1092.25L1556.89 1072.25L1556.89 1032.25zM1591.53 1252.25L1626.17 1272.25L1626.17 1312.25L1591.53 1332.25L1556.89 1312.25L1556.89 1272.25zM1660.81 412.25L1695.46 432.25L1695.46 472.25L1660.81 492.25L1626.17 472.25L1626.17 432.25zM1660.81 1612.25L1695.46 1632.25L1695.46 1672.25L1660.81 1692.25L1626.17 1672.25L1626.17 1632.25zM1626.17 1672.25L1660.81 1692.25L1660.81 1732.25L1626.17 1752.25L1591.53 1732.25L1591.53 1692.25zM1660.81 1852.25L1695.46 1872.25L1695.46 1912.25L1660.81 1932.25L1626.17 1912.25L1626.17 1872.25zM1626.17 1912.25L1660.81 1932.25L1660.81 1972.25L1626.17 1992.25L1591.53 1972.25L1591.53 1932.25zM1626.17 2032.25L1660.81 2052.25L1660.81 2092.25L1626.17 2112.25L1591.53 2092.25L1591.53 2052.25zM1730.1 412.25L1764.74 432.25L1764.74 472.25L1730.1 492.25L1695.46 472.25L1695.46 432.25zM1730.1 532.25L1764.74 552.25L1764.74 592.25L1730.1 612.25L1695.46 592.25L1695.46 552.25zM1730.1 1012.25L1764.74 1032.25L1764.74 1072.25L1730.1 1092.25L1695.46 1072.25L1695.46 1032.25zM1730.1 1252.25L1764.74 1272.25L1764.74 1312.25L1730.1 1332.25L1695.46 1312.25L1695.46 1272.25zM1730.1 1372.25L1764.74 1392.25L1764.74 1432.25L1730.1 1452.25L1695.46 1432.25L1695.46 1392.25zM1695.46 1432.25L1730.1 1452.25L1730.1 1492.25L1695.46 1512.25L1660.81 1492.25L1660.81 1452.25zM1730.1 1852.25L1764.74 1872.25L1764.74 1912.25L1730.1 1932.25L1695.46 1912.25L1695.46 1872.25zM1799.38 292.25L1834.02 312.25L1834.02 352.25L1799.38 372.25L1764.74 352.25L1764.74 312.25zM1764.74 952.25L1799.38 972.25L1799.38 1012.25L1764.74 1032.25L1730.1 1012.25L1730.1 972.25zM1799.38 1132.25L1834.02 1152.25L1834.02 1192.25L1799.38 1212.25L1764.74 1192.25L1764.74 1152.25zM1764.74 1912.25L1799.38 1932.25L1799.38 1972.25L1764.74 1992.25L1730.1 1972.25L1730.1 1932.25zM1764.74 2032.25L1799.38 2052.25L1799.38 2092.25L1764.74 2112.25L1730.1 2092.25L1730.1 2052.25zM1834.02 112.25L1868.67 132.25L1868.67 172.25L1834.02 192.25L1799.38 172.25L1799.38 132.25zM1834.02 232.25L1868.67 252.25L1868.67 292.25L1834.02 312.25L1799.38 292.25L1799.38 252.25zM1868.67 652.25L1903.31 672.25L1903.31 712.25L1868.67 732.25L1834.02 712.25L1834.02 672.25zM1834.02 952.25L1868.67 972.25L1868.67 1012.25L1834.02 1032.25L1799.38 1012.25L1799.38 972.25zM1834.02 1432.25L1868.67 1452.25L1868.67 1492.25L1834.02 1512.25L1799.38 1492.25L1799.38 1452.25zM1834.02 1672.25L1868.67 1692.25L1868.67 1732.25L1834.02 1752.25L1799.38 1732.25L1799.38 1692.25zM1868.67 1732.25L1903.31 1752.25L1903.31 1792.25L1868.67 1812.25L1834.02 1792.25L1834.02 1752.25zM1903.31 232.25L1937.95 252.25L1937.95 292.25L1903.31 312.25L1868.67 292.25L1868.67 252.25zM1937.95 1372.25L1972.59 1392.25L1972.59 1432.25L1937.95 1452.25L1903.31 1432.25L1903.31 1392.25zM1937.95 1612.25L1972.59 1632.25L1972.59 1672.25L1937.95 1692.25L1903.31 1672.25L1903.31 1632.25zM1937.95 2092.25L1972.59 2112.25L1972.59 2152.25L1937.95 2172.25L1903.31 2152.25L1903.31 2112.25zM2007.23 52.25L2041.88 72.25L2041.88 112.25L2007.23 132.25L1972.59 112.25L1972.59 72.25zM2007.23 652.25L2041.88 672.25L2041.88 712.25L2007.23 732.25L1972.59 712.25L1972.59 672.25zM2007.23 1012.25L2041.88 1032.25L2041.88 1072.25L2007.23 1092.25L1972.59 1072.25L1972.59 1032.25zM1972.59 1072.25L2007.23 1092.25L2007.23 1132.25L1972.59 1152.25L1937.95 1132.25L1937.95 1092.25zM1972.59 1192.25L2007.23 1212.25L2007.23 1252.25L1972.59 1272.25L1937.95 1252.25L1937.95 1212.25zM2007.23 1252.25L2041.88 1272.25L2041.88 1312.25L2007.23 1332.25L1972.59 1312.25L1972.59 1272.25zM1972.59 1552.25L2007.23 1572.25L2007.23 1612.25L1972.59 1632.25L1937.95 1612.25L1937.95 1572.25zM1972.59 1912.25L2007.23 1932.25L2007.23 1972.25L1972.59 1992.25L1937.95 1972.25L1937.95 1932.25zM1972.59 2152.25L2007.23 2172.25L2007.23 2212.25L1972.59 2232.25L1937.95 2212.25L1937.95 2172.25zM2076.52 52.25L2111.16 72.25L2111.16 112.25L2076.52 132.25L2041.88 112.25L2041.88 72.25zM2041.88 352.25L2076.52 372.25L2076.52 412.25L2041.88 432.25L2007.23 412.25L2007.23 372.25zM2041.88 1432.25L2076.52 1452.25L2076.52 1492.25L2041.88 1512.25L2007.23 1492.25L2007.23 1452.25zM2041.88 1552.25L2076.52 1572.25L2076.52 1612.25L2041.88 1632.25L2007.23 1612.25L2007.23 1572.25zM2076.52 1852.25L2111.16 1872.25L2111.16 1912.25L2076.52 1932.25L2041.88 1912.25L2041.88 1872.25zM2145.8 772.25L2180.44 792.25L2180.44 832.25L2145.8 852.25L2111.16 832.25L2111.16 792.25zM2111.16 1072.25L2145.8 1092.25L2145.8 1132.25L2111.16 1152.25L2076.52 1132.25L2076.52 1092.25zM2145.8 1132.25L2180.44 1152.25L2180.44 1192.25L2145.8 1212.25L2111.16 1192.25L2111.16 1152.25zM2145.8 1492.25L2180.44 1512.25L2180.44 1552.25L2145.8 1572.25L2111.16 1552.25L2111.16 1512.25z" stroke="rgba(85, 253, 255, 0.13)" stroke-width="2"></path><path d="M28.64 832.25 a4 4 0 1 0 8 0 a4 4 0 1 0 -8 0zM63.28 852.25 a4 4 0 1 0 8 0 a4 4 0 1 0 -8 0zM63.28 892.25 a4 4 0 1 0 8 0 a4 4 0 1 0 -8 0zM28.64 912.25 a4 4 0 1 0 8 0 a4 4 0 1 0 -8 0zM-6 892.25 a4 4 0 1 0 8 0 a4 4 0 1 0 -8 0zM-6 852.25 a4 4 0 1 0 8 0 a4 4 0 1 0 -8 0zM63.28 1012.25 a4 4 0 1 0 8 0 a4 4 0 1 0 -8 0zM97.92 1032.25 a4 4 0 1 0 8 0 a4 4 0 1 0 -8 0zM97.92 1072.25 a4 4 0 1 0 8 0 a4 4 0 1 0 -8 0zM63.28 1092.25 a4 4 0 1 0 8 0 a4 4 0 1 0 -8 0zM28.64 1072.25 a4 4 0 1 0 8 0 a4 4 0 1 0 -8 0zM28.64 1032.25 a4 4 0 1 0 8 0 a4 4 0 1 0 -8 0zM63.28 1852.25 a4 4 0 1 0 8 0 a4 4 0 1 0 -8 0zM97.92 1872.25 a4 4 0 1 0 8 0 a4 4 0 1 0 -8 0zM97.92 1912.25 a4 4 0 1 0 8 0 a4 4 0 1 0 -8 0zM63.28 1932.25 a4 4 0 1 0 8 0 a4 4 0 1 0 -8 0zM28.64 1912.25 a4 4 0 1 0 8 0 a4 4 0 1 0 -8 0zM28.64 1872.25 a4 4 0 1 0 8 0 a4 4 0 1 0 -8 0zM97.92 -7.75 a4 4 0 1 0 8 0 a4 4 0 1 0 -8 0zM132.57 12.25 a4 4 0 1 0 8 0 a4 4 0 1 0 -8 0zM132.57 52.25 a4 4 0 1 0 8 0 a4 4 0 1 0 -8 0zM97.92 72.25 a4 4 0 1 0 8 0 a4 4 0 1 0 -8 0zM63.28 52.25 a4 4 0 1 0 8 0 a4 4 0 1 0 -8 0zM63.28 12.25 a4 4 0 1 0 8 0 a4 4 0 1 0 -8 0zM132.57 652.25 a4 4 0 1 0 8 0 a4 4 0 1 0 -8 0zM167.21 672.25 a4 4 0 1 0 8 0 a4 4 0 1 0 -8 0zM167.21 712.25 a4 4 0 1 0 8 0 a4 4 0 1 0 -8 0zM132.57 732.25 a4 4 0 1 0 8 0 a4 4 0 1 0 -8 0zM97.92 712.25 a4 4 0 1 0 8 0 a4 4 0 1 0 -8 0zM97.92 672.25 a4 4 0 1 0 8 0 a4 4 0 1 0 -8 0zM132.57 1252.25 a4 4 0 1 0 8 0 a4 4 0 1 0 -8 0zM167.21 1272.25 a4 4 0 1 0 8 0 a4 4 0 1 0 -8 0zM167.21 1312.25 a4 4 0 1 0 8 0 a4 4 0 1 0 -8 0zM132.57 1332.25 a4 4 0 1 0 8 0 a4 4 0 1 0 -8 0zM97.92 1312.25 a4 4 0 1 0 8 0 a4 4 0 1 0 -8 0zM97.92 1272.25 a4 4 0 1 0 8 0 a4 4 0 1 0 -8 0zM201.85 292.25 a4 4 0 1 0 8 0 a4 4 0 1 0 -8 0zM236.49 312.25 a4 4 0 1 0 8 0 a4 4 0 1 0 -8 0zM236.49 352.25 a4 4 0 1 0 8 0 a4 4 0 1 0 -8 0zM201.85 372.25 a4 4 0 1 0 8 0 a4 4 0 1 0 -8 0zM167.21 352.25 a4 4 0 1 0 8 0 a4 4 0 1 0 -8 0zM167.21 312.25 a4 4 0 1 0 8 0 a4 4 0 1 0 -8 0zM167.21 832.25 a4 4 0 1 0 8 0 a4 4 0 1 0 -8 0zM201.85 852.25 a4 4 0 1 0 8 0 a4 4 0 1 0 -8 0zM201.85 892.25 a4 4 0 1 0 8 0 a4 4 0 1 0 -8 0zM167.21 912.25 a4 4 0 1 0 8 0 a4 4 0 1 0 -8 0zM132.57 892.25 a4 4 0 1 0 8 0 a4 4 0 1 0 -8 0zM132.57 852.25 a4 4 0 1 0 8 0 a4 4 0 1 0 -8 0zM201.85 1252.25 a4 4 0 1 0 8 0 a4 4 0 1 0 -8 0zM236.49 1272.25 a4 4 0 1 0 8 0 a4 4 0 1 0 -8 0zM236.49 1312.25 a4 4 0 1 0 8 0 a4 4 0 1 0 -8 0zM201.85 1332.25 a4 4 0 1 0 8 0 a4 4 0 1 0 -8 0zM201.85 2092.25 a4 4 0 1 0 8 0 a4 4 0 1 0 -8 0zM236.49 2112.25 a4 4 0 1 0 8 0 a4 4 0 1 0 -8 0zM236.49 2152.25 a4 4 0 1 0 8 0 a4 4 0 1 0 -8 0zM201.85 2172.25 a4 4 0 1 0 8 0 a4 4 0 1 0 -8 0zM167.21 2152.25 a4 4 0 1 0 8 0 a4 4 0 1 0 -8 0zM167.21 2112.25 a4 4 0 1 0 8 0 a4 4 0 1 0 -8 0zM236.49 112.25 a4 4 0 1 0 8 0 a4 4 0 1 0 -8 0zM271.13 132.25 a4 4 0 1 0 8 0 a4 4 0 1 0 -8 0zM271.13 172.25 a4 4 0 1 0 8 0 a4 4 0 1 0 -8 0zM236.49 192.25 a4 4 0 1 0 8 0 a4 4 0 1 0 -8 0zM201.85 172.25 a4 4 0 1 0 8 0 a4 4 0 1 0 -8 0zM201.85 132.25 a4 4 0 1 0 8 0 a4 4 0 1 0 -8 0zM271.13 652.25 a4 4 0 1 0 8 0 a4 4 0 1 0 -8 0zM305.78 672.25 a4 4 0 1 0 8 0 a4 4 0 1 0 -8 0zM305.78 712.25 a4 4 0 1 0 8 0 a4 4 0 1 0 -8 0zM271.13 732.25 a4 4 0 1 0 8 0 a4 4 0 1 0 -8 0zM236.49 712.25 a4 4 0 1 0 8 0 a4 4 0 1 0 -8 0zM236.49 672.25 a4 4 0 1 0 8 0 a4 4 0 1 0 -8 0zM271.13 1132.25 a4 4 0 1 0 8 0 a4 4 0 1 0 -8 0zM305.78 1152.25 a4 4 0 1 0 8 0 a4 4 0 1 0 -8 0zM305.78 1192.25 a4 4 0 1 0 8 0 a4 4 0 1 0 -8 0zM271.13 1212.25 a4 4 0 1 0 8 0 a4 4 0 1 0 -8 0zM236.49 1192.25 a4 4 0 1 0 8 0 a4 4 0 1 0 -8 0zM236.49 1152.25 a4 4 0 1 0 8 0 a4 4 0 1 0 -8 0zM271.13 1332.25 a4 4 0 1 0 8 0 a4 4 0 1 0 -8 0zM271.13 1372.25 a4 4 0 1 0 8 0 a4 4 0 1 0 -8 0zM236.49 1392.25 a4 4 0 1 0 8 0 a4 4 0 1 0 -8 0zM201.85 1372.25 a4 4 0 1 0 8 0 a4 4 0 1 0 -8 0zM236.49 1792.25 a4 4 0 1 0 8 0 a4 4 0 1 0 -8 0zM271.13 1812.25 a4 4 0 1 0 8 0 a4 4 0 1 0 -8 0zM271.13 1852.25 a4 4 0 1 0 8 0 a4 4 0 1 0 -8 0zM236.49 1872.25 a4 4 0 1 0 8 0 a4 4 0 1 0 -8 0zM201.85 1852.25 a4 4 0 1 0 8 0 a4 4 0 1 0 -8 0zM201.85 1812.25 a4 4 0 1 0 8 0 a4 4 0 1 0 -8 0zM340.42 292.25 a4 4 0 1 0 8 0 a4 4 0 1 0 -8 0zM375.06 312.25 a4 4 0 1 0 8 0 a4 4 0 1 0 -8 0zM375.06 352.25 a4 4 0 1 0 8 0 a4 4 0 1 0 -8 0zM340.42 372.25 a4 4 0 1 0 8 0 a4 4 0 1 0 -8 0zM305.78 352.25 a4 4 0 1 0 8 0 a4 4 0 1 0 -8 0zM305.78 312.25 a4 4 0 1 0 8 0 a4 4 0 1 0 -8 0zM340.42 772.25 a4 4 0 1 0 8 0 a4 4 0 1 0 -8 0zM375.06 792.25 a4 4 0 1 0 8 0 a4 4 0 1 0 -8 0zM375.06 832.25 a4 4 0 1 0 8 0 a4 4 0 1 0 -8 0zM340.42 852.25 a4 4 0 1 0 8 0 a4 4 0 1 0 -8 0zM305.78 832.25 a4 4 0 1 0 8 0 a4 4 0 1 0 -8 0zM305.78 792.25 a4 4 0 1 0 8 0 a4 4 0 1 0 -8 0zM305.78 952.25 a4 4 0 1 0 8 0 a4 4 0 1 0 -8 0zM340.42 972.25 a4 4 0 1 0 8 0 a4 4 0 1 0 -8 0zM340.42 1012.25 a4 4 0 1 0 8 0 a4 4 0 1 0 -8 0zM305.78 1032.25 a4 4 0 1 0 8 0 a4 4 0 1 0 -8 0zM271.13 1012.25 a4 4 0 1 0 8 0 a4 4 0 1 0 -8 0zM271.13 972.25 a4 4 0 1 0 8 0 a4 4 0 1 0 -8 0zM305.78 2032.25 a4 4 0 1 0 8 0 a4 4 0 1 0 -8 0zM340.42 2052.25 a4 4 0 1 0 8 0 a4 4 0 1 0 -8 0zM340.42 2092.25 a4 4 0 1 0 8 0 a4 4 0 1 0 -8 0zM305.78 2112.25 a4 4 0 1 0 8 0 a4 4 0 1 0 -8 0zM271.13 2092.25 a4 4 0 1 0 8 0 a4 4 0 1 0 -8 0zM271.13 2052.25 a4 4 0 1 0 8 0 a4 4 0 1 0 -8 0zM375.06 1912.25 a4 4 0 1 0 8 0 a4 4 0 1 0 -8 0zM409.7 1932.25 a4 4 0 1 0 8 0 a4 4 0 1 0 -8 0zM409.7 1972.25 a4 4 0 1 0 8 0 a4 4 0 1 0 -8 0zM375.06 1992.25 a4 4 0 1 0 8 0 a4 4 0 1 0 -8 0zM340.42 1972.25 a4 4 0 1 0 8 0 a4 4 0 1 0 -8 0zM340.42 1932.25 a4 4 0 1 0 8 0 a4 4 0 1 0 -8 0zM375.06 2032.25 a4 4 0 1 0 8 0 a4 4 0 1 0 -8 0zM409.7 2052.25 a4 4 0 1 0 8 0 a4 4 0 1 0 -8 0zM409.7 2092.25 a4 4 0 1 0 8 0 a4 4 0 1 0 -8 0zM375.06 2112.25 a4 4 0 1 0 8 0 a4 4 0 1 0 -8 0zM478.99 1012.25 a4 4 0 1 0 8 0 a4 4 0 1 0 -8 0zM513.63 1032.25 a4 4 0 1 0 8 0 a4 4 0 1 0 -8 0zM513.63 1072.25 a4 4 0 1 0 8 0 a4 4 0 1 0 -8 0zM478.99 1092.25 a4 4 0 1 0 8 0 a4 4 0 1 0 -8 0zM444.34 1072.25 a4 4 0 1 0 8 0 a4 4 0 1 0 -8 0zM444.34 1032.25 a4 4 0 1 0 8 0 a4 4 0 1 0 -8 0zM444.34 1312.25 a4 4 0 1 0 8 0 a4 4 0 1 0 -8 0zM478.99 1332.25 a4 4 0 1 0 8 0 a4 4 0 1 0 -8 0zM478.99 1372.25 a4 4 0 1 0 8 0 a4 4 0 1 0 -8 0zM444.34 1392.25 a4 4 0 1 0 8 0 a4 4 0 1 0 -8 0zM409.7 1372.25 a4 4 0 1 0 8 0 a4 4 0 1 0 -8 0zM409.7 1332.25 a4 4 0 1 0 8 0 a4 4 0 1 0 -8 0zM444.34 1432.25 a4 4 0 1 0 8 0 a4 4 0 1 0 -8 0zM478.99 1452.25 a4 4 0 1 0 8 0 a4 4 0 1 0 -8 0zM478.99 1492.25 a4 4 0 1 0 8 0 a4 4 0 1 0 -8 0zM444.34 1512.25 a4 4 0 1 0 8 0 a4 4 0 1 0 -8 0zM409.7 1492.25 a4 4 0 1 0 8 0 a4 4 0 1 0 -8 0zM409.7 1452.25 a4 4 0 1 0 8 0 a4 4 0 1 0 -8 0zM444.34 1792.25 a4 4 0 1 0 8 0 a4 4 0 1 0 -8 0zM478.99 1812.25 a4 4 0 1 0 8 0 a4 4 0 1 0 -8 0zM478.99 1852.25 a4 4 0 1 0 8 0 a4 4 0 1 0 -8 0zM444.34 1872.25 a4 4 0 1 0 8 0 a4 4 0 1 0 -8 0zM409.7 1852.25 a4 4 0 1 0 8 0 a4 4 0 1 0 -8 0zM409.7 1812.25 a4 4 0 1 0 8 0 a4 4 0 1 0 -8 0zM444.34 1912.25 a4 4 0 1 0 8 0 a4 4 0 1 0 -8 0zM478.99 1932.25 a4 4 0 1 0 8 0 a4 4 0 1 0 -8 0zM478.99 1972.25 a4 4 0 1 0 8 0 a4 4 0 1 0 -8 0zM444.34 1992.25 a4 4 0 1 0 8 0 a4 4 0 1 0 -8 0zM513.63 1992.25 a4 4 0 1 0 8 0 a4 4 0 1 0 -8 0zM513.63 2032.25 a4 4 0 1 0 8 0 a4 4 0 1 0 -8 0zM478.99 2052.25 a4 4 0 1 0 8 0 a4 4 0 1 0 -8 0zM444.34 2032.25 a4 4 0 1 0 8 0 a4 4 0 1 0 -8 0zM548.27 412.25 a4 4 0 1 0 8 0 a4 4 0 1 0 -8 0zM582.91 432.25 a4 4 0 1 0 8 0 a4 4 0 1 0 -8 0zM582.91 472.25 a4 4 0 1 0 8 0 a4 4 0 1 0 -8 0zM548.27 492.25 a4 4 0 1 0 8 0 a4 4 0 1 0 -8 0zM513.63 472.25 a4 4 0 1 0 8 0 a4 4 0 1 0 -8 0zM513.63 432.25 a4 4 0 1 0 8 0 a4 4 0 1 0 -8 0zM513.63 1312.25 a4 4 0 1 0 8 0 a4 4 0 1 0 -8 0zM548.27 1332.25 a4 4 0 1 0 8 0 a4 4 0 1 0 -8 0zM548.27 1372.25 a4 4 0 1 0 8 0 a4 4 0 1 0 -8 0zM513.63 1392.25 a4 4 0 1 0 8 0 a4 4 0 1 0 -8 0zM513.63 1432.25 a4 4 0 1 0 8 0 a4 4 0 1 0 -8 0zM548.27 1452.25 a4 4 0 1 0 8 0 a4 4 0 1 0 -8 0zM548.27 1492.25 a4 4 0 1 0 8 0 a4 4 0 1 0 -8 0zM513.63 1512.25 a4 4 0 1 0 8 0 a4 4 0 1 0 -8 0zM582.91 -7.75 a4 4 0 1 0 8 0 a4 4 0 1 0 -8 0zM617.55 12.25 a4 4 0 1 0 8 0 a4 4 0 1 0 -8 0zM617.55 52.25 a4 4 0 1 0 8 0 a4 4 0 1 0 -8 0zM582.91 72.25 a4 4 0 1 0 8 0 a4 4 0 1 0 -8 0zM548.27 52.25 a4 4 0 1 0 8 0 a4 4 0 1 0 -8 0zM548.27 12.25 a4 4 0 1 0 8 0 a4 4 0 1 0 -8 0zM617.55 492.25 a4 4 0 1 0 8 0 a4 4 0 1 0 -8 0zM617.55 532.25 a4 4 0 1 0 8 0 a4 4 0 1 0 -8 0zM582.91 552.25 a4 4 0 1 0 8 0 a4 4 0 1 0 -8 0zM548.27 532.25 a4 4 0 1 0 8 0 a4 4 0 1 0 -8 0zM582.91 832.25 a4 4 0 1 0 8 0 a4 4 0 1 0 -8 0zM617.55 852.25 a4 4 0 1 0 8 0 a4 4 0 1 0 -8 0zM617.55 892.25 a4 4 0 1 0 8 0 a4 4 0 1 0 -8 0zM582.91 912.25 a4 4 0 1 0 8 0 a4 4 0 1 0 -8 0zM548.27 892.25 a4 4 0 1 0 8 0 a4 4 0 1 0 -8 0zM548.27 852.25 a4 4 0 1 0 8 0 a4 4 0 1 0 -8 0zM582.91 1312.25 a4 4 0 1 0 8 0 a4 4 0 1 0 -8 0zM617.55 1332.25 a4 4 0 1 0 8 0 a4 4 0 1 0 -8 0zM617.55 1372.25 a4 4 0 1 0 8 0 a4 4 0 1 0 -8 0zM582.91 1392.25 a4 4 0 1 0 8 0 a4 4 0 1 0 -8 0zM582.91 1432.25 a4 4 0 1 0 8 0 a4 4 0 1 0 -8 0zM617.55 1452.25 a4 4 0 1 0 8 0 a4 4 0 1 0 -8 0zM617.55 1492.25 a4 4 0 1 0 8 0 a4 4 0 1 0 -8 0zM582.91 1512.25 a4 4 0 1 0 8 0 a4 4 0 1 0 -8 0zM582.91 1552.25 a4 4 0 1 0 8 0 a4 4 0 1 0 -8 0zM617.55 1572.25 a4 4 0 1 0 8 0 a4 4 0 1 0 -8 0zM617.55 1612.25 a4 4 0 1 0 8 0 a4 4 0 1 0 -8 0zM582.91 1632.25 a4 4 0 1 0 8 0 a4 4 0 1 0 -8 0zM548.27 1612.25 a4 4 0 1 0 8 0 a4 4 0 1 0 -8 0zM548.27 1572.25 a4 4 0 1 0 8 0 a4 4 0 1 0 -8 0zM617.55 2092.25 a4 4 0 1 0 8 0 a4 4 0 1 0 -8 0zM652.2 2112.25 a4 4 0 1 0 8 0 a4 4 0 1 0 -8 0zM652.2 2152.25 a4 4 0 1 0 8 0 a4 4 0 1 0 -8 0zM617.55 2172.25 a4 4 0 1 0 8 0 a4 4 0 1 0 -8 0zM582.91 2152.25 a4 4 0 1 0 8 0 a4 4 0 1 0 -8 0zM582.91 2112.25 a4 4 0 1 0 8 0 a4 4 0 1 0 -8 0zM686.84 52.25 a4 4 0 1 0 8 0 a4 4 0 1 0 -8 0zM721.48 72.25 a4 4 0 1 0 8 0 a4 4 0 1 0 -8 0zM721.48 112.25 a4 4 0 1 0 8 0 a4 4 0 1 0 -8 0zM686.84 132.25 a4 4 0 1 0 8 0 a4 4 0 1 0 -8 0zM652.2 112.25 a4 4 0 1 0 8 0 a4 4 0 1 0 -8 0zM652.2 72.25 a4 4 0 1 0 8 0 a4 4 0 1 0 -8 0zM686.84 532.25 a4 4 0 1 0 8 0 a4 4 0 1 0 -8 0zM721.48 552.25 a4 4 0 1 0 8 0 a4 4 0 1 0 -8 0zM721.48 592.25 a4 4 0 1 0 8 0 a4 4 0 1 0 -8 0zM686.84 612.25 a4 4 0 1 0 8 0 a4 4 0 1 0 -8 0zM652.2 592.25 a4 4 0 1 0 8 0 a4 4 0 1 0 -8 0zM652.2 552.25 a4 4 0 1 0 8 0 a4 4 0 1 0 -8 0zM686.84 772.25 a4 4 0 1 0 8 0 a4 4 0 1 0 -8 0zM721.48 792.25 a4 4 0 1 0 8 0 a4 4 0 1 0 -8 0zM721.48 832.25 a4 4 0 1 0 8 0 a4 4 0 1 0 -8 0zM686.84 852.25 a4 4 0 1 0 8 0 a4 4 0 1 0 -8 0zM652.2 832.25 a4 4 0 1 0 8 0 a4 4 0 1 0 -8 0zM652.2 792.25 a4 4 0 1 0 8 0 a4 4 0 1 0 -8 0zM686.84 892.25 a4 4 0 1 0 8 0 a4 4 0 1 0 -8 0zM652.2 912.25 a4 4 0 1 0 8 0 a4 4 0 1 0 -8 0zM756.12 132.25 a4 4 0 1 0 8 0 a4 4 0 1 0 -8 0zM756.12 172.25 a4 4 0 1 0 8 0 a4 4 0 1 0 -8 0zM721.48 192.25 a4 4 0 1 0 8 0 a4 4 0 1 0 -8 0zM686.84 172.25 a4 4 0 1 0 8 0 a4 4 0 1 0 -8 0zM756.12 1612.25 a4 4 0 1 0 8 0 a4 4 0 1 0 -8 0zM790.76 1632.25 a4 4 0 1 0 8 0 a4 4 0 1 0 -8 0zM790.76 1672.25 a4 4 0 1 0 8 0 a4 4 0 1 0 -8 0zM756.12 1692.25 a4 4 0 1 0 8 0 a4 4 0 1 0 -8 0zM721.48 1672.25 a4 4 0 1 0 8 0 a4 4 0 1 0 -8 0zM721.48 1632.25 a4 4 0 1 0 8 0 a4 4 0 1 0 -8 0zM721.48 1912.25 a4 4 0 1 0 8 0 a4 4 0 1 0 -8 0zM756.12 1932.25 a4 4 0 1 0 8 0 a4 4 0 1 0 -8 0zM756.12 1972.25 a4 4 0 1 0 8 0 a4 4 0 1 0 -8 0zM721.48 1992.25 a4 4 0 1 0 8 0 a4 4 0 1 0 -8 0zM686.84 1972.25 a4 4 0 1 0 8 0 a4 4 0 1 0 -8 0zM686.84 1932.25 a4 4 0 1 0 8 0 a4 4 0 1 0 -8 0zM721.48 2032.25 a4 4 0 1 0 8 0 a4 4 0 1 0 -8 0zM756.12 2052.25 a4 4 0 1 0 8 0 a4 4 0 1 0 -8 0zM756.12 2092.25 a4 4 0 1 0 8 0 a4 4 0 1 0 -8 0zM721.48 2112.25 a4 4 0 1 0 8 0 a4 4 0 1 0 -8 0zM686.84 2092.25 a4 4 0 1 0 8 0 a4 4 0 1 0 -8 0zM686.84 2052.25 a4 4 0 1 0 8 0 a4 4 0 1 0 -8 0zM825.41 52.25 a4 4 0 1 0 8 0 a4 4 0 1 0 -8 0zM860.05 72.25 a4 4 0 1 0 8 0 a4 4 0 1 0 -8 0zM860.05 112.25 a4 4 0 1 0 8 0 a4 4 0 1 0 -8 0zM825.41 132.25 a4 4 0 1 0 8 0 a4 4 0 1 0 -8 0zM790.76 112.25 a4 4 0 1 0 8 0 a4 4 0 1 0 -8 0zM790.76 72.25 a4 4 0 1 0 8 0 a4 4 0 1 0 -8 0zM825.41 652.25 a4 4 0 1 0 8 0 a4 4 0 1 0 -8 0zM860.05 672.25 a4 4 0 1 0 8 0 a4 4 0 1 0 -8 0zM860.05 712.25 a4 4 0 1 0 8 0 a4 4 0 1 0 -8 0zM825.41 732.25 a4 4 0 1 0 8 0 a4 4 0 1 0 -8 0zM790.76 712.25 a4 4 0 1 0 8 0 a4 4 0 1 0 -8 0zM790.76 672.25 a4 4 0 1 0 8 0 a4 4 0 1 0 -8 0zM825.41 1012.25 a4 4 0 1 0 8 0 a4 4 0 1 0 -8 0zM860.05 1032.25 a4 4 0 1 0 8 0 a4 4 0 1 0 -8 0zM860.05 1072.25 a4 4 0 1 0 8 0 a4 4 0 1 0 -8 0zM825.41 1092.25 a4 4 0 1 0 8 0 a4 4 0 1 0 -8 0zM790.76 1072.25 a4 4 0 1 0 8 0 a4 4 0 1 0 -8 0zM790.76 1032.25 a4 4 0 1 0 8 0 a4 4 0 1 0 -8 0zM825.41 1612.25 a4 4 0 1 0 8 0 a4 4 0 1 0 -8 0zM860.05 1632.25 a4 4 0 1 0 8 0 a4 4 0 1 0 -8 0zM860.05 1672.25 a4 4 0 1 0 8 0 a4 4 0 1 0 -8 0zM825.41 1692.25 a4 4 0 1 0 8 0 a4 4 0 1 0 -8 0zM825.41 2092.25 a4 4 0 1 0 8 0 a4 4 0 1 0 -8 0zM860.05 2112.25 a4 4 0 1 0 8 0 a4 4 0 1 0 -8 0zM860.05 2152.25 a4 4 0 1 0 8 0 a4 4 0 1 0 -8 0zM825.41 2172.25 a4 4 0 1 0 8 0 a4 4 0 1 0 -8 0zM790.76 2152.25 a4 4 0 1 0 8 0 a4 4 0 1 0 -8 0zM790.76 2112.25 a4 4 0 1 0 8 0 a4 4 0 1 0 -8 0zM825.41 2212.25 a4 4 0 1 0 8 0 a4 4 0 1 0 -8 0zM790.76 2232.25 a4 4 0 1 0 8 0 a4 4 0 1 0 -8 0zM756.12 2212.25 a4 4 0 1 0 8 0 a4 4 0 1 0 -8 0zM756.12 2172.25 a4 4 0 1 0 8 0 a4 4 0 1 0 -8 0zM894.69 52.25 a4 4 0 1 0 8 0 a4 4 0 1 0 -8 0zM929.33 72.25 a4 4 0 1 0 8 0 a4 4 0 1 0 -8 0zM929.33 112.25 a4 4 0 1 0 8 0 a4 4 0 1 0 -8 0zM894.69 132.25 a4 4 0 1 0 8 0 a4 4 0 1 0 -8 0zM894.69 652.25 a4 4 0 1 0 8 0 a4 4 0 1 0 -8 0zM929.33 672.25 a4 4 0 1 0 8 0 a4 4 0 1 0 -8 0zM929.33 712.25 a4 4 0 1 0 8 0 a4 4 0 1 0 -8 0zM894.69 732.25 a4 4 0 1 0 8 0 a4 4 0 1 0 -8 0zM894.69 1012.25 a4 4 0 1 0 8 0 a4 4 0 1 0 -8 0zM929.33 1032.25 a4 4 0 1 0 8 0 a4 4 0 1 0 -8 0zM929.33 1072.25 a4 4 0 1 0 8 0 a4 4 0 1 0 -8 0zM894.69 1092.25 a4 4 0 1 0 8 0 a4 4 0 1 0 -8 0zM894.69 1132.25 a4 4 0 1 0 8 0 a4 4 0 1 0 -8 0zM860.05 1152.25 a4 4 0 1 0 8 0 a4 4 0 1 0 -8 0zM825.41 1132.25 a4 4 0 1 0 8 0 a4 4 0 1 0 -8 0zM929.33 232.25 a4 4 0 1 0 8 0 a4 4 0 1 0 -8 0zM963.97 252.25 a4 4 0 1 0 8 0 a4 4 0 1 0 -8 0zM963.97 292.25 a4 4 0 1 0 8 0 a4 4 0 1 0 -8 0zM929.33 312.25 a4 4 0 1 0 8 0 a4 4 0 1 0 -8 0zM894.69 292.25 a4 4 0 1 0 8 0 a4 4 0 1 0 -8 0zM894.69 252.25 a4 4 0 1 0 8 0 a4 4 0 1 0 -8 0zM929.33 352.25 a4 4 0 1 0 8 0 a4 4 0 1 0 -8 0zM963.97 372.25 a4 4 0 1 0 8 0 a4 4 0 1 0 -8 0zM963.97 412.25 a4 4 0 1 0 8 0 a4 4 0 1 0 -8 0zM929.33 432.25 a4 4 0 1 0 8 0 a4 4 0 1 0 -8 0zM894.69 412.25 a4 4 0 1 0 8 0 a4 4 0 1 0 -8 0zM894.69 372.25 a4 4 0 1 0 8 0 a4 4 0 1 0 -8 0zM929.33 952.25 a4 4 0 1 0 8 0 a4 4 0 1 0 -8 0zM963.97 972.25 a4 4 0 1 0 8 0 a4 4 0 1 0 -8 0zM963.97 1012.25 a4 4 0 1 0 8 0 a4 4 0 1 0 -8 0zM894.69 972.25 a4 4 0 1 0 8 0 a4 4 0 1 0 -8 0zM998.62 1032.25 a4 4 0 1 0 8 0 a4 4 0 1 0 -8 0zM998.62 1072.25 a4 4 0 1 0 8 0 a4 4 0 1 0 -8 0zM963.97 1092.25 a4 4 0 1 0 8 0 a4 4 0 1 0 -8 0zM929.33 1552.25 a4 4 0 1 0 8 0 a4 4 0 1 0 -8 0zM963.97 1572.25 a4 4 0 1 0 8 0 a4 4 0 1 0 -8 0zM963.97 1612.25 a4 4 0 1 0 8 0 a4 4 0 1 0 -8 0zM929.33 1632.25 a4 4 0 1 0 8 0 a4 4 0 1 0 -8 0zM894.69 1612.25 a4 4 0 1 0 8 0 a4 4 0 1 0 -8 0zM894.69 1572.25 a4 4 0 1 0 8 0 a4 4 0 1 0 -8 0zM1033.26 292.25 a4 4 0 1 0 8 0 a4 4 0 1 0 -8 0zM1067.9 312.25 a4 4 0 1 0 8 0 a4 4 0 1 0 -8 0zM1067.9 352.25 a4 4 0 1 0 8 0 a4 4 0 1 0 -8 0zM1033.26 372.25 a4 4 0 1 0 8 0 a4 4 0 1 0 -8 0zM998.62 352.25 a4 4 0 1 0 8 0 a4 4 0 1 0 -8 0zM998.62 312.25 a4 4 0 1 0 8 0 a4 4 0 1 0 -8 0zM1033.26 1092.25 a4 4 0 1 0 8 0 a4 4 0 1 0 -8 0zM1033.26 1132.25 a4 4 0 1 0 8 0 a4 4 0 1 0 -8 0zM998.62 1152.25 a4 4 0 1 0 8 0 a4 4 0 1 0 -8 0zM963.97 1132.25 a4 4 0 1 0 8 0 a4 4 0 1 0 -8 0zM998.62 1792.25 a4 4 0 1 0 8 0 a4 4 0 1 0 -8 0zM1033.26 1812.25 a4 4 0 1 0 8 0 a4 4 0 1 0 -8 0zM1033.26 1852.25 a4 4 0 1 0 8 0 a4 4 0 1 0 -8 0zM998.62 1872.25 a4 4 0 1 0 8 0 a4 4 0 1 0 -8 0zM963.97 1852.25 a4 4 0 1 0 8 0 a4 4 0 1 0 -8 0zM963.97 1812.25 a4 4 0 1 0 8 0 a4 4 0 1 0 -8 0zM1067.9 712.25 a4 4 0 1 0 8 0 a4 4 0 1 0 -8 0zM1102.54 732.25 a4 4 0 1 0 8 0 a4 4 0 1 0 -8 0zM1102.54 772.25 a4 4 0 1 0 8 0 a4 4 0 1 0 -8 0zM1067.9 792.25 a4 4 0 1 0 8 0 a4 4 0 1 0 -8 0zM1033.26 772.25 a4 4 0 1 0 8 0 a4 4 0 1 0 -8 0zM1033.26 732.25 a4 4 0 1 0 8 0 a4 4 0 1 0 -8 0zM1137.18 792.25 a4 4 0 1 0 8 0 a4 4 0 1 0 -8 0zM1137.18 832.25 a4 4 0 1 0 8 0 a4 4 0 1 0 -8 0zM1102.54 852.25 a4 4 0 1 0 8 0 a4 4 0 1 0 -8 0zM1067.9 832.25 a4 4 0 1 0 8 0 a4 4 0 1 0 -8 0zM1102.54 1372.25 a4 4 0 1 0 8 0 a4 4 0 1 0 -8 0zM1137.18 1392.25 a4 4 0 1 0 8 0 a4 4 0 1 0 -8 0zM1137.18 1432.25 a4 4 0 1 0 8 0 a4 4 0 1 0 -8 0zM1102.54 1452.25 a4 4 0 1 0 8 0 a4 4 0 1 0 -8 0zM1067.9 1432.25 a4 4 0 1 0 8 0 a4 4 0 1 0 -8 0zM1067.9 1392.25 a4 4 0 1 0 8 0 a4 4 0 1 0 -8 0zM1067.9 1552.25 a4 4 0 1 0 8 0 a4 4 0 1 0 -8 0zM1102.54 1572.25 a4 4 0 1 0 8 0 a4 4 0 1 0 -8 0zM1102.54 1612.25 a4 4 0 1 0 8 0 a4 4 0 1 0 -8 0zM1067.9 1632.25 a4 4 0 1 0 8 0 a4 4 0 1 0 -8 0zM1033.26 1612.25 a4 4 0 1 0 8 0 a4 4 0 1 0 -8 0zM1033.26 1572.25 a4 4 0 1 0 8 0 a4 4 0 1 0 -8 0zM1067.9 1792.25 a4 4 0 1 0 8 0 a4 4 0 1 0 -8 0zM1102.54 1812.25 a4 4 0 1 0 8 0 a4 4 0 1 0 -8 0zM1102.54 1852.25 a4 4 0 1 0 8 0 a4 4 0 1 0 -8 0zM1067.9 1872.25 a4 4 0 1 0 8 0 a4 4 0 1 0 -8 0zM1067.9 1912.25 a4 4 0 1 0 8 0 a4 4 0 1 0 -8 0zM1102.54 1932.25 a4 4 0 1 0 8 0 a4 4 0 1 0 -8 0zM1102.54 1972.25 a4 4 0 1 0 8 0 a4 4 0 1 0 -8 0zM1067.9 1992.25 a4 4 0 1 0 8 0 a4 4 0 1 0 -8 0zM1033.26 1972.25 a4 4 0 1 0 8 0 a4 4 0 1 0 -8 0zM1033.26 1932.25 a4 4 0 1 0 8 0 a4 4 0 1 0 -8 0zM1102.54 2092.25 a4 4 0 1 0 8 0 a4 4 0 1 0 -8 0zM1137.18 2112.25 a4 4 0 1 0 8 0 a4 4 0 1 0 -8 0zM1137.18 2152.25 a4 4 0 1 0 8 0 a4 4 0 1 0 -8 0zM1102.54 2172.25 a4 4 0 1 0 8 0 a4 4 0 1 0 -8 0zM1067.9 2152.25 a4 4 0 1 0 8 0 a4 4 0 1 0 -8 0zM1067.9 2112.25 a4 4 0 1 0 8 0 a4 4 0 1 0 -8 0zM1137.18 592.25 a4 4 0 1 0 8 0 a4 4 0 1 0 -8 0zM1171.83 612.25 a4 4 0 1 0 8 0 a4 4 0 1 0 -8 0zM1171.83 652.25 a4 4 0 1 0 8 0 a4 4 0 1 0 -8 0zM1137.18 672.25 a4 4 0 1 0 8 0 a4 4 0 1 0 -8 0zM1102.54 652.25 a4 4 0 1 0 8 0 a4 4 0 1 0 -8 0zM1102.54 612.25 a4 4 0 1 0 8 0 a4 4 0 1 0 -8 0zM1171.83 892.25 a4 4 0 1 0 8 0 a4 4 0 1 0 -8 0zM1206.47 912.25 a4 4 0 1 0 8 0 a4 4 0 1 0 -8 0zM1206.47 952.25 a4 4 0 1 0 8 0 a4 4 0 1 0 -8 0zM1171.83 972.25 a4 4 0 1 0 8 0 a4 4 0 1 0 -8 0zM1137.18 952.25 a4 4 0 1 0 8 0 a4 4 0 1 0 -8 0zM1137.18 912.25 a4 4 0 1 0 8 0 a4 4 0 1 0 -8 0zM1171.83 1372.25 a4 4 0 1 0 8 0 a4 4 0 1 0 -8 0zM1206.47 1392.25 a4 4 0 1 0 8 0 a4 4 0 1 0 -8 0zM1206.47 1432.25 a4 4 0 1 0 8 0 a4 4 0 1 0 -8 0zM1171.83 1452.25 a4 4 0 1 0 8 0 a4 4 0 1 0 -8 0zM1171.83 1732.25 a4 4 0 1 0 8 0 a4 4 0 1 0 -8 0zM1206.47 1752.25 a4 4 0 1 0 8 0 a4 4 0 1 0 -8 0zM1206.47 1792.25 a4 4 0 1 0 8 0 a4 4 0 1 0 -8 0zM1171.83 1812.25 a4 4 0 1 0 8 0 a4 4 0 1 0 -8 0zM1137.18 1792.25 a4 4 0 1 0 8 0 a4 4 0 1 0 -8 0zM1137.18 1752.25 a4 4 0 1 0 8 0 a4 4 0 1 0 -8 0zM1241.11 772.25 a4 4 0 1 0 8 0 a4 4 0 1 0 -8 0zM1275.75 792.25 a4 4 0 1 0 8 0 a4 4 0 1 0 -8 0zM1275.75 832.25 a4 4 0 1 0 8 0 a4 4 0 1 0 -8 0zM1241.11 852.25 a4 4 0 1 0 8 0 a4 4 0 1 0 -8 0zM1206.47 832.25 a4 4 0 1 0 8 0 a4 4 0 1 0 -8 0zM1206.47 792.25 a4 4 0 1 0 8 0 a4 4 0 1 0 -8 0zM1241.11 1372.25 a4 4 0 1 0 8 0 a4 4 0 1 0 -8 0zM1275.75 1392.25 a4 4 0 1 0 8 0 a4 4 0 1 0 -8 0zM1275.75 1432.25 a4 4 0 1 0 8 0 a4 4 0 1 0 -8 0zM1241.11 1452.25 a4 4 0 1 0 8 0 a4 4 0 1 0 -8 0zM1241.11 1852.25 a4 4 0 1 0 8 0 a4 4 0 1 0 -8 0zM1275.75 1872.25 a4 4 0 1 0 8 0 a4 4 0 1 0 -8 0zM1275.75 1912.25 a4 4 0 1 0 8 0 a4 4 0 1 0 -8 0zM1241.11 1932.25 a4 4 0 1 0 8 0 a4 4 0 1 0 -8 0zM1206.47 1912.25 a4 4 0 1 0 8 0 a4 4 0 1 0 -8 0zM1206.47 1872.25 a4 4 0 1 0 8 0 a4 4 0 1 0 -8 0zM1310.39 852.25 a4 4 0 1 0 8 0 a4 4 0 1 0 -8 0zM1310.39 892.25 a4 4 0 1 0 8 0 a4 4 0 1 0 -8 0zM1275.75 912.25 a4 4 0 1 0 8 0 a4 4 0 1 0 -8 0zM1241.11 892.25 a4 4 0 1 0 8 0 a4 4 0 1 0 -8 0zM1379.68 412.25 a4 4 0 1 0 8 0 a4 4 0 1 0 -8 0zM1414.32 432.25 a4 4 0 1 0 8 0 a4 4 0 1 0 -8 0zM1414.32 472.25 a4 4 0 1 0 8 0 a4 4 0 1 0 -8 0zM1379.68 492.25 a4 4 0 1 0 8 0 a4 4 0 1 0 -8 0zM1345.04 472.25 a4 4 0 1 0 8 0 a4 4 0 1 0 -8 0zM1345.04 432.25 a4 4 0 1 0 8 0 a4 4 0 1 0 -8 0zM1379.68 892.25 a4 4 0 1 0 8 0 a4 4 0 1 0 -8 0zM1414.32 912.25 a4 4 0 1 0 8 0 a4 4 0 1 0 -8 0zM1414.32 952.25 a4 4 0 1 0 8 0 a4 4 0 1 0 -8 0zM1379.68 972.25 a4 4 0 1 0 8 0 a4 4 0 1 0 -8 0zM1345.04 952.25 a4 4 0 1 0 8 0 a4 4 0 1 0 -8 0zM1345.04 912.25 a4 4 0 1 0 8 0 a4 4 0 1 0 -8 0zM1448.96 892.25 a4 4 0 1 0 8 0 a4 4 0 1 0 -8 0zM1483.6 912.25 a4 4 0 1 0 8 0 a4 4 0 1 0 -8 0zM1483.6 952.25 a4 4 0 1 0 8 0 a4 4 0 1 0 -8 0zM1448.96 972.25 a4 4 0 1 0 8 0 a4 4 0 1 0 -8 0zM1448.96 1252.25 a4 4 0 1 0 8 0 a4 4 0 1 0 -8 0zM1483.6 1272.25 a4 4 0 1 0 8 0 a4 4 0 1 0 -8 0zM1483.6 1312.25 a4 4 0 1 0 8 0 a4 4 0 1 0 -8 0zM1448.96 1332.25 a4 4 0 1 0 8 0 a4 4 0 1 0 -8 0zM1414.32 1312.25 a4 4 0 1 0 8 0 a4 4 0 1 0 -8 0zM1414.32 1272.25 a4 4 0 1 0 8 0 a4 4 0 1 0 -8 0zM1483.6 112.25 a4 4 0 1 0 8 0 a4 4 0 1 0 -8 0zM1518.25 132.25 a4 4 0 1 0 8 0 a4 4 0 1 0 -8 0zM1518.25 172.25 a4 4 0 1 0 8 0 a4 4 0 1 0 -8 0zM1483.6 192.25 a4 4 0 1 0 8 0 a4 4 0 1 0 -8 0zM1448.96 172.25 a4 4 0 1 0 8 0 a4 4 0 1 0 -8 0zM1448.96 132.25 a4 4 0 1 0 8 0 a4 4 0 1 0 -8 0zM1552.89 -7.75 a4 4 0 1 0 8 0 a4 4 0 1 0 -8 0zM1587.53 12.25 a4 4 0 1 0 8 0 a4 4 0 1 0 -8 0zM1587.53 52.25 a4 4 0 1 0 8 0 a4 4 0 1 0 -8 0zM1552.89 72.25 a4 4 0 1 0 8 0 a4 4 0 1 0 -8 0zM1518.25 52.25 a4 4 0 1 0 8 0 a4 4 0 1 0 -8 0zM1518.25 12.25 a4 4 0 1 0 8 0 a4 4 0 1 0 -8 0zM1622.17 72.25 a4 4 0 1 0 8 0 a4 4 0 1 0 -8 0zM1622.17 112.25 a4 4 0 1 0 8 0 a4 4 0 1 0 -8 0zM1587.53 132.25 a4 4 0 1 0 8 0 a4 4 0 1 0 -8 0zM1552.89 112.25 a4 4 0 1 0 8 0 a4 4 0 1 0 -8 0zM1552.89 472.25 a4 4 0 1 0 8 0 a4 4 0 1 0 -8 0zM1587.53 492.25 a4 4 0 1 0 8 0 a4 4 0 1 0 -8 0zM1587.53 532.25 a4 4 0 1 0 8 0 a4 4 0 1 0 -8 0zM1552.89 552.25 a4 4 0 1 0 8 0 a4 4 0 1 0 -8 0zM1518.25 532.25 a4 4 0 1 0 8 0 a4 4 0 1 0 -8 0zM1518.25 492.25 a4 4 0 1 0 8 0 a4 4 0 1 0 -8 0zM1552.89 592.25 a4 4 0 1 0 8 0 a4 4 0 1 0 -8 0zM1587.53 612.25 a4 4 0 1 0 8 0 a4 4 0 1 0 -8 0zM1587.53 652.25 a4 4 0 1 0 8 0 a4 4 0 1 0 -8 0zM1552.89 672.25 a4 4 0 1 0 8 0 a4 4 0 1 0 -8 0zM1518.25 652.25 a4 4 0 1 0 8 0 a4 4 0 1 0 -8 0zM1518.25 612.25 a4 4 0 1 0 8 0 a4 4 0 1 0 -8 0zM1587.53 1012.25 a4 4 0 1 0 8 0 a4 4 0 1 0 -8 0zM1622.17 1032.25 a4 4 0 1 0 8 0 a4 4 0 1 0 -8 0zM1622.17 1072.25 a4 4 0 1 0 8 0 a4 4 0 1 0 -8 0zM1587.53 1092.25 a4 4 0 1 0 8 0 a4 4 0 1 0 -8 0zM1552.89 1072.25 a4 4 0 1 0 8 0 a4 4 0 1 0 -8 0zM1552.89 1032.25 a4 4 0 1 0 8 0 a4 4 0 1 0 -8 0zM1587.53 1252.25 a4 4 0 1 0 8 0 a4 4 0 1 0 -8 0zM1622.17 1272.25 a4 4 0 1 0 8 0 a4 4 0 1 0 -8 0zM1622.17 1312.25 a4 4 0 1 0 8 0 a4 4 0 1 0 -8 0zM1587.53 1332.25 a4 4 0 1 0 8 0 a4 4 0 1 0 -8 0zM1552.89 1312.25 a4 4 0 1 0 8 0 a4 4 0 1 0 -8 0zM1552.89 1272.25 a4 4 0 1 0 8 0 a4 4 0 1 0 -8 0zM1656.81 412.25 a4 4 0 1 0 8 0 a4 4 0 1 0 -8 0zM1691.46 432.25 a4 4 0 1 0 8 0 a4 4 0 1 0 -8 0zM1691.46 472.25 a4 4 0 1 0 8 0 a4 4 0 1 0 -8 0zM1656.81 492.25 a4 4 0 1 0 8 0 a4 4 0 1 0 -8 0zM1622.17 472.25 a4 4 0 1 0 8 0 a4 4 0 1 0 -8 0zM1622.17 432.25 a4 4 0 1 0 8 0 a4 4 0 1 0 -8 0zM1656.81 1612.25 a4 4 0 1 0 8 0 a4 4 0 1 0 -8 0zM1691.46 1632.25 a4 4 0 1 0 8 0 a4 4 0 1 0 -8 0zM1691.46 1672.25 a4 4 0 1 0 8 0 a4 4 0 1 0 -8 0zM1656.81 1692.25 a4 4 0 1 0 8 0 a4 4 0 1 0 -8 0zM1622.17 1672.25 a4 4 0 1 0 8 0 a4 4 0 1 0 -8 0zM1622.17 1632.25 a4 4 0 1 0 8 0 a4 4 0 1 0 -8 0zM1656.81 1732.25 a4 4 0 1 0 8 0 a4 4 0 1 0 -8 0zM1622.17 1752.25 a4 4 0 1 0 8 0 a4 4 0 1 0 -8 0zM1587.53 1732.25 a4 4 0 1 0 8 0 a4 4 0 1 0 -8 0zM1587.53 1692.25 a4 4 0 1 0 8 0 a4 4 0 1 0 -8 0zM1656.81 1852.25 a4 4 0 1 0 8 0 a4 4 0 1 0 -8 0zM1691.46 1872.25 a4 4 0 1 0 8 0 a4 4 0 1 0 -8 0zM1691.46 1912.25 a4 4 0 1 0 8 0 a4 4 0 1 0 -8 0zM1656.81 1932.25 a4 4 0 1 0 8 0 a4 4 0 1 0 -8 0zM1622.17 1912.25 a4 4 0 1 0 8 0 a4 4 0 1 0 -8 0zM1622.17 1872.25 a4 4 0 1 0 8 0 a4 4 0 1 0 -8 0zM1656.81 1972.25 a4 4 0 1 0 8 0 a4 4 0 1 0 -8 0zM1622.17 1992.25 a4 4 0 1 0 8 0 a4 4 0 1 0 -8 0zM1587.53 1972.25 a4 4 0 1 0 8 0 a4 4 0 1 0 -8 0zM1587.53 1932.25 a4 4 0 1 0 8 0 a4 4 0 1 0 -8 0zM1622.17 2032.25 a4 4 0 1 0 8 0 a4 4 0 1 0 -8 0zM1656.81 2052.25 a4 4 0 1 0 8 0 a4 4 0 1 0 -8 0zM1656.81 2092.25 a4 4 0 1 0 8 0 a4 4 0 1 0 -8 0zM1622.17 2112.25 a4 4 0 1 0 8 0 a4 4 0 1 0 -8 0zM1587.53 2092.25 a4 4 0 1 0 8 0 a4 4 0 1 0 -8 0zM1587.53 2052.25 a4 4 0 1 0 8 0 a4 4 0 1 0 -8 0zM1726.1 412.25 a4 4 0 1 0 8 0 a4 4 0 1 0 -8 0zM1760.74 432.25 a4 4 0 1 0 8 0 a4 4 0 1 0 -8 0zM1760.74 472.25 a4 4 0 1 0 8 0 a4 4 0 1 0 -8 0zM1726.1 492.25 a4 4 0 1 0 8 0 a4 4 0 1 0 -8 0zM1726.1 532.25 a4 4 0 1 0 8 0 a4 4 0 1 0 -8 0zM1760.74 552.25 a4 4 0 1 0 8 0 a4 4 0 1 0 -8 0zM1760.74 592.25 a4 4 0 1 0 8 0 a4 4 0 1 0 -8 0zM1726.1 612.25 a4 4 0 1 0 8 0 a4 4 0 1 0 -8 0zM1691.46 592.25 a4 4 0 1 0 8 0 a4 4 0 1 0 -8 0zM1691.46 552.25 a4 4 0 1 0 8 0 a4 4 0 1 0 -8 0zM1726.1 1012.25 a4 4 0 1 0 8 0 a4 4 0 1 0 -8 0zM1760.74 1032.25 a4 4 0 1 0 8 0 a4 4 0 1 0 -8 0zM1760.74 1072.25 a4 4 0 1 0 8 0 a4 4 0 1 0 -8 0zM1726.1 1092.25 a4 4 0 1 0 8 0 a4 4 0 1 0 -8 0zM1691.46 1072.25 a4 4 0 1 0 8 0 a4 4 0 1 0 -8 0zM1691.46 1032.25 a4 4 0 1 0 8 0 a4 4 0 1 0 -8 0zM1726.1 1252.25 a4 4 0 1 0 8 0 a4 4 0 1 0 -8 0zM1760.74 1272.25 a4 4 0 1 0 8 0 a4 4 0 1 0 -8 0zM1760.74 1312.25 a4 4 0 1 0 8 0 a4 4 0 1 0 -8 0zM1726.1 1332.25 a4 4 0 1 0 8 0 a4 4 0 1 0 -8 0zM1691.46 1312.25 a4 4 0 1 0 8 0 a4 4 0 1 0 -8 0zM1691.46 1272.25 a4 4 0 1 0 8 0 a4 4 0 1 0 -8 0zM1726.1 1372.25 a4 4 0 1 0 8 0 a4 4 0 1 0 -8 0zM1760.74 1392.25 a4 4 0 1 0 8 0 a4 4 0 1 0 -8 0zM1760.74 1432.25 a4 4 0 1 0 8 0 a4 4 0 1 0 -8 0zM1726.1 1452.25 a4 4 0 1 0 8 0 a4 4 0 1 0 -8 0zM1691.46 1432.25 a4 4 0 1 0 8 0 a4 4 0 1 0 -8 0zM1691.46 1392.25 a4 4 0 1 0 8 0 a4 4 0 1 0 -8 0zM1726.1 1492.25 a4 4 0 1 0 8 0 a4 4 0 1 0 -8 0zM1691.46 1512.25 a4 4 0 1 0 8 0 a4 4 0 1 0 -8 0zM1656.81 1492.25 a4 4 0 1 0 8 0 a4 4 0 1 0 -8 0zM1656.81 1452.25 a4 4 0 1 0 8 0 a4 4 0 1 0 -8 0zM1726.1 1852.25 a4 4 0 1 0 8 0 a4 4 0 1 0 -8 0zM1760.74 1872.25 a4 4 0 1 0 8 0 a4 4 0 1 0 -8 0zM1760.74 1912.25 a4 4 0 1 0 8 0 a4 4 0 1 0 -8 0zM1726.1 1932.25 a4 4 0 1 0 8 0 a4 4 0 1 0 -8 0zM1795.38 292.25 a4 4 0 1 0 8 0 a4 4 0 1 0 -8 0zM1830.02 312.25 a4 4 0 1 0 8 0 a4 4 0 1 0 -8 0zM1830.02 352.25 a4 4 0 1 0 8 0 a4 4 0 1 0 -8 0zM1795.38 372.25 a4 4 0 1 0 8 0 a4 4 0 1 0 -8 0zM1760.74 352.25 a4 4 0 1 0 8 0 a4 4 0 1 0 -8 0zM1760.74 312.25 a4 4 0 1 0 8 0 a4 4 0 1 0 -8 0zM1760.74 952.25 a4 4 0 1 0 8 0 a4 4 0 1 0 -8 0zM1795.38 972.25 a4 4 0 1 0 8 0 a4 4 0 1 0 -8 0zM1795.38 1012.25 a4 4 0 1 0 8 0 a4 4 0 1 0 -8 0zM1726.1 972.25 a4 4 0 1 0 8 0 a4 4 0 1 0 -8 0zM1795.38 1132.25 a4 4 0 1 0 8 0 a4 4 0 1 0 -8 0zM1830.02 1152.25 a4 4 0 1 0 8 0 a4 4 0 1 0 -8 0zM1830.02 1192.25 a4 4 0 1 0 8 0 a4 4 0 1 0 -8 0zM1795.38 1212.25 a4 4 0 1 0 8 0 a4 4 0 1 0 -8 0zM1760.74 1192.25 a4 4 0 1 0 8 0 a4 4 0 1 0 -8 0zM1760.74 1152.25 a4 4 0 1 0 8 0 a4 4 0 1 0 -8 0zM1795.38 1932.25 a4 4 0 1 0 8 0 a4 4 0 1 0 -8 0zM1795.38 1972.25 a4 4 0 1 0 8 0 a4 4 0 1 0 -8 0zM1760.74 1992.25 a4 4 0 1 0 8 0 a4 4 0 1 0 -8 0zM1726.1 1972.25 a4 4 0 1 0 8 0 a4 4 0 1 0 -8 0zM1760.74 2032.25 a4 4 0 1 0 8 0 a4 4 0 1 0 -8 0zM1795.38 2052.25 a4 4 0 1 0 8 0 a4 4 0 1 0 -8 0zM1795.38 2092.25 a4 4 0 1 0 8 0 a4 4 0 1 0 -8 0zM1760.74 2112.25 a4 4 0 1 0 8 0 a4 4 0 1 0 -8 0zM1726.1 2092.25 a4 4 0 1 0 8 0 a4 4 0 1 0 -8 0zM1726.1 2052.25 a4 4 0 1 0 8 0 a4 4 0 1 0 -8 0zM1830.02 112.25 a4 4 0 1 0 8 0 a4 4 0 1 0 -8 0zM1864.67 132.25 a4 4 0 1 0 8 0 a4 4 0 1 0 -8 0zM1864.67 172.25 a4 4 0 1 0 8 0 a4 4 0 1 0 -8 0zM1830.02 192.25 a4 4 0 1 0 8 0 a4 4 0 1 0 -8 0zM1795.38 172.25 a4 4 0 1 0 8 0 a4 4 0 1 0 -8 0zM1795.38 132.25 a4 4 0 1 0 8 0 a4 4 0 1 0 -8 0zM1830.02 232.25 a4 4 0 1 0 8 0 a4 4 0 1 0 -8 0zM1864.67 252.25 a4 4 0 1 0 8 0 a4 4 0 1 0 -8 0zM1864.67 292.25 a4 4 0 1 0 8 0 a4 4 0 1 0 -8 0zM1795.38 252.25 a4 4 0 1 0 8 0 a4 4 0 1 0 -8 0zM1864.67 652.25 a4 4 0 1 0 8 0 a4 4 0 1 0 -8 0zM1899.31 672.25 a4 4 0 1 0 8 0 a4 4 0 1 0 -8 0zM1899.31 712.25 a4 4 0 1 0 8 0 a4 4 0 1 0 -8 0zM1864.67 732.25 a4 4 0 1 0 8 0 a4 4 0 1 0 -8 0zM1830.02 712.25 a4 4 0 1 0 8 0 a4 4 0 1 0 -8 0zM1830.02 672.25 a4 4 0 1 0 8 0 a4 4 0 1 0 -8 0zM1830.02 952.25 a4 4 0 1 0 8 0 a4 4 0 1 0 -8 0zM1864.67 972.25 a4 4 0 1 0 8 0 a4 4 0 1 0 -8 0zM1864.67 1012.25 a4 4 0 1 0 8 0 a4 4 0 1 0 -8 0zM1830.02 1032.25 a4 4 0 1 0 8 0 a4 4 0 1 0 -8 0zM1830.02 1432.25 a4 4 0 1 0 8 0 a4 4 0 1 0 -8 0zM1864.67 1452.25 a4 4 0 1 0 8 0 a4 4 0 1 0 -8 0zM1864.67 1492.25 a4 4 0 1 0 8 0 a4 4 0 1 0 -8 0zM1830.02 1512.25 a4 4 0 1 0 8 0 a4 4 0 1 0 -8 0zM1795.38 1492.25 a4 4 0 1 0 8 0 a4 4 0 1 0 -8 0zM1795.38 1452.25 a4 4 0 1 0 8 0 a4 4 0 1 0 -8 0zM1830.02 1672.25 a4 4 0 1 0 8 0 a4 4 0 1 0 -8 0zM1864.67 1692.25 a4 4 0 1 0 8 0 a4 4 0 1 0 -8 0zM1864.67 1732.25 a4 4 0 1 0 8 0 a4 4 0 1 0 -8 0zM1830.02 1752.25 a4 4 0 1 0 8 0 a4 4 0 1 0 -8 0zM1795.38 1732.25 a4 4 0 1 0 8 0 a4 4 0 1 0 -8 0zM1795.38 1692.25 a4 4 0 1 0 8 0 a4 4 0 1 0 -8 0zM1899.31 1752.25 a4 4 0 1 0 8 0 a4 4 0 1 0 -8 0zM1899.31 1792.25 a4 4 0 1 0 8 0 a4 4 0 1 0 -8 0zM1864.67 1812.25 a4 4 0 1 0 8 0 a4 4 0 1 0 -8 0zM1830.02 1792.25 a4 4 0 1 0 8 0 a4 4 0 1 0 -8 0zM1899.31 232.25 a4 4 0 1 0 8 0 a4 4 0 1 0 -8 0zM1933.95 252.25 a4 4 0 1 0 8 0 a4 4 0 1 0 -8 0zM1933.95 292.25 a4 4 0 1 0 8 0 a4 4 0 1 0 -8 0zM1899.31 312.25 a4 4 0 1 0 8 0 a4 4 0 1 0 -8 0zM1933.95 1372.25 a4 4 0 1 0 8 0 a4 4 0 1 0 -8 0zM1968.59 1392.25 a4 4 0 1 0 8 0 a4 4 0 1 0 -8 0zM1968.59 1432.25 a4 4 0 1 0 8 0 a4 4 0 1 0 -8 0zM1933.95 1452.25 a4 4 0 1 0 8 0 a4 4 0 1 0 -8 0zM1899.31 1432.25 a4 4 0 1 0 8 0 a4 4 0 1 0 -8 0zM1899.31 1392.25 a4 4 0 1 0 8 0 a4 4 0 1 0 -8 0zM1933.95 1612.25 a4 4 0 1 0 8 0 a4 4 0 1 0 -8 0zM1968.59 1632.25 a4 4 0 1 0 8 0 a4 4 0 1 0 -8 0zM1968.59 1672.25 a4 4 0 1 0 8 0 a4 4 0 1 0 -8 0zM1933.95 1692.25 a4 4 0 1 0 8 0 a4 4 0 1 0 -8 0zM1899.31 1672.25 a4 4 0 1 0 8 0 a4 4 0 1 0 -8 0zM1899.31 1632.25 a4 4 0 1 0 8 0 a4 4 0 1 0 -8 0zM1933.95 2092.25 a4 4 0 1 0 8 0 a4 4 0 1 0 -8 0zM1968.59 2112.25 a4 4 0 1 0 8 0 a4 4 0 1 0 -8 0zM1968.59 2152.25 a4 4 0 1 0 8 0 a4 4 0 1 0 -8 0zM1933.95 2172.25 a4 4 0 1 0 8 0 a4 4 0 1 0 -8 0zM1899.31 2152.25 a4 4 0 1 0 8 0 a4 4 0 1 0 -8 0zM1899.31 2112.25 a4 4 0 1 0 8 0 a4 4 0 1 0 -8 0zM2003.23 52.25 a4 4 0 1 0 8 0 a4 4 0 1 0 -8 0zM2037.88 72.25 a4 4 0 1 0 8 0 a4 4 0 1 0 -8 0zM2037.88 112.25 a4 4 0 1 0 8 0 a4 4 0 1 0 -8 0zM2003.23 132.25 a4 4 0 1 0 8 0 a4 4 0 1 0 -8 0zM1968.59 112.25 a4 4 0 1 0 8 0 a4 4 0 1 0 -8 0zM1968.59 72.25 a4 4 0 1 0 8 0 a4 4 0 1 0 -8 0zM2003.23 652.25 a4 4 0 1 0 8 0 a4 4 0 1 0 -8 0zM2037.88 672.25 a4 4 0 1 0 8 0 a4 4 0 1 0 -8 0zM2037.88 712.25 a4 4 0 1 0 8 0 a4 4 0 1 0 -8 0zM2003.23 732.25 a4 4 0 1 0 8 0 a4 4 0 1 0 -8 0zM1968.59 712.25 a4 4 0 1 0 8 0 a4 4 0 1 0 -8 0zM1968.59 672.25 a4 4 0 1 0 8 0 a4 4 0 1 0 -8 0zM2003.23 1012.25 a4 4 0 1 0 8 0 a4 4 0 1 0 -8 0zM2037.88 1032.25 a4 4 0 1 0 8 0 a4 4 0 1 0 -8 0zM2037.88 1072.25 a4 4 0 1 0 8 0 a4 4 0 1 0 -8 0zM2003.23 1092.25 a4 4 0 1 0 8 0 a4 4 0 1 0 -8 0zM1968.59 1072.25 a4 4 0 1 0 8 0 a4 4 0 1 0 -8 0zM1968.59 1032.25 a4 4 0 1 0 8 0 a4 4 0 1 0 -8 0zM2003.23 1132.25 a4 4 0 1 0 8 0 a4 4 0 1 0 -8 0zM1968.59 1152.25 a4 4 0 1 0 8 0 a4 4 0 1 0 -8 0zM1933.95 1132.25 a4 4 0 1 0 8 0 a4 4 0 1 0 -8 0zM1933.95 1092.25 a4 4 0 1 0 8 0 a4 4 0 1 0 -8 0zM1968.59 1192.25 a4 4 0 1 0 8 0 a4 4 0 1 0 -8 0zM2003.23 1212.25 a4 4 0 1 0 8 0 a4 4 0 1 0 -8 0zM2003.23 1252.25 a4 4 0 1 0 8 0 a4 4 0 1 0 -8 0zM1968.59 1272.25 a4 4 0 1 0 8 0 a4 4 0 1 0 -8 0zM1933.95 1252.25 a4 4 0 1 0 8 0 a4 4 0 1 0 -8 0zM1933.95 1212.25 a4 4 0 1 0 8 0 a4 4 0 1 0 -8 0zM2037.88 1272.25 a4 4 0 1 0 8 0 a4 4 0 1 0 -8 0zM2037.88 1312.25 a4 4 0 1 0 8 0 a4 4 0 1 0 -8 0zM2003.23 1332.25 a4 4 0 1 0 8 0 a4 4 0 1 0 -8 0zM1968.59 1312.25 a4 4 0 1 0 8 0 a4 4 0 1 0 -8 0zM1968.59 1552.25 a4 4 0 1 0 8 0 a4 4 0 1 0 -8 0zM2003.23 1572.25 a4 4 0 1 0 8 0 a4 4 0 1 0 -8 0zM2003.23 1612.25 a4 4 0 1 0 8 0 a4 4 0 1 0 -8 0zM1933.95 1572.25 a4 4 0 1 0 8 0 a4 4 0 1 0 -8 0zM1968.59 1912.25 a4 4 0 1 0 8 0 a4 4 0 1 0 -8 0zM2003.23 1932.25 a4 4 0 1 0 8 0 a4 4 0 1 0 -8 0zM2003.23 1972.25 a4 4 0 1 0 8 0 a4 4 0 1 0 -8 0zM1968.59 1992.25 a4 4 0 1 0 8 0 a4 4 0 1 0 -8 0zM1933.95 1972.25 a4 4 0 1 0 8 0 a4 4 0 1 0 -8 0zM1933.95 1932.25 a4 4 0 1 0 8 0 a4 4 0 1 0 -8 0zM2003.23 2172.25 a4 4 0 1 0 8 0 a4 4 0 1 0 -8 0zM2003.23 2212.25 a4 4 0 1 0 8 0 a4 4 0 1 0 -8 0zM1968.59 2232.25 a4 4 0 1 0 8 0 a4 4 0 1 0 -8 0zM1933.95 2212.25 a4 4 0 1 0 8 0 a4 4 0 1 0 -8 0zM2072.52 52.25 a4 4 0 1 0 8 0 a4 4 0 1 0 -8 0zM2107.16 72.25 a4 4 0 1 0 8 0 a4 4 0 1 0 -8 0zM2107.16 112.25 a4 4 0 1 0 8 0 a4 4 0 1 0 -8 0zM2072.52 132.25 a4 4 0 1 0 8 0 a4 4 0 1 0 -8 0zM2037.88 352.25 a4 4 0 1 0 8 0 a4 4 0 1 0 -8 0zM2072.52 372.25 a4 4 0 1 0 8 0 a4 4 0 1 0 -8 0zM2072.52 412.25 a4 4 0 1 0 8 0 a4 4 0 1 0 -8 0zM2037.88 432.25 a4 4 0 1 0 8 0 a4 4 0 1 0 -8 0zM2003.23 412.25 a4 4 0 1 0 8 0 a4 4 0 1 0 -8 0zM2003.23 372.25 a4 4 0 1 0 8 0 a4 4 0 1 0 -8 0zM2037.88 1432.25 a4 4 0 1 0 8 0 a4 4 0 1 0 -8 0zM2072.52 1452.25 a4 4 0 1 0 8 0 a4 4 0 1 0 -8 0zM2072.52 1492.25 a4 4 0 1 0 8 0 a4 4 0 1 0 -8 0zM2037.88 1512.25 a4 4 0 1 0 8 0 a4 4 0 1 0 -8 0zM2003.23 1492.25 a4 4 0 1 0 8 0 a4 4 0 1 0 -8 0zM2003.23 1452.25 a4 4 0 1 0 8 0 a4 4 0 1 0 -8 0zM2037.88 1552.25 a4 4 0 1 0 8 0 a4 4 0 1 0 -8 0zM2072.52 1572.25 a4 4 0 1 0 8 0 a4 4 0 1 0 -8 0zM2072.52 1612.25 a4 4 0 1 0 8 0 a4 4 0 1 0 -8 0zM2037.88 1632.25 a4 4 0 1 0 8 0 a4 4 0 1 0 -8 0zM2072.52 1852.25 a4 4 0 1 0 8 0 a4 4 0 1 0 -8 0zM2107.16 1872.25 a4 4 0 1 0 8 0 a4 4 0 1 0 -8 0zM2107.16 1912.25 a4 4 0 1 0 8 0 a4 4 0 1 0 -8 0zM2072.52 1932.25 a4 4 0 1 0 8 0 a4 4 0 1 0 -8 0zM2037.88 1912.25 a4 4 0 1 0 8 0 a4 4 0 1 0 -8 0zM2037.88 1872.25 a4 4 0 1 0 8 0 a4 4 0 1 0 -8 0zM2141.8 772.25 a4 4 0 1 0 8 0 a4 4 0 1 0 -8 0zM2176.44 792.25 a4 4 0 1 0 8 0 a4 4 0 1 0 -8 0zM2176.44 832.25 a4 4 0 1 0 8 0 a4 4 0 1 0 -8 0zM2141.8 852.25 a4 4 0 1 0 8 0 a4 4 0 1 0 -8 0zM2107.16 832.25 a4 4 0 1 0 8 0 a4 4 0 1 0 -8 0zM2107.16 792.25 a4 4 0 1 0 8 0 a4 4 0 1 0 -8 0zM2107.16 1072.25 a4 4 0 1 0 8 0 a4 4 0 1 0 -8 0zM2141.8 1092.25 a4 4 0 1 0 8 0 a4 4 0 1 0 -8 0zM2141.8 1132.25 a4 4 0 1 0 8 0 a4 4 0 1 0 -8 0zM2107.16 1152.25 a4 4 0 1 0 8 0 a4 4 0 1 0 -8 0zM2072.52 1132.25 a4 4 0 1 0 8 0 a4 4 0 1 0 -8 0zM2072.52 1092.25 a4 4 0 1 0 8 0 a4 4 0 1 0 -8 0zM2176.44 1152.25 a4 4 0 1 0 8 0 a4 4 0 1 0 -8 0zM2176.44 1192.25 a4 4 0 1 0 8 0 a4 4 0 1 0 -8 0zM2141.8 1212.25 a4 4 0 1 0 8 0 a4 4 0 1 0 -8 0zM2107.16 1192.25 a4 4 0 1 0 8 0 a4 4 0 1 0 -8 0zM2141.8 1492.25 a4 4 0 1 0 8 0 a4 4 0 1 0 -8 0zM2176.44 1512.25 a4 4 0 1 0 8 0 a4 4 0 1 0 -8 0zM2176.44 1552.25 a4 4 0 1 0 8 0 a4 4 0 1 0 -8 0zM2141.8 1572.25 a4 4 0 1 0 8 0 a4 4 0 1 0 -8 0zM2107.16 1552.25 a4 4 0 1 0 8 0 a4 4 0 1 0 -8 0zM2107.16 1512.25 a4 4 0 1 0 8 0 a4 4 0 1 0 -8 0z" fill="rgba(85, 253, 255, 0.13)"></path><path d="M205.39 1440.39L378.6 1540.39L378.6 1740.39L205.39 1840.39L32.18 1740.39L32.18 1540.39zM32.18 1740.39L205.39 1840.39L205.39 2040.39L32.18 2140.39L-141.03 2040.39L-141.03 1840.39zM551.81 240.39L725.02 340.39L725.02 540.39L551.81 640.39L378.6 540.39L378.6 340.39zM378.6 540.39L551.81 640.39L551.81 840.39L378.6 940.39L205.39 840.39L205.39 640.39zM378.6 1740.39L551.81 1840.39L551.81 2040.39L378.6 2140.39L205.39 2040.39L205.39 1840.39zM725.02 540.39L898.23 640.39L898.23 840.39L725.02 940.39L551.81 840.39L551.81 640.39zM898.23 840.39L1071.44 940.39L1071.44 1140.39L898.23 1240.39L725.02 1140.39L725.02 940.39zM725.02 1140.39L898.23 1240.39L898.23 1440.39L725.02 1540.39L551.81 1440.39L551.81 1240.39zM725.02 1740.39L898.23 1840.39L898.23 2040.39L725.02 2140.39L551.81 2040.39L551.81 1840.39zM898.23 2040.39L1071.44 2140.39L1071.44 2340.39L898.23 2440.39L725.02 2340.39L725.02 2140.39zM1071.44 540.39L1244.65 640.39L1244.65 840.39L1071.44 940.39L898.23 840.39L898.23 640.39zM1244.65 840.39L1417.86 940.39L1417.86 1140.39L1244.65 1240.39L1071.44 1140.39L1071.44 940.39zM1071.44 1740.39L1244.65 1840.39L1244.65 2040.39L1071.44 2140.39L898.23 2040.39L898.23 1840.39zM1591.07 240.39L1764.28 340.39L1764.28 540.39L1591.07 640.39L1417.86 540.39L1417.86 340.39zM1591.07 1440.39L1764.28 1540.39L1764.28 1740.39L1591.07 1840.39L1417.86 1740.39L1417.86 1540.39zM1764.28 -59.61L1937.49 40.39L1937.49 240.39L1764.28 340.39L1591.07 240.39L1591.07 40.39zM1937.49 840.39L2110.7 940.39L2110.7 1140.39L1937.49 1240.39L1764.28 1140.39L1764.28 940.39zM1764.28 1140.39L1937.49 1240.39L1937.49 1440.39L1764.28 1540.39L1591.07 1440.39L1591.07 1240.39zM1937.49 1440.39L2110.7 1540.39L2110.7 1740.39L1937.49 1840.39L1764.28 1740.39L1764.28 1540.39zM1764.28 1740.39L1937.49 1840.39L1937.49 2040.39L1764.28 2140.39L1591.07 2040.39L1591.07 1840.39zM2110.7 -59.61L2283.91 40.39L2283.91 240.39L2110.7 340.39L1937.49 240.39L1937.49 40.39zM2110.7 540.39L2283.91 640.39L2283.91 840.39L2110.7 940.39L1937.49 840.39L1937.49 640.39zM2110.7 1740.39L2283.91 1840.39L2283.91 2040.39L2110.7 2140.39L1937.49 2040.39L1937.49 1840.39z" stroke="rgba(211, 84, 0, 0.13)" stroke-width="2"></path></g><defs><mask id="SvgjsMask1566"><rect width="2140" height="2140" fill="#ffffff"></rect></mask></defs></svg>