<svg xmlns="http://www.w3.org/2000/svg" version="1.1" xmlns:xlink="http://www.w3.org/1999/xlink" xmlns:svgjs="http://svgjs.dev/svgjs" width="2140" height="1260" preserveAspectRatio="none" viewBox="0 0 2140 1260"><g mask="url(&quot;#SvgjsMask1335&quot;)" fill="none"><rect width="2140" height="1260" x="0" y="0" fill="rgba(0, 133, 255, 1)"></rect><path d="M120.54 -14.75L230.53 48.75L230.53 175.75L120.54 239.25L10.55 175.75L10.55 48.75zM340.52 -14.75L450.51 48.75L450.51 175.75L340.52 239.25L230.53 175.75L230.53 48.75zM340.52 747.25L450.51 810.75L450.51 937.75L340.52 1001.25L230.53 937.75L230.53 810.75zM340.52 1128.25L450.51 1191.75L450.51 1318.75L340.52 1382.25L230.53 1318.75L230.53 1191.75zM670.48 556.75L780.47 620.25L780.47 747.25L670.48 810.75L560.49 747.25L560.49 620.25zM560.49 747.25L670.48 810.75L670.48 937.75L560.49 1001.25L450.51 937.75L450.51 810.75zM670.48 937.75L780.47 1001.25L780.47 1128.25L670.48 1191.75L560.49 1128.25L560.49 1001.25zM560.49 1128.25L670.48 1191.75L670.48 1318.75L560.49 1382.25L450.51 1318.75L450.51 1191.75zM670.48 1318.75L780.47 1382.25L780.47 1509.25L670.48 1572.75L560.49 1509.25L560.49 1382.25zM780.47 -14.75L890.46 48.75L890.46 175.75L780.47 239.25L670.48 175.75L670.48 48.75zM890.46 175.75L1000.45 239.25L1000.45 366.25L890.46 429.75L780.47 366.25L780.47 239.25zM780.47 1128.25L890.46 1191.75L890.46 1318.75L780.47 1382.25L670.48 1318.75L670.48 1191.75zM1110.44 556.75L1220.42 620.25L1220.42 747.25L1110.44 810.75L1000.45 747.25L1000.45 620.25zM1110.44 937.75L1220.42 1001.25L1220.42 1128.25L1110.44 1191.75L1000.45 1128.25L1000.45 1001.25zM1220.42 747.25L1330.41 810.75L1330.41 937.75L1220.42 1001.25L1110.44 937.75L1110.44 810.75zM1330.41 937.75L1440.4 1001.25L1440.4 1128.25L1330.41 1191.75L1220.42 1128.25L1220.42 1001.25zM1440.4 -14.75L1550.39 48.75L1550.39 175.75L1440.4 239.25L1330.41 175.75L1330.41 48.75zM1440.4 747.25L1550.39 810.75L1550.39 937.75L1440.4 1001.25L1330.41 937.75L1330.41 810.75zM1550.39 1318.75L1660.38 1382.25L1660.38 1509.25L1550.39 1572.75L1440.4 1509.25L1440.4 1382.25zM1660.38 -14.75L1770.37 48.75L1770.37 175.75L1660.38 239.25L1550.39 175.75L1550.39 48.75zM1770.37 937.75L1880.35 1001.25L1880.35 1128.25L1770.37 1191.75L1660.38 1128.25L1660.38 1001.25zM1880.35 -14.75L1990.34 48.75L1990.34 175.75L1880.35 239.25L1770.37 175.75L1770.37 48.75zM1990.34 175.75L2100.33 239.25L2100.33 366.25L1990.34 429.75L1880.35 366.25L1880.35 239.25zM1880.35 747.25L1990.34 810.75L1990.34 937.75L1880.35 1001.25L1770.37 937.75L1770.37 810.75zM1880.35 1128.25L1990.34 1191.75L1990.34 1318.75L1880.35 1382.25L1770.37 1318.75L1770.37 1191.75zM1990.34 1318.75L2100.33 1382.25L2100.33 1509.25L1990.34 1572.75L1880.35 1509.25L1880.35 1382.25zM2100.33 -14.75L2210.32 48.75L2210.32 175.75L2100.33 239.25L1990.34 175.75L1990.34 48.75zM2100.33 747.25L2210.32 810.75L2210.32 937.75L2100.33 1001.25L1990.34 937.75L1990.34 810.75zM2210.32 1318.75L2320.31 1382.25L2320.31 1509.25L2210.32 1572.75L2100.33 1509.25L2100.33 1382.25z" stroke="rgba(255, 255, 255, 0.72)" stroke-width="2"></path><path d="M107.84 -14.75 a12.7 12.7 0 1 0 25.4 0 a12.7 12.7 0 1 0 -25.4 0zM217.83 48.75 a12.7 12.7 0 1 0 25.4 0 a12.7 12.7 0 1 0 -25.4 0zM217.83 175.75 a12.7 12.7 0 1 0 25.4 0 a12.7 12.7 0 1 0 -25.4 0zM107.84 239.25 a12.7 12.7 0 1 0 25.4 0 a12.7 12.7 0 1 0 -25.4 0zM-2.15 175.75 a12.7 12.7 0 1 0 25.4 0 a12.7 12.7 0 1 0 -25.4 0zM-2.15 48.75 a12.7 12.7 0 1 0 25.4 0 a12.7 12.7 0 1 0 -25.4 0zM327.82 -14.75 a12.7 12.7 0 1 0 25.4 0 a12.7 12.7 0 1 0 -25.4 0zM437.81 48.75 a12.7 12.7 0 1 0 25.4 0 a12.7 12.7 0 1 0 -25.4 0zM437.81 175.75 a12.7 12.7 0 1 0 25.4 0 a12.7 12.7 0 1 0 -25.4 0zM327.82 239.25 a12.7 12.7 0 1 0 25.4 0 a12.7 12.7 0 1 0 -25.4 0zM327.82 747.25 a12.7 12.7 0 1 0 25.4 0 a12.7 12.7 0 1 0 -25.4 0zM437.81 810.75 a12.7 12.7 0 1 0 25.4 0 a12.7 12.7 0 1 0 -25.4 0zM437.81 937.75 a12.7 12.7 0 1 0 25.4 0 a12.7 12.7 0 1 0 -25.4 0zM327.82 1001.25 a12.7 12.7 0 1 0 25.4 0 a12.7 12.7 0 1 0 -25.4 0zM217.83 937.75 a12.7 12.7 0 1 0 25.4 0 a12.7 12.7 0 1 0 -25.4 0zM217.83 810.75 a12.7 12.7 0 1 0 25.4 0 a12.7 12.7 0 1 0 -25.4 0zM327.82 1128.25 a12.7 12.7 0 1 0 25.4 0 a12.7 12.7 0 1 0 -25.4 0zM437.81 1191.75 a12.7 12.7 0 1 0 25.4 0 a12.7 12.7 0 1 0 -25.4 0zM437.81 1318.75 a12.7 12.7 0 1 0 25.4 0 a12.7 12.7 0 1 0 -25.4 0zM327.82 1382.25 a12.7 12.7 0 1 0 25.4 0 a12.7 12.7 0 1 0 -25.4 0zM217.83 1318.75 a12.7 12.7 0 1 0 25.4 0 a12.7 12.7 0 1 0 -25.4 0zM217.83 1191.75 a12.7 12.7 0 1 0 25.4 0 a12.7 12.7 0 1 0 -25.4 0zM657.78 556.75 a12.7 12.7 0 1 0 25.4 0 a12.7 12.7 0 1 0 -25.4 0zM767.77 620.25 a12.7 12.7 0 1 0 25.4 0 a12.7 12.7 0 1 0 -25.4 0zM767.77 747.25 a12.7 12.7 0 1 0 25.4 0 a12.7 12.7 0 1 0 -25.4 0zM657.78 810.75 a12.7 12.7 0 1 0 25.4 0 a12.7 12.7 0 1 0 -25.4 0zM547.79 747.25 a12.7 12.7 0 1 0 25.4 0 a12.7 12.7 0 1 0 -25.4 0zM547.79 620.25 a12.7 12.7 0 1 0 25.4 0 a12.7 12.7 0 1 0 -25.4 0zM657.78 937.75 a12.7 12.7 0 1 0 25.4 0 a12.7 12.7 0 1 0 -25.4 0zM547.79 1001.25 a12.7 12.7 0 1 0 25.4 0 a12.7 12.7 0 1 0 -25.4 0zM767.77 1001.25 a12.7 12.7 0 1 0 25.4 0 a12.7 12.7 0 1 0 -25.4 0zM767.77 1128.25 a12.7 12.7 0 1 0 25.4 0 a12.7 12.7 0 1 0 -25.4 0zM657.78 1191.75 a12.7 12.7 0 1 0 25.4 0 a12.7 12.7 0 1 0 -25.4 0zM547.79 1128.25 a12.7 12.7 0 1 0 25.4 0 a12.7 12.7 0 1 0 -25.4 0zM657.78 1318.75 a12.7 12.7 0 1 0 25.4 0 a12.7 12.7 0 1 0 -25.4 0zM547.79 1382.25 a12.7 12.7 0 1 0 25.4 0 a12.7 12.7 0 1 0 -25.4 0zM767.77 1382.25 a12.7 12.7 0 1 0 25.4 0 a12.7 12.7 0 1 0 -25.4 0zM767.77 1509.25 a12.7 12.7 0 1 0 25.4 0 a12.7 12.7 0 1 0 -25.4 0zM657.78 1572.75 a12.7 12.7 0 1 0 25.4 0 a12.7 12.7 0 1 0 -25.4 0zM547.79 1509.25 a12.7 12.7 0 1 0 25.4 0 a12.7 12.7 0 1 0 -25.4 0zM767.77 -14.75 a12.7 12.7 0 1 0 25.4 0 a12.7 12.7 0 1 0 -25.4 0zM877.76 48.75 a12.7 12.7 0 1 0 25.4 0 a12.7 12.7 0 1 0 -25.4 0zM877.76 175.75 a12.7 12.7 0 1 0 25.4 0 a12.7 12.7 0 1 0 -25.4 0zM767.77 239.25 a12.7 12.7 0 1 0 25.4 0 a12.7 12.7 0 1 0 -25.4 0zM657.78 175.75 a12.7 12.7 0 1 0 25.4 0 a12.7 12.7 0 1 0 -25.4 0zM657.78 48.75 a12.7 12.7 0 1 0 25.4 0 a12.7 12.7 0 1 0 -25.4 0zM987.75 239.25 a12.7 12.7 0 1 0 25.4 0 a12.7 12.7 0 1 0 -25.4 0zM987.75 366.25 a12.7 12.7 0 1 0 25.4 0 a12.7 12.7 0 1 0 -25.4 0zM877.76 429.75 a12.7 12.7 0 1 0 25.4 0 a12.7 12.7 0 1 0 -25.4 0zM767.77 366.25 a12.7 12.7 0 1 0 25.4 0 a12.7 12.7 0 1 0 -25.4 0zM877.76 1191.75 a12.7 12.7 0 1 0 25.4 0 a12.7 12.7 0 1 0 -25.4 0zM877.76 1318.75 a12.7 12.7 0 1 0 25.4 0 a12.7 12.7 0 1 0 -25.4 0zM1097.74 556.75 a12.7 12.7 0 1 0 25.4 0 a12.7 12.7 0 1 0 -25.4 0zM1207.72 620.25 a12.7 12.7 0 1 0 25.4 0 a12.7 12.7 0 1 0 -25.4 0zM1207.72 747.25 a12.7 12.7 0 1 0 25.4 0 a12.7 12.7 0 1 0 -25.4 0zM1097.74 810.75 a12.7 12.7 0 1 0 25.4 0 a12.7 12.7 0 1 0 -25.4 0zM987.75 747.25 a12.7 12.7 0 1 0 25.4 0 a12.7 12.7 0 1 0 -25.4 0zM987.75 620.25 a12.7 12.7 0 1 0 25.4 0 a12.7 12.7 0 1 0 -25.4 0zM1097.74 937.75 a12.7 12.7 0 1 0 25.4 0 a12.7 12.7 0 1 0 -25.4 0zM1207.72 1001.25 a12.7 12.7 0 1 0 25.4 0 a12.7 12.7 0 1 0 -25.4 0zM1207.72 1128.25 a12.7 12.7 0 1 0 25.4 0 a12.7 12.7 0 1 0 -25.4 0zM1097.74 1191.75 a12.7 12.7 0 1 0 25.4 0 a12.7 12.7 0 1 0 -25.4 0zM987.75 1128.25 a12.7 12.7 0 1 0 25.4 0 a12.7 12.7 0 1 0 -25.4 0zM987.75 1001.25 a12.7 12.7 0 1 0 25.4 0 a12.7 12.7 0 1 0 -25.4 0zM1317.71 810.75 a12.7 12.7 0 1 0 25.4 0 a12.7 12.7 0 1 0 -25.4 0zM1317.71 937.75 a12.7 12.7 0 1 0 25.4 0 a12.7 12.7 0 1 0 -25.4 0zM1427.7 1001.25 a12.7 12.7 0 1 0 25.4 0 a12.7 12.7 0 1 0 -25.4 0zM1427.7 1128.25 a12.7 12.7 0 1 0 25.4 0 a12.7 12.7 0 1 0 -25.4 0zM1317.71 1191.75 a12.7 12.7 0 1 0 25.4 0 a12.7 12.7 0 1 0 -25.4 0zM1427.7 -14.75 a12.7 12.7 0 1 0 25.4 0 a12.7 12.7 0 1 0 -25.4 0zM1537.69 48.75 a12.7 12.7 0 1 0 25.4 0 a12.7 12.7 0 1 0 -25.4 0zM1537.69 175.75 a12.7 12.7 0 1 0 25.4 0 a12.7 12.7 0 1 0 -25.4 0zM1427.7 239.25 a12.7 12.7 0 1 0 25.4 0 a12.7 12.7 0 1 0 -25.4 0zM1317.71 175.75 a12.7 12.7 0 1 0 25.4 0 a12.7 12.7 0 1 0 -25.4 0zM1317.71 48.75 a12.7 12.7 0 1 0 25.4 0 a12.7 12.7 0 1 0 -25.4 0zM1427.7 747.25 a12.7 12.7 0 1 0 25.4 0 a12.7 12.7 0 1 0 -25.4 0zM1537.69 810.75 a12.7 12.7 0 1 0 25.4 0 a12.7 12.7 0 1 0 -25.4 0zM1537.69 937.75 a12.7 12.7 0 1 0 25.4 0 a12.7 12.7 0 1 0 -25.4 0zM1537.69 1318.75 a12.7 12.7 0 1 0 25.4 0 a12.7 12.7 0 1 0 -25.4 0zM1647.68 1382.25 a12.7 12.7 0 1 0 25.4 0 a12.7 12.7 0 1 0 -25.4 0zM1647.68 1509.25 a12.7 12.7 0 1 0 25.4 0 a12.7 12.7 0 1 0 -25.4 0zM1537.69 1572.75 a12.7 12.7 0 1 0 25.4 0 a12.7 12.7 0 1 0 -25.4 0zM1427.7 1509.25 a12.7 12.7 0 1 0 25.4 0 a12.7 12.7 0 1 0 -25.4 0zM1427.7 1382.25 a12.7 12.7 0 1 0 25.4 0 a12.7 12.7 0 1 0 -25.4 0zM1647.68 -14.75 a12.7 12.7 0 1 0 25.4 0 a12.7 12.7 0 1 0 -25.4 0zM1757.67 48.75 a12.7 12.7 0 1 0 25.4 0 a12.7 12.7 0 1 0 -25.4 0zM1757.67 175.75 a12.7 12.7 0 1 0 25.4 0 a12.7 12.7 0 1 0 -25.4 0zM1647.68 239.25 a12.7 12.7 0 1 0 25.4 0 a12.7 12.7 0 1 0 -25.4 0zM1757.67 937.75 a12.7 12.7 0 1 0 25.4 0 a12.7 12.7 0 1 0 -25.4 0zM1867.65 1001.25 a12.7 12.7 0 1 0 25.4 0 a12.7 12.7 0 1 0 -25.4 0zM1867.65 1128.25 a12.7 12.7 0 1 0 25.4 0 a12.7 12.7 0 1 0 -25.4 0zM1757.67 1191.75 a12.7 12.7 0 1 0 25.4 0 a12.7 12.7 0 1 0 -25.4 0zM1647.68 1128.25 a12.7 12.7 0 1 0 25.4 0 a12.7 12.7 0 1 0 -25.4 0zM1647.68 1001.25 a12.7 12.7 0 1 0 25.4 0 a12.7 12.7 0 1 0 -25.4 0zM1867.65 -14.75 a12.7 12.7 0 1 0 25.4 0 a12.7 12.7 0 1 0 -25.4 0zM1977.64 48.75 a12.7 12.7 0 1 0 25.4 0 a12.7 12.7 0 1 0 -25.4 0zM1977.64 175.75 a12.7 12.7 0 1 0 25.4 0 a12.7 12.7 0 1 0 -25.4 0zM1867.65 239.25 a12.7 12.7 0 1 0 25.4 0 a12.7 12.7 0 1 0 -25.4 0zM2087.63 239.25 a12.7 12.7 0 1 0 25.4 0 a12.7 12.7 0 1 0 -25.4 0zM2087.63 366.25 a12.7 12.7 0 1 0 25.4 0 a12.7 12.7 0 1 0 -25.4 0zM1977.64 429.75 a12.7 12.7 0 1 0 25.4 0 a12.7 12.7 0 1 0 -25.4 0zM1867.65 366.25 a12.7 12.7 0 1 0 25.4 0 a12.7 12.7 0 1 0 -25.4 0zM1867.65 747.25 a12.7 12.7 0 1 0 25.4 0 a12.7 12.7 0 1 0 -25.4 0zM1977.64 810.75 a12.7 12.7 0 1 0 25.4 0 a12.7 12.7 0 1 0 -25.4 0zM1977.64 937.75 a12.7 12.7 0 1 0 25.4 0 a12.7 12.7 0 1 0 -25.4 0zM1757.67 810.75 a12.7 12.7 0 1 0 25.4 0 a12.7 12.7 0 1 0 -25.4 0zM1977.64 1191.75 a12.7 12.7 0 1 0 25.4 0 a12.7 12.7 0 1 0 -25.4 0zM1977.64 1318.75 a12.7 12.7 0 1 0 25.4 0 a12.7 12.7 0 1 0 -25.4 0zM1867.65 1382.25 a12.7 12.7 0 1 0 25.4 0 a12.7 12.7 0 1 0 -25.4 0zM1757.67 1318.75 a12.7 12.7 0 1 0 25.4 0 a12.7 12.7 0 1 0 -25.4 0zM2087.63 1382.25 a12.7 12.7 0 1 0 25.4 0 a12.7 12.7 0 1 0 -25.4 0zM2087.63 1509.25 a12.7 12.7 0 1 0 25.4 0 a12.7 12.7 0 1 0 -25.4 0zM1977.64 1572.75 a12.7 12.7 0 1 0 25.4 0 a12.7 12.7 0 1 0 -25.4 0zM1867.65 1509.25 a12.7 12.7 0 1 0 25.4 0 a12.7 12.7 0 1 0 -25.4 0zM2087.63 -14.75 a12.7 12.7 0 1 0 25.4 0 a12.7 12.7 0 1 0 -25.4 0zM2197.62 48.75 a12.7 12.7 0 1 0 25.4 0 a12.7 12.7 0 1 0 -25.4 0zM2197.62 175.75 a12.7 12.7 0 1 0 25.4 0 a12.7 12.7 0 1 0 -25.4 0zM2087.63 747.25 a12.7 12.7 0 1 0 25.4 0 a12.7 12.7 0 1 0 -25.4 0zM2197.62 810.75 a12.7 12.7 0 1 0 25.4 0 a12.7 12.7 0 1 0 -25.4 0zM2197.62 937.75 a12.7 12.7 0 1 0 25.4 0 a12.7 12.7 0 1 0 -25.4 0zM2087.63 1001.25 a12.7 12.7 0 1 0 25.4 0 a12.7 12.7 0 1 0 -25.4 0zM2197.62 1318.75 a12.7 12.7 0 1 0 25.4 0 a12.7 12.7 0 1 0 -25.4 0zM2307.61 1382.25 a12.7 12.7 0 1 0 25.4 0 a12.7 12.7 0 1 0 -25.4 0zM2307.61 1509.25 a12.7 12.7 0 1 0 25.4 0 a12.7 12.7 0 1 0 -25.4 0zM2197.62 1572.75 a12.7 12.7 0 1 0 25.4 0 a12.7 12.7 0 1 0 -25.4 0z" fill="rgba(255, 255, 255, 0.72)"></path><path d="M46.77 1127.41L94.4 1154.91L94.4 1209.91L46.77 1237.41L-0.86 1209.91L-0.86 1154.91zM142.04 137.41L189.67 164.91L189.67 219.91L142.04 247.41L94.4 219.91L94.4 164.91zM189.67 384.91L237.3 412.41L237.3 467.41L189.67 494.91L142.04 467.41L142.04 412.41zM189.67 549.91L237.3 577.41L237.3 632.41L189.67 659.91L142.04 632.41L142.04 577.41zM189.67 1044.91L237.3 1072.41L237.3 1127.41L189.67 1154.91L142.04 1127.41L142.04 1072.41zM284.93 219.91L332.57 247.41L332.57 302.41L284.93 329.91L237.3 302.41L237.3 247.41zM237.3 797.41L284.93 824.91L284.93 879.91L237.3 907.41L189.67 879.91L189.67 824.91zM284.93 1044.91L332.57 1072.41L332.57 1127.41L284.93 1154.91L237.3 1127.41L237.3 1072.41zM332.57 137.41L380.2 164.91L380.2 219.91L332.57 247.41L284.93 219.91L284.93 164.91zM427.83 632.41L475.46 659.91L475.46 714.91L427.83 742.41L380.2 714.91L380.2 659.91zM427.83 962.41L475.46 989.91L475.46 1044.91L427.83 1072.41L380.2 1044.91L380.2 989.91zM618.36 137.41L666 164.91L666 219.91L618.36 247.41L570.73 219.91L570.73 164.91zM618.36 302.41L666 329.91L666 384.91L618.36 412.41L570.73 384.91L570.73 329.91zM666 549.91L713.63 577.41L713.63 632.41L666 659.91L618.36 632.41L618.36 577.41zM618.36 632.41L666 659.91L666 714.91L618.36 742.41L570.73 714.91L570.73 659.91zM618.36 797.41L666 824.91L666 879.91L618.36 907.41L570.73 879.91L570.73 824.91zM618.36 1127.41L666 1154.91L666 1209.91L618.36 1237.41L570.73 1209.91L570.73 1154.91zM761.26 384.91L808.89 412.41L808.89 467.41L761.26 494.91L713.63 467.41L713.63 412.41zM761.26 879.91L808.89 907.41L808.89 962.41L761.26 989.91L713.63 962.41L713.63 907.41zM856.53 54.91L904.16 82.41L904.16 137.41L856.53 164.91L808.89 137.41L808.89 82.41zM808.89 1127.41L856.53 1154.91L856.53 1209.91L808.89 1237.41L761.26 1209.91L761.26 1154.91zM904.16 137.41L951.79 164.91L951.79 219.91L904.16 247.41L856.53 219.91L856.53 164.91zM1047.06 219.91L1094.69 247.41L1094.69 302.41L1047.06 329.91L999.42 302.41L999.42 247.41zM1047.06 714.91L1094.69 742.41L1094.69 797.41L1047.06 824.91L999.42 797.41L999.42 742.41zM1094.69 1127.41L1142.32 1154.91L1142.32 1209.91L1094.69 1237.41L1047.06 1209.91L1047.06 1154.91zM1237.59 879.91L1285.22 907.41L1285.22 962.41L1237.59 989.91L1189.96 962.41L1189.96 907.41zM1428.12 714.91L1475.75 742.41L1475.75 797.41L1428.12 824.91L1380.49 797.41L1380.49 742.41zM1428.12 879.91L1475.75 907.41L1475.75 962.41L1428.12 989.91L1380.49 962.41L1380.49 907.41zM1523.39 1044.91L1571.02 1072.41L1571.02 1127.41L1523.39 1154.91L1475.75 1127.41L1475.75 1072.41zM1809.18 219.91L1856.81 247.41L1856.81 302.41L1809.18 329.91L1761.55 302.41L1761.55 247.41zM1809.18 384.91L1856.81 412.41L1856.81 467.41L1809.18 494.91L1761.55 467.41L1761.55 412.41zM1761.55 797.41L1809.18 824.91L1809.18 879.91L1761.55 907.41L1713.92 879.91L1713.92 824.91zM1904.45 1209.91L1952.08 1237.41L1952.08 1292.41L1904.45 1319.91L1856.81 1292.41L1856.81 1237.41zM1999.71 54.91L2047.35 82.41L2047.35 137.41L1999.71 164.91L1952.08 137.41L1952.08 82.41zM2190.24 54.91L2237.88 82.41L2237.88 137.41L2190.24 164.91L2142.61 137.41L2142.61 82.41zM2190.24 714.91L2237.88 742.41L2237.88 797.41L2190.24 824.91L2142.61 797.41L2142.61 742.41z" stroke="rgba(255, 255, 255, 0.93)" stroke-width="2"></path></g><defs><mask id="SvgjsMask1335"><rect width="2140" height="1260" fill="#ffffff"></rect></mask></defs></svg>