<svg xmlns="http://www.w3.org/2000/svg" version="1.1" xmlns:xlink="http://www.w3.org/1999/xlink" xmlns:svgjs="http://svgjs.dev/svgjs" width="2140" height="2140" preserveAspectRatio="none" viewBox="0 0 2140 2140"><g mask="url(&quot;#SvgjsMask2076&quot;)" fill="none"><rect width="2140" height="2140" x="0" y="0" fill="rgba(0, 2, 40, 1)"></rect><path d="M17.31 87.03L54.55 108.53L54.55 151.53L17.31 173.03L-19.93 151.53L-19.93 108.53zM54.55 151.53L91.79 173.03L91.79 216.03L54.55 237.53L17.31 216.03L17.31 173.03zM17.31 603.03L54.55 624.53L54.55 667.53L17.31 689.03L-19.93 667.53L-19.93 624.53zM17.31 1119.03L54.55 1140.53L54.55 1183.53L17.31 1205.03L-19.93 1183.53L-19.93 1140.53zM54.55 1183.53L91.79 1205.03L91.79 1248.03L54.55 1269.53L17.31 1248.03L17.31 1205.03zM54.55 1570.53L91.79 1592.03L91.79 1635.03L54.55 1656.53L17.31 1635.03L17.31 1592.03zM54.55 1957.53L91.79 1979.03L91.79 2022.03L54.55 2043.53L17.31 2022.03L17.31 1979.03zM54.55 2086.53L91.79 2108.03L91.79 2151.03L54.55 2172.53L17.31 2151.03L17.31 2108.03zM91.79 216.03L129.03 237.53L129.03 280.53L91.79 302.03L54.55 280.53L54.55 237.53zM91.79 474.03L129.03 495.53L129.03 538.53L91.79 560.03L54.55 538.53L54.55 495.53zM91.79 732.03L129.03 753.53L129.03 796.53L91.79 818.03L54.55 796.53L54.55 753.53zM129.03 1054.53L166.27 1076.03L166.27 1119.03L129.03 1140.53L91.79 1119.03L91.79 1076.03zM129.03 1570.53L166.27 1592.03L166.27 1635.03L129.03 1656.53L91.79 1635.03L91.79 1592.03zM91.79 1764.03L129.03 1785.53L129.03 1828.53L91.79 1850.03L54.55 1828.53L54.55 1785.53zM129.03 2086.53L166.27 2108.03L166.27 2151.03L129.03 2172.53L91.79 2151.03L91.79 2108.03zM203.51 1183.53L240.75 1205.03L240.75 1248.03L203.51 1269.53L166.27 1248.03L166.27 1205.03zM203.51 1312.53L240.75 1334.03L240.75 1377.03L203.51 1398.53L166.27 1377.03L166.27 1334.03zM203.51 1441.53L240.75 1463.03L240.75 1506.03L203.51 1527.53L166.27 1506.03L166.27 1463.03zM203.51 1570.53L240.75 1592.03L240.75 1635.03L203.51 1656.53L166.27 1635.03L166.27 1592.03zM240.75 732.03L277.99 753.53L277.99 796.53L240.75 818.03L203.51 796.53L203.51 753.53zM240.75 1119.03L277.99 1140.53L277.99 1183.53L240.75 1205.03L203.51 1183.53L203.51 1140.53zM240.75 1506.03L277.99 1527.53L277.99 1570.53L240.75 1592.03L203.51 1570.53L203.51 1527.53zM277.99 1699.53L315.23 1721.03L315.23 1764.03L277.99 1785.53L240.75 1764.03L240.75 1721.03zM240.75 1764.03L277.99 1785.53L277.99 1828.53L240.75 1850.03L203.51 1828.53L203.51 1785.53zM277.99 1828.53L315.23 1850.03L315.23 1893.03L277.99 1914.53L240.75 1893.03L240.75 1850.03zM240.75 1893.03L277.99 1914.53L277.99 1957.53L240.75 1979.03L203.51 1957.53L203.51 1914.53zM315.23 87.03L352.47 108.53L352.47 151.53L315.23 173.03L277.99 151.53L277.99 108.53zM315.23 216.03L352.47 237.53L352.47 280.53L315.23 302.03L277.99 280.53L277.99 237.53zM352.47 538.53L389.71 560.03L389.71 603.03L352.47 624.53L315.23 603.03L315.23 560.03zM352.47 667.53L389.71 689.03L389.71 732.03L352.47 753.53L315.23 732.03L315.23 689.03zM315.23 1119.03L352.47 1140.53L352.47 1183.53L315.23 1205.03L277.99 1183.53L277.99 1140.53zM352.47 1183.53L389.71 1205.03L389.71 1248.03L352.47 1269.53L315.23 1248.03L315.23 1205.03zM389.71 -41.97L426.95 -20.47L426.95 22.53L389.71 44.03L352.47 22.53L352.47 -20.47zM426.95 280.53L464.19 302.03L464.19 345.03L426.95 366.53L389.71 345.03L389.71 302.03zM389.71 990.03L426.95 1011.53L426.95 1054.53L389.71 1076.03L352.47 1054.53L352.47 1011.53zM389.71 1248.03L426.95 1269.53L426.95 1312.53L389.71 1334.03L352.47 1312.53L352.47 1269.53zM426.95 1699.53L464.19 1721.03L464.19 1764.03L426.95 1785.53L389.71 1764.03L389.71 1721.03zM426.95 1828.53L464.19 1850.03L464.19 1893.03L426.95 1914.53L389.71 1893.03L389.71 1850.03zM464.19 -41.97L501.43 -20.47L501.43 22.53L464.19 44.03L426.95 22.53L426.95 -20.47zM501.43 22.53L538.67 44.03L538.67 87.03L501.43 108.53L464.19 87.03L464.19 44.03zM464.19 87.03L501.43 108.53L501.43 151.53L464.19 173.03L426.95 151.53L426.95 108.53zM464.19 216.03L501.43 237.53L501.43 280.53L464.19 302.03L426.95 280.53L426.95 237.53zM501.43 280.53L538.67 302.03L538.67 345.03L501.43 366.53L464.19 345.03L464.19 302.03zM464.19 474.03L501.43 495.53L501.43 538.53L464.19 560.03L426.95 538.53L426.95 495.53zM501.43 667.53L538.67 689.03L538.67 732.03L501.43 753.53L464.19 732.03L464.19 689.03zM464.19 1119.03L501.43 1140.53L501.43 1183.53L464.19 1205.03L426.95 1183.53L426.95 1140.53zM501.43 1183.53L538.67 1205.03L538.67 1248.03L501.43 1269.53L464.19 1248.03L464.19 1205.03zM464.19 1764.03L501.43 1785.53L501.43 1828.53L464.19 1850.03L426.95 1828.53L426.95 1785.53zM538.67 1893.03L575.91 1914.53L575.91 1957.53L538.67 1979.03L501.43 1957.53L501.43 1914.53zM613.15 216.03L650.39 237.53L650.39 280.53L613.15 302.03L575.91 280.53L575.91 237.53zM650.39 667.53L687.63 689.03L687.63 732.03L650.39 753.53L613.15 732.03L613.15 689.03zM650.39 796.53L687.63 818.03L687.63 861.03L650.39 882.53L613.15 861.03L613.15 818.03zM650.39 1054.53L687.63 1076.03L687.63 1119.03L650.39 1140.53L613.15 1119.03L613.15 1076.03zM613.15 1119.03L650.39 1140.53L650.39 1183.53L613.15 1205.03L575.91 1183.53L575.91 1140.53zM687.63 345.03L724.87 366.53L724.87 409.53L687.63 431.03L650.39 409.53L650.39 366.53zM724.87 409.53L762.11 431.03L762.11 474.03L724.87 495.53L687.63 474.03L687.63 431.03zM687.63 474.03L724.87 495.53L724.87 538.53L687.63 560.03L650.39 538.53L650.39 495.53zM724.87 796.53L762.11 818.03L762.11 861.03L724.87 882.53L687.63 861.03L687.63 818.03zM687.63 1635.03L724.87 1656.53L724.87 1699.53L687.63 1721.03L650.39 1699.53L650.39 1656.53zM724.87 1699.53L762.11 1721.03L762.11 1764.03L724.87 1785.53L687.63 1764.03L687.63 1721.03zM687.63 1764.03L724.87 1785.53L724.87 1828.53L687.63 1850.03L650.39 1828.53L650.39 1785.53zM724.87 2086.53L762.11 2108.03L762.11 2151.03L724.87 2172.53L687.63 2151.03L687.63 2108.03zM762.11 -41.97L799.35 -20.47L799.35 22.53L762.11 44.03L724.87 22.53L724.87 -20.47zM762.11 345.03L799.35 366.53L799.35 409.53L762.11 431.03L724.87 409.53L724.87 366.53zM799.35 1957.53L836.59 1979.03L836.59 2022.03L799.35 2043.53L762.11 2022.03L762.11 1979.03zM836.59 -41.97L873.83 -20.47L873.83 22.53L836.59 44.03L799.35 22.53L799.35 -20.47zM873.83 22.53L911.07 44.03L911.07 87.03L873.83 108.53L836.59 87.03L836.59 44.03zM836.59 87.03L873.83 108.53L873.83 151.53L836.59 173.03L799.35 151.53L799.35 108.53zM836.59 345.03L873.83 366.53L873.83 409.53L836.59 431.03L799.35 409.53L799.35 366.53zM836.59 1119.03L873.83 1140.53L873.83 1183.53L836.59 1205.03L799.35 1183.53L799.35 1140.53zM873.83 1312.53L911.07 1334.03L911.07 1377.03L873.83 1398.53L836.59 1377.03L836.59 1334.03zM836.59 1377.03L873.83 1398.53L873.83 1441.53L836.59 1463.03L799.35 1441.53L799.35 1398.53zM873.83 1441.53L911.07 1463.03L911.07 1506.03L873.83 1527.53L836.59 1506.03L836.59 1463.03zM948.31 1441.53L985.55 1463.03L985.55 1506.03L948.31 1527.53L911.07 1506.03L911.07 1463.03zM911.07 1635.03L948.31 1656.53L948.31 1699.53L911.07 1721.03L873.83 1699.53L873.83 1656.53zM985.55 732.03L1022.79 753.53L1022.79 796.53L985.55 818.03L948.31 796.53L948.31 753.53zM985.55 861.03L1022.79 882.53L1022.79 925.53L985.55 947.03L948.31 925.53L948.31 882.53zM1022.79 1054.53L1060.03 1076.03L1060.03 1119.03L1022.79 1140.53L985.55 1119.03L985.55 1076.03zM985.55 1248.03L1022.79 1269.53L1022.79 1312.53L985.55 1334.03L948.31 1312.53L948.31 1269.53zM1022.79 1312.53L1060.03 1334.03L1060.03 1377.03L1022.79 1398.53L985.55 1377.03L985.55 1334.03zM1060.03 474.03L1097.27 495.53L1097.27 538.53L1060.03 560.03L1022.79 538.53L1022.79 495.53zM1097.27 1054.53L1134.51 1076.03L1134.51 1119.03L1097.27 1140.53L1060.03 1119.03L1060.03 1076.03zM1060.03 1377.03L1097.27 1398.53L1097.27 1441.53L1060.03 1463.03L1022.79 1441.53L1022.79 1398.53zM1097.27 1570.53L1134.51 1592.03L1134.51 1635.03L1097.27 1656.53L1060.03 1635.03L1060.03 1592.03zM1134.51 87.03L1171.75 108.53L1171.75 151.53L1134.51 173.03L1097.27 151.53L1097.27 108.53zM1171.75 280.53L1208.99 302.03L1208.99 345.03L1171.75 366.53L1134.51 345.03L1134.51 302.03zM1246.23 22.53L1283.48 44.03L1283.48 87.03L1246.23 108.53L1208.99 87.03L1208.99 44.03zM1246.23 151.53L1283.48 173.03L1283.48 216.03L1246.23 237.53L1208.99 216.03L1208.99 173.03zM1208.99 216.03L1246.23 237.53L1246.23 280.53L1208.99 302.03L1171.75 280.53L1171.75 237.53zM1208.99 345.03L1246.23 366.53L1246.23 409.53L1208.99 431.03L1171.75 409.53L1171.75 366.53zM1208.99 990.03L1246.23 1011.53L1246.23 1054.53L1208.99 1076.03L1171.75 1054.53L1171.75 1011.53zM1208.99 1119.03L1246.23 1140.53L1246.23 1183.53L1208.99 1205.03L1171.75 1183.53L1171.75 1140.53zM1246.23 1699.53L1283.48 1721.03L1283.48 1764.03L1246.23 1785.53L1208.99 1764.03L1208.99 1721.03zM1246.23 1828.53L1283.48 1850.03L1283.48 1893.03L1246.23 1914.53L1208.99 1893.03L1208.99 1850.03zM1246.23 1957.53L1283.48 1979.03L1283.48 2022.03L1246.23 2043.53L1208.99 2022.03L1208.99 1979.03zM1283.48 216.03L1320.72 237.53L1320.72 280.53L1283.48 302.03L1246.23 280.53L1246.23 237.53zM1283.48 474.03L1320.72 495.53L1320.72 538.53L1283.48 560.03L1246.23 538.53L1246.23 495.53zM1283.48 603.03L1320.72 624.53L1320.72 667.53L1283.48 689.03L1246.23 667.53L1246.23 624.53zM1320.72 1312.53L1357.96 1334.03L1357.96 1377.03L1320.72 1398.53L1283.48 1377.03L1283.48 1334.03zM1283.48 1377.03L1320.72 1398.53L1320.72 1441.53L1283.48 1463.03L1246.23 1441.53L1246.23 1398.53zM1320.72 1828.53L1357.96 1850.03L1357.96 1893.03L1320.72 1914.53L1283.48 1893.03L1283.48 1850.03zM1320.72 1957.53L1357.96 1979.03L1357.96 2022.03L1320.72 2043.53L1283.48 2022.03L1283.48 1979.03zM1283.48 2022.03L1320.72 2043.53L1320.72 2086.53L1283.48 2108.03L1246.23 2086.53L1246.23 2043.53zM1395.2 280.53L1432.44 302.03L1432.44 345.03L1395.2 366.53L1357.96 345.03L1357.96 302.03zM1357.96 474.03L1395.2 495.53L1395.2 538.53L1357.96 560.03L1320.72 538.53L1320.72 495.53zM1395.2 538.53L1432.44 560.03L1432.44 603.03L1395.2 624.53L1357.96 603.03L1357.96 560.03zM1357.96 603.03L1395.2 624.53L1395.2 667.53L1357.96 689.03L1320.72 667.53L1320.72 624.53zM1357.96 861.03L1395.2 882.53L1395.2 925.53L1357.96 947.03L1320.72 925.53L1320.72 882.53zM1357.96 1248.03L1395.2 1269.53L1395.2 1312.53L1357.96 1334.03L1320.72 1312.53L1320.72 1269.53zM1395.2 1441.53L1432.44 1463.03L1432.44 1506.03L1395.2 1527.53L1357.96 1506.03L1357.96 1463.03zM1357.96 1764.03L1395.2 1785.53L1395.2 1828.53L1357.96 1850.03L1320.72 1828.53L1320.72 1785.53zM1432.44 87.03L1469.68 108.53L1469.68 151.53L1432.44 173.03L1395.2 151.53L1395.2 108.53zM1432.44 1119.03L1469.68 1140.53L1469.68 1183.53L1432.44 1205.03L1395.2 1183.53L1395.2 1140.53zM1432.44 1248.03L1469.68 1269.53L1469.68 1312.53L1432.44 1334.03L1395.2 1312.53L1395.2 1269.53zM1432.44 1506.03L1469.68 1527.53L1469.68 1570.53L1432.44 1592.03L1395.2 1570.53L1395.2 1527.53zM1506.92 1377.03L1544.16 1398.53L1544.16 1441.53L1506.92 1463.03L1469.68 1441.53L1469.68 1398.53zM1506.92 1635.03L1544.16 1656.53L1544.16 1699.53L1506.92 1721.03L1469.68 1699.53L1469.68 1656.53zM1618.64 925.53L1655.88 947.03L1655.88 990.03L1618.64 1011.53L1581.4 990.03L1581.4 947.03zM1618.64 1054.53L1655.88 1076.03L1655.88 1119.03L1618.64 1140.53L1581.4 1119.03L1581.4 1076.03zM1618.64 1312.53L1655.88 1334.03L1655.88 1377.03L1618.64 1398.53L1581.4 1377.03L1581.4 1334.03zM1618.64 1570.53L1655.88 1592.03L1655.88 1635.03L1618.64 1656.53L1581.4 1635.03L1581.4 1592.03zM1618.64 1699.53L1655.88 1721.03L1655.88 1764.03L1618.64 1785.53L1581.4 1764.03L1581.4 1721.03zM1581.4 2022.03L1618.64 2043.53L1618.64 2086.53L1581.4 2108.03L1544.16 2086.53L1544.16 2043.53zM1618.64 2086.53L1655.88 2108.03L1655.88 2151.03L1618.64 2172.53L1581.4 2151.03L1581.4 2108.03zM1693.12 151.53L1730.36 173.03L1730.36 216.03L1693.12 237.53L1655.88 216.03L1655.88 173.03zM1655.88 345.03L1693.12 366.53L1693.12 409.53L1655.88 431.03L1618.64 409.53L1618.64 366.53zM1693.12 1183.53L1730.36 1205.03L1730.36 1248.03L1693.12 1269.53L1655.88 1248.03L1655.88 1205.03zM1655.88 1248.03L1693.12 1269.53L1693.12 1312.53L1655.88 1334.03L1618.64 1312.53L1618.64 1269.53zM1655.88 1377.03L1693.12 1398.53L1693.12 1441.53L1655.88 1463.03L1618.64 1441.53L1618.64 1398.53zM1693.12 1441.53L1730.36 1463.03L1730.36 1506.03L1693.12 1527.53L1655.88 1506.03L1655.88 1463.03zM1693.12 1957.53L1730.36 1979.03L1730.36 2022.03L1693.12 2043.53L1655.88 2022.03L1655.88 1979.03zM1767.6 409.53L1804.84 431.03L1804.84 474.03L1767.6 495.53L1730.36 474.03L1730.36 431.03zM1767.6 538.53L1804.84 560.03L1804.84 603.03L1767.6 624.53L1730.36 603.03L1730.36 560.03zM1730.36 732.03L1767.6 753.53L1767.6 796.53L1730.36 818.03L1693.12 796.53L1693.12 753.53zM1730.36 990.03L1767.6 1011.53L1767.6 1054.53L1730.36 1076.03L1693.12 1054.53L1693.12 1011.53zM1767.6 1183.53L1804.84 1205.03L1804.84 1248.03L1767.6 1269.53L1730.36 1248.03L1730.36 1205.03zM1730.36 1764.03L1767.6 1785.53L1767.6 1828.53L1730.36 1850.03L1693.12 1828.53L1693.12 1785.53zM1767.6 1828.53L1804.84 1850.03L1804.84 1893.03L1767.6 1914.53L1730.36 1893.03L1730.36 1850.03zM1730.36 1893.03L1767.6 1914.53L1767.6 1957.53L1730.36 1979.03L1693.12 1957.53L1693.12 1914.53zM1730.36 2022.03L1767.6 2043.53L1767.6 2086.53L1730.36 2108.03L1693.12 2086.53L1693.12 2043.53zM1842.08 667.53L1879.32 689.03L1879.32 732.03L1842.08 753.53L1804.84 732.03L1804.84 689.03zM1842.08 796.53L1879.32 818.03L1879.32 861.03L1842.08 882.53L1804.84 861.03L1804.84 818.03zM1842.08 1570.53L1879.32 1592.03L1879.32 1635.03L1842.08 1656.53L1804.84 1635.03L1804.84 1592.03zM1804.84 1635.03L1842.08 1656.53L1842.08 1699.53L1804.84 1721.03L1767.6 1699.53L1767.6 1656.53zM1842.08 1828.53L1879.32 1850.03L1879.32 1893.03L1842.08 1914.53L1804.84 1893.03L1804.84 1850.03zM1916.56 22.53L1953.8 44.03L1953.8 87.03L1916.56 108.53L1879.32 87.03L1879.32 44.03zM1879.32 87.03L1916.56 108.53L1916.56 151.53L1879.32 173.03L1842.08 151.53L1842.08 108.53zM1916.56 151.53L1953.8 173.03L1953.8 216.03L1916.56 237.53L1879.32 216.03L1879.32 173.03zM1916.56 280.53L1953.8 302.03L1953.8 345.03L1916.56 366.53L1879.32 345.03L1879.32 302.03zM1879.32 990.03L1916.56 1011.53L1916.56 1054.53L1879.32 1076.03L1842.08 1054.53L1842.08 1011.53zM1879.32 1119.03L1916.56 1140.53L1916.56 1183.53L1879.32 1205.03L1842.08 1183.53L1842.08 1140.53zM1916.56 1183.53L1953.8 1205.03L1953.8 1248.03L1916.56 1269.53L1879.32 1248.03L1879.32 1205.03zM1879.32 1248.03L1916.56 1269.53L1916.56 1312.53L1879.32 1334.03L1842.08 1312.53L1842.08 1269.53zM1879.32 1506.03L1916.56 1527.53L1916.56 1570.53L1879.32 1592.03L1842.08 1570.53L1842.08 1527.53zM1879.32 2022.03L1916.56 2043.53L1916.56 2086.53L1879.32 2108.03L1842.08 2086.53L1842.08 2043.53zM1953.8 216.03L1991.04 237.53L1991.04 280.53L1953.8 302.03L1916.56 280.53L1916.56 237.53zM1991.04 796.53L2028.28 818.03L2028.28 861.03L1991.04 882.53L1953.8 861.03L1953.8 818.03zM1991.04 1699.53L2028.28 1721.03L2028.28 1764.03L1991.04 1785.53L1953.8 1764.03L1953.8 1721.03zM1991.04 1828.53L2028.28 1850.03L2028.28 1893.03L1991.04 1914.53L1953.8 1893.03L1953.8 1850.03zM1991.04 2086.53L2028.28 2108.03L2028.28 2151.03L1991.04 2172.53L1953.8 2151.03L1953.8 2108.03zM2028.28 -41.97L2065.52 -20.47L2065.52 22.53L2028.28 44.03L1991.04 22.53L1991.04 -20.47zM2065.52 151.53L2102.76 173.03L2102.76 216.03L2065.52 237.53L2028.28 216.03L2028.28 173.03zM2065.52 796.53L2102.76 818.03L2102.76 861.03L2065.52 882.53L2028.28 861.03L2028.28 818.03zM2065.52 925.53L2102.76 947.03L2102.76 990.03L2065.52 1011.53L2028.28 990.03L2028.28 947.03zM2065.52 2086.53L2102.76 2108.03L2102.76 2151.03L2065.52 2172.53L2028.28 2151.03L2028.28 2108.03zM2102.76 -41.97L2140 -20.47L2140 22.53L2102.76 44.03L2065.52 22.53L2065.52 -20.47zM2102.76 87.03L2140 108.53L2140 151.53L2102.76 173.03L2065.52 151.53L2065.52 108.53zM2140 796.53L2177.24 818.03L2177.24 861.03L2140 882.53L2102.76 861.03L2102.76 818.03zM2102.76 1119.03L2140 1140.53L2140 1183.53L2102.76 1205.03L2065.52 1183.53L2065.52 1140.53zM2140 1312.53L2177.24 1334.03L2177.24 1377.03L2140 1398.53L2102.76 1377.03L2102.76 1334.03zM2102.76 1506.03L2140 1527.53L2140 1570.53L2102.76 1592.03L2065.52 1570.53L2065.52 1527.53zM2140 2086.53L2177.24 2108.03L2177.24 2151.03L2140 2172.53L2102.76 2151.03L2102.76 2108.03z" stroke="rgba(0, 1, 18, 1)" stroke-width="2"></path><path d="M62.72 37.94L95.63 56.94L95.63 94.94L62.72 113.94L29.81 94.94L29.81 56.94zM29.81 550.94L62.72 569.94L62.72 607.94L29.81 626.94L-3.1 607.94L-3.1 569.94zM62.72 721.94L95.63 740.94L95.63 778.94L62.72 797.94L29.81 778.94L29.81 740.94zM62.72 835.94L95.63 854.94L95.63 892.94L62.72 911.94L29.81 892.94L29.81 854.94zM62.72 949.94L95.63 968.94L95.63 1006.94L62.72 1025.94L29.81 1006.94L29.81 968.94zM62.72 1291.94L95.63 1310.94L95.63 1348.94L62.72 1367.94L29.81 1348.94L29.81 1310.94zM29.81 1576.94L62.72 1595.94L62.72 1633.94L29.81 1652.94L-3.1 1633.94L-3.1 1595.94zM95.63 94.94L128.54 113.94L128.54 151.94L95.63 170.94L62.72 151.94L62.72 113.94zM128.54 1291.94L161.45 1310.94L161.45 1348.94L128.54 1367.94L95.63 1348.94L95.63 1310.94zM128.54 1405.94L161.45 1424.94L161.45 1462.94L128.54 1481.94L95.63 1462.94L95.63 1424.94zM95.63 1804.94L128.54 1823.94L128.54 1861.94L95.63 1880.94L62.72 1861.94L62.72 1823.94zM95.63 1918.94L128.54 1937.94L128.54 1975.94L95.63 1994.94L62.72 1975.94L62.72 1937.94zM161.45 892.94L194.36 911.94L194.36 949.94L161.45 968.94L128.54 949.94L128.54 911.94zM227.27 -19.06L260.18 -0.06L260.18 37.94L227.27 56.94L194.36 37.94L194.36 -0.06zM227.27 1804.94L260.18 1823.94L260.18 1861.94L227.27 1880.94L194.36 1861.94L194.36 1823.94zM260.18 1861.94L293.09 1880.94L293.09 1918.94L260.18 1937.94L227.27 1918.94L227.27 1880.94zM293.09 -19.06L326 -0.06L326 37.94L293.09 56.94L260.18 37.94L260.18 -0.06zM326 721.94L358.91 740.94L358.91 778.94L326 797.94L293.09 778.94L293.09 740.94zM358.91 322.94L391.82 341.94L391.82 379.94L358.91 398.94L326 379.94L326 341.94zM358.91 892.94L391.82 911.94L391.82 949.94L358.91 968.94L326 949.94L326 911.94zM358.91 2032.94L391.82 2051.94L391.82 2089.94L358.91 2108.94L326 2089.94L326 2051.94zM424.73 94.94L457.64 113.94L457.64 151.94L424.73 170.94L391.82 151.94L391.82 113.94zM424.73 1462.94L457.64 1481.94L457.64 1519.94L424.73 1538.94L391.82 1519.94L391.82 1481.94zM424.73 1804.94L457.64 1823.94L457.64 1861.94L424.73 1880.94L391.82 1861.94L391.82 1823.94zM424.73 1918.94L457.64 1937.94L457.64 1975.94L424.73 1994.94L391.82 1975.94L391.82 1937.94zM523.46 493.94L556.37 512.94L556.37 550.94L523.46 569.94L490.55 550.94L490.55 512.94zM490.55 664.94L523.46 683.94L523.46 721.94L490.55 740.94L457.64 721.94L457.64 683.94zM523.46 2089.94L556.37 2108.94L556.37 2146.94L523.46 2165.94L490.55 2146.94L490.55 2108.94zM556.37 94.94L589.28 113.94L589.28 151.94L556.37 170.94L523.46 151.94L523.46 113.94zM589.28 493.94L622.19 512.94L622.19 550.94L589.28 569.94L556.37 550.94L556.37 512.94zM556.37 1462.94L589.28 1481.94L589.28 1519.94L556.37 1538.94L523.46 1519.94L523.46 1481.94zM556.37 1804.94L589.28 1823.94L589.28 1861.94L556.37 1880.94L523.46 1861.94L523.46 1823.94zM655.1 265.94L688.01 284.94L688.01 322.94L655.1 341.94L622.19 322.94L622.19 284.94zM622.19 322.94L655.1 341.94L655.1 379.94L622.19 398.94L589.28 379.94L589.28 341.94zM655.1 379.94L688.01 398.94L688.01 436.94L655.1 455.94L622.19 436.94L622.19 398.94zM622.19 1120.94L655.1 1139.94L655.1 1177.94L622.19 1196.94L589.28 1177.94L589.28 1139.94zM655.1 1861.94L688.01 1880.94L688.01 1918.94L655.1 1937.94L622.19 1918.94L622.19 1880.94zM688.01 -19.06L720.92 -0.06L720.92 37.94L688.01 56.94L655.1 37.94L655.1 -0.06zM688.01 664.94L720.92 683.94L720.92 721.94L688.01 740.94L655.1 721.94L655.1 683.94zM720.92 721.94L753.83 740.94L753.83 778.94L720.92 797.94L688.01 778.94L688.01 740.94zM688.01 1690.94L720.92 1709.94L720.92 1747.94L688.01 1766.94L655.1 1747.94L655.1 1709.94zM688.01 1804.94L720.92 1823.94L720.92 1861.94L688.01 1880.94L655.1 1861.94L655.1 1823.94zM688.01 1918.94L720.92 1937.94L720.92 1975.94L688.01 1994.94L655.1 1975.94L655.1 1937.94zM688.01 2032.94L720.92 2051.94L720.92 2089.94L688.01 2108.94L655.1 2089.94L655.1 2051.94zM720.92 2089.94L753.83 2108.94L753.83 2146.94L720.92 2165.94L688.01 2146.94L688.01 2108.94zM753.83 1690.94L786.74 1709.94L786.74 1747.94L753.83 1766.94L720.92 1747.94L720.92 1709.94zM852.56 151.94L885.47 170.94L885.47 208.94L852.56 227.94L819.65 208.94L819.65 170.94zM819.65 208.94L852.56 227.94L852.56 265.94L819.65 284.94L786.74 265.94L786.74 227.94zM852.56 1861.94L885.47 1880.94L885.47 1918.94L852.56 1937.94L819.65 1918.94L819.65 1880.94zM852.56 1975.94L885.47 1994.94L885.47 2032.94L852.56 2051.94L819.65 2032.94L819.65 1994.94zM819.65 2032.94L852.56 2051.94L852.56 2089.94L819.65 2108.94L786.74 2089.94L786.74 2051.94zM819.65 2146.94L852.56 2165.94L852.56 2203.94L819.65 2222.94L786.74 2203.94L786.74 2165.94zM885.47 94.94L918.38 113.94L918.38 151.94L885.47 170.94L852.56 151.94L852.56 113.94zM885.47 436.94L918.38 455.94L918.38 493.94L885.47 512.94L852.56 493.94L852.56 455.94zM918.38 721.94L951.29 740.94L951.29 778.94L918.38 797.94L885.47 778.94L885.47 740.94zM885.47 778.94L918.38 797.94L918.38 835.94L885.47 854.94L852.56 835.94L852.56 797.94zM918.38 1975.94L951.29 1994.94L951.29 2032.94L918.38 2051.94L885.47 2032.94L885.47 1994.94zM918.38 2089.94L951.29 2108.94L951.29 2146.94L918.38 2165.94L885.47 2146.94L885.47 2108.94zM885.47 2146.94L918.38 2165.94L918.38 2203.94L885.47 2222.94L852.56 2203.94L852.56 2165.94zM984.2 151.94L1017.11 170.94L1017.11 208.94L984.2 227.94L951.29 208.94L951.29 170.94zM984.2 1519.94L1017.11 1538.94L1017.11 1576.94L984.2 1595.94L951.29 1576.94L951.29 1538.94zM951.29 1690.94L984.2 1709.94L984.2 1747.94L951.29 1766.94L918.38 1747.94L918.38 1709.94zM1017.11 436.94L1050.02 455.94L1050.02 493.94L1017.11 512.94L984.2 493.94L984.2 455.94zM1050.02 721.94L1082.93 740.94L1082.93 778.94L1050.02 797.94L1017.11 778.94L1017.11 740.94zM1017.11 778.94L1050.02 797.94L1050.02 835.94L1017.11 854.94L984.2 835.94L984.2 797.94zM1050.02 1519.94L1082.93 1538.94L1082.93 1576.94L1050.02 1595.94L1017.11 1576.94L1017.11 1538.94zM1050.02 1633.94L1082.93 1652.94L1082.93 1690.94L1050.02 1709.94L1017.11 1690.94L1017.11 1652.94zM1017.11 1690.94L1050.02 1709.94L1050.02 1747.94L1017.11 1766.94L984.2 1747.94L984.2 1709.94zM1017.11 1918.94L1050.02 1937.94L1050.02 1975.94L1017.11 1994.94L984.2 1975.94L984.2 1937.94zM1050.02 2089.94L1082.93 2108.94L1082.93 2146.94L1050.02 2165.94L1017.11 2146.94L1017.11 2108.94zM1082.93 892.94L1115.84 911.94L1115.84 949.94L1082.93 968.94L1050.02 949.94L1050.02 911.94zM1082.93 1006.94L1115.84 1025.94L1115.84 1063.94L1082.93 1082.94L1050.02 1063.94L1050.02 1025.94zM1115.84 1519.94L1148.75 1538.94L1148.75 1576.94L1115.84 1595.94L1082.93 1576.94L1082.93 1538.94zM1148.75 94.94L1181.66 113.94L1181.66 151.94L1148.75 170.94L1115.84 151.94L1115.84 113.94zM1148.75 778.94L1181.66 797.94L1181.66 835.94L1148.75 854.94L1115.84 835.94L1115.84 797.94zM1148.75 1120.94L1181.66 1139.94L1181.66 1177.94L1148.75 1196.94L1115.84 1177.94L1115.84 1139.94zM1148.75 1804.94L1181.66 1823.94L1181.66 1861.94L1148.75 1880.94L1115.84 1861.94L1115.84 1823.94zM1214.57 -19.06L1247.48 -0.06L1247.48 37.94L1214.57 56.94L1181.66 37.94L1181.66 -0.06zM1247.48 1405.94L1280.39 1424.94L1280.39 1462.94L1247.48 1481.94L1214.57 1462.94L1214.57 1424.94zM1214.57 1918.94L1247.48 1937.94L1247.48 1975.94L1214.57 1994.94L1181.66 1975.94L1181.66 1937.94zM1214.57 2146.94L1247.48 2165.94L1247.48 2203.94L1214.57 2222.94L1181.66 2203.94L1181.66 2165.94zM1313.3 607.94L1346.21 626.94L1346.21 664.94L1313.3 683.94L1280.39 664.94L1280.39 626.94zM1280.39 1006.94L1313.3 1025.94L1313.3 1063.94L1280.39 1082.94L1247.48 1063.94L1247.48 1025.94zM1280.39 1804.94L1313.3 1823.94L1313.3 1861.94L1280.39 1880.94L1247.48 1861.94L1247.48 1823.94zM1346.21 94.94L1379.12 113.94L1379.12 151.94L1346.21 170.94L1313.3 151.94L1313.3 113.94zM1379.12 151.94L1412.03 170.94L1412.03 208.94L1379.12 227.94L1346.21 208.94L1346.21 170.94zM1346.21 1006.94L1379.12 1025.94L1379.12 1063.94L1346.21 1082.94L1313.3 1063.94L1313.3 1025.94zM1346.21 1120.94L1379.12 1139.94L1379.12 1177.94L1346.21 1196.94L1313.3 1177.94L1313.3 1139.94zM1346.21 1804.94L1379.12 1823.94L1379.12 1861.94L1346.21 1880.94L1313.3 1861.94L1313.3 1823.94zM1379.12 1861.94L1412.03 1880.94L1412.03 1918.94L1379.12 1937.94L1346.21 1918.94L1346.21 1880.94zM1444.94 607.94L1477.85 626.94L1477.85 664.94L1444.94 683.94L1412.03 664.94L1412.03 626.94zM1444.94 835.94L1477.85 854.94L1477.85 892.94L1444.94 911.94L1412.03 892.94L1412.03 854.94zM1412.03 1348.94L1444.94 1367.94L1444.94 1405.94L1412.03 1424.94L1379.12 1405.94L1379.12 1367.94zM1444.94 1405.94L1477.85 1424.94L1477.85 1462.94L1444.94 1481.94L1412.03 1462.94L1412.03 1424.94zM1477.85 -19.06L1510.76 -0.06L1510.76 37.94L1477.85 56.94L1444.94 37.94L1444.94 -0.06zM1510.76 37.94L1543.67 56.94L1543.67 94.94L1510.76 113.94L1477.85 94.94L1477.85 56.94zM1510.76 265.94L1543.67 284.94L1543.67 322.94L1510.76 341.94L1477.85 322.94L1477.85 284.94zM1510.76 949.94L1543.67 968.94L1543.67 1006.94L1510.76 1025.94L1477.85 1006.94L1477.85 968.94zM1477.85 1348.94L1510.76 1367.94L1510.76 1405.94L1477.85 1424.94L1444.94 1405.94L1444.94 1367.94zM1477.85 1804.94L1510.76 1823.94L1510.76 1861.94L1477.85 1880.94L1444.94 1861.94L1444.94 1823.94zM1576.58 949.94L1609.49 968.94L1609.49 1006.94L1576.58 1025.94L1543.67 1006.94L1543.67 968.94zM1576.58 1405.94L1609.49 1424.94L1609.49 1462.94L1576.58 1481.94L1543.67 1462.94L1543.67 1424.94zM1576.58 1633.94L1609.49 1652.94L1609.49 1690.94L1576.58 1709.94L1543.67 1690.94L1543.67 1652.94zM1543.67 1804.94L1576.58 1823.94L1576.58 1861.94L1543.67 1880.94L1510.76 1861.94L1510.76 1823.94zM1576.58 1975.94L1609.49 1994.94L1609.49 2032.94L1576.58 2051.94L1543.67 2032.94L1543.67 1994.94zM1576.58 2089.94L1609.49 2108.94L1609.49 2146.94L1576.58 2165.94L1543.67 2146.94L1543.67 2108.94zM1642.4 151.94L1675.31 170.94L1675.31 208.94L1642.4 227.94L1609.49 208.94L1609.49 170.94zM1642.4 379.94L1675.31 398.94L1675.31 436.94L1642.4 455.94L1609.49 436.94L1609.49 398.94zM1642.4 721.94L1675.31 740.94L1675.31 778.94L1642.4 797.94L1609.49 778.94L1609.49 740.94zM1609.49 778.94L1642.4 797.94L1642.4 835.94L1609.49 854.94L1576.58 835.94L1576.58 797.94zM1609.49 1120.94L1642.4 1139.94L1642.4 1177.94L1609.49 1196.94L1576.58 1177.94L1576.58 1139.94zM1642.4 1291.94L1675.31 1310.94L1675.31 1348.94L1642.4 1367.94L1609.49 1348.94L1609.49 1310.94zM1609.49 1804.94L1642.4 1823.94L1642.4 1861.94L1609.49 1880.94L1576.58 1861.94L1576.58 1823.94zM1675.31 94.94L1708.21 113.94L1708.21 151.94L1675.31 170.94L1642.4 151.94L1642.4 113.94zM1708.21 607.94L1741.12 626.94L1741.12 664.94L1708.21 683.94L1675.31 664.94L1675.31 626.94zM1708.21 835.94L1741.12 854.94L1741.12 892.94L1708.21 911.94L1675.31 892.94L1675.31 854.94zM1675.31 1462.94L1708.21 1481.94L1708.21 1519.94L1675.31 1538.94L1642.4 1519.94L1642.4 1481.94zM1708.21 1747.94L1741.12 1766.94L1741.12 1804.94L1708.21 1823.94L1675.31 1804.94L1675.31 1766.94zM1774.03 835.94L1806.94 854.94L1806.94 892.94L1774.03 911.94L1741.12 892.94L1741.12 854.94zM1741.12 892.94L1774.03 911.94L1774.03 949.94L1741.12 968.94L1708.21 949.94L1708.21 911.94zM1741.12 2146.94L1774.03 2165.94L1774.03 2203.94L1741.12 2222.94L1708.21 2203.94L1708.21 2165.94zM1806.94 -19.06L1839.85 -0.06L1839.85 37.94L1806.94 56.94L1774.03 37.94L1774.03 -0.06zM1839.85 1177.94L1872.76 1196.94L1872.76 1234.94L1839.85 1253.94L1806.94 1234.94L1806.94 1196.94zM1806.94 1462.94L1839.85 1481.94L1839.85 1519.94L1806.94 1538.94L1774.03 1519.94L1774.03 1481.94zM1839.85 1519.94L1872.76 1538.94L1872.76 1576.94L1839.85 1595.94L1806.94 1576.94L1806.94 1538.94zM1839.85 1633.94L1872.76 1652.94L1872.76 1690.94L1839.85 1709.94L1806.94 1690.94L1806.94 1652.94zM1905.67 721.94L1938.58 740.94L1938.58 778.94L1905.67 797.94L1872.76 778.94L1872.76 740.94zM1905.67 1291.94L1938.58 1310.94L1938.58 1348.94L1905.67 1367.94L1872.76 1348.94L1872.76 1310.94zM1905.67 1975.94L1938.58 1994.94L1938.58 2032.94L1905.67 2051.94L1872.76 2032.94L1872.76 1994.94zM1938.58 208.94L1971.49 227.94L1971.49 265.94L1938.58 284.94L1905.67 265.94L1905.67 227.94zM1971.49 835.94L2004.4 854.94L2004.4 892.94L1971.49 911.94L1938.58 892.94L1938.58 854.94zM1938.58 1120.94L1971.49 1139.94L1971.49 1177.94L1938.58 1196.94L1905.67 1177.94L1905.67 1139.94zM1938.58 1918.94L1971.49 1937.94L1971.49 1975.94L1938.58 1994.94L1905.67 1975.94L1905.67 1937.94zM2004.4 -19.06L2037.31 -0.06L2037.31 37.94L2004.4 56.94L1971.49 37.94L1971.49 -0.06zM2004.4 892.94L2037.31 911.94L2037.31 949.94L2004.4 968.94L1971.49 949.94L1971.49 911.94zM2004.4 1690.94L2037.31 1709.94L2037.31 1747.94L2004.4 1766.94L1971.49 1747.94L1971.49 1709.94zM2070.22 322.94L2103.13 341.94L2103.13 379.94L2070.22 398.94L2037.31 379.94L2037.31 341.94zM2070.22 1006.94L2103.13 1025.94L2103.13 1063.94L2070.22 1082.94L2037.31 1063.94L2037.31 1025.94zM2103.13 1519.94L2136.04 1538.94L2136.04 1576.94L2103.13 1595.94L2070.22 1576.94L2070.22 1538.94zM2168.95 493.94L2201.86 512.94L2201.86 550.94L2168.95 569.94L2136.04 550.94L2136.04 512.94zM2136.04 550.94L2168.95 569.94L2168.95 607.94L2136.04 626.94L2103.13 607.94L2103.13 569.94zM2168.95 949.94L2201.86 968.94L2201.86 1006.94L2168.95 1025.94L2136.04 1006.94L2136.04 968.94zM2168.95 1177.94L2201.86 1196.94L2201.86 1234.94L2168.95 1253.94L2136.04 1234.94L2136.04 1196.94zM2136.04 1804.94L2168.95 1823.94L2168.95 1861.94L2136.04 1880.94L2103.13 1861.94L2103.13 1823.94zM2168.95 1975.94L2201.86 1994.94L2201.86 2032.94L2168.95 2051.94L2136.04 2032.94L2136.04 1994.94zM2136.04 2146.94L2168.95 2165.94L2168.95 2203.94L2136.04 2222.94L2103.13 2203.94L2103.13 2165.94z" stroke="rgba(189, 115, 1, 0.73)" stroke-width="2"></path><path d="M58.92 37.94 a3.8 3.8 0 1 0 7.6 0 a3.8 3.8 0 1 0 -7.6 0zM91.83 56.94 a3.8 3.8 0 1 0 7.6 0 a3.8 3.8 0 1 0 -7.6 0zM91.83 94.94 a3.8 3.8 0 1 0 7.6 0 a3.8 3.8 0 1 0 -7.6 0zM58.92 113.94 a3.8 3.8 0 1 0 7.6 0 a3.8 3.8 0 1 0 -7.6 0zM26.01 94.94 a3.8 3.8 0 1 0 7.6 0 a3.8 3.8 0 1 0 -7.6 0zM26.01 56.94 a3.8 3.8 0 1 0 7.6 0 a3.8 3.8 0 1 0 -7.6 0zM26.01 550.94 a3.8 3.8 0 1 0 7.6 0 a3.8 3.8 0 1 0 -7.6 0zM58.92 569.94 a3.8 3.8 0 1 0 7.6 0 a3.8 3.8 0 1 0 -7.6 0zM58.92 607.94 a3.8 3.8 0 1 0 7.6 0 a3.8 3.8 0 1 0 -7.6 0zM26.01 626.94 a3.8 3.8 0 1 0 7.6 0 a3.8 3.8 0 1 0 -7.6 0zM-6.9 607.94 a3.8 3.8 0 1 0 7.6 0 a3.8 3.8 0 1 0 -7.6 0zM-6.9 569.94 a3.8 3.8 0 1 0 7.6 0 a3.8 3.8 0 1 0 -7.6 0zM58.92 721.94 a3.8 3.8 0 1 0 7.6 0 a3.8 3.8 0 1 0 -7.6 0zM91.83 740.94 a3.8 3.8 0 1 0 7.6 0 a3.8 3.8 0 1 0 -7.6 0zM91.83 778.94 a3.8 3.8 0 1 0 7.6 0 a3.8 3.8 0 1 0 -7.6 0zM58.92 797.94 a3.8 3.8 0 1 0 7.6 0 a3.8 3.8 0 1 0 -7.6 0zM26.01 778.94 a3.8 3.8 0 1 0 7.6 0 a3.8 3.8 0 1 0 -7.6 0zM26.01 740.94 a3.8 3.8 0 1 0 7.6 0 a3.8 3.8 0 1 0 -7.6 0zM58.92 835.94 a3.8 3.8 0 1 0 7.6 0 a3.8 3.8 0 1 0 -7.6 0zM91.83 854.94 a3.8 3.8 0 1 0 7.6 0 a3.8 3.8 0 1 0 -7.6 0zM91.83 892.94 a3.8 3.8 0 1 0 7.6 0 a3.8 3.8 0 1 0 -7.6 0zM58.92 911.94 a3.8 3.8 0 1 0 7.6 0 a3.8 3.8 0 1 0 -7.6 0zM26.01 892.94 a3.8 3.8 0 1 0 7.6 0 a3.8 3.8 0 1 0 -7.6 0zM26.01 854.94 a3.8 3.8 0 1 0 7.6 0 a3.8 3.8 0 1 0 -7.6 0zM58.92 949.94 a3.8 3.8 0 1 0 7.6 0 a3.8 3.8 0 1 0 -7.6 0zM91.83 968.94 a3.8 3.8 0 1 0 7.6 0 a3.8 3.8 0 1 0 -7.6 0zM91.83 1006.94 a3.8 3.8 0 1 0 7.6 0 a3.8 3.8 0 1 0 -7.6 0zM58.92 1025.94 a3.8 3.8 0 1 0 7.6 0 a3.8 3.8 0 1 0 -7.6 0zM26.01 1006.94 a3.8 3.8 0 1 0 7.6 0 a3.8 3.8 0 1 0 -7.6 0zM26.01 968.94 a3.8 3.8 0 1 0 7.6 0 a3.8 3.8 0 1 0 -7.6 0zM58.92 1291.94 a3.8 3.8 0 1 0 7.6 0 a3.8 3.8 0 1 0 -7.6 0zM91.83 1310.94 a3.8 3.8 0 1 0 7.6 0 a3.8 3.8 0 1 0 -7.6 0zM91.83 1348.94 a3.8 3.8 0 1 0 7.6 0 a3.8 3.8 0 1 0 -7.6 0zM58.92 1367.94 a3.8 3.8 0 1 0 7.6 0 a3.8 3.8 0 1 0 -7.6 0zM26.01 1348.94 a3.8 3.8 0 1 0 7.6 0 a3.8 3.8 0 1 0 -7.6 0zM26.01 1310.94 a3.8 3.8 0 1 0 7.6 0 a3.8 3.8 0 1 0 -7.6 0zM26.01 1576.94 a3.8 3.8 0 1 0 7.6 0 a3.8 3.8 0 1 0 -7.6 0zM58.92 1595.94 a3.8 3.8 0 1 0 7.6 0 a3.8 3.8 0 1 0 -7.6 0zM58.92 1633.94 a3.8 3.8 0 1 0 7.6 0 a3.8 3.8 0 1 0 -7.6 0zM26.01 1652.94 a3.8 3.8 0 1 0 7.6 0 a3.8 3.8 0 1 0 -7.6 0zM-6.9 1633.94 a3.8 3.8 0 1 0 7.6 0 a3.8 3.8 0 1 0 -7.6 0zM-6.9 1595.94 a3.8 3.8 0 1 0 7.6 0 a3.8 3.8 0 1 0 -7.6 0zM124.74 113.94 a3.8 3.8 0 1 0 7.6 0 a3.8 3.8 0 1 0 -7.6 0zM124.74 151.94 a3.8 3.8 0 1 0 7.6 0 a3.8 3.8 0 1 0 -7.6 0zM91.83 170.94 a3.8 3.8 0 1 0 7.6 0 a3.8 3.8 0 1 0 -7.6 0zM58.92 151.94 a3.8 3.8 0 1 0 7.6 0 a3.8 3.8 0 1 0 -7.6 0zM124.74 1291.94 a3.8 3.8 0 1 0 7.6 0 a3.8 3.8 0 1 0 -7.6 0zM157.65 1310.94 a3.8 3.8 0 1 0 7.6 0 a3.8 3.8 0 1 0 -7.6 0zM157.65 1348.94 a3.8 3.8 0 1 0 7.6 0 a3.8 3.8 0 1 0 -7.6 0zM124.74 1367.94 a3.8 3.8 0 1 0 7.6 0 a3.8 3.8 0 1 0 -7.6 0zM124.74 1405.94 a3.8 3.8 0 1 0 7.6 0 a3.8 3.8 0 1 0 -7.6 0zM157.65 1424.94 a3.8 3.8 0 1 0 7.6 0 a3.8 3.8 0 1 0 -7.6 0zM157.65 1462.94 a3.8 3.8 0 1 0 7.6 0 a3.8 3.8 0 1 0 -7.6 0zM124.74 1481.94 a3.8 3.8 0 1 0 7.6 0 a3.8 3.8 0 1 0 -7.6 0zM91.83 1462.94 a3.8 3.8 0 1 0 7.6 0 a3.8 3.8 0 1 0 -7.6 0zM91.83 1424.94 a3.8 3.8 0 1 0 7.6 0 a3.8 3.8 0 1 0 -7.6 0zM91.83 1804.94 a3.8 3.8 0 1 0 7.6 0 a3.8 3.8 0 1 0 -7.6 0zM124.74 1823.94 a3.8 3.8 0 1 0 7.6 0 a3.8 3.8 0 1 0 -7.6 0zM124.74 1861.94 a3.8 3.8 0 1 0 7.6 0 a3.8 3.8 0 1 0 -7.6 0zM91.83 1880.94 a3.8 3.8 0 1 0 7.6 0 a3.8 3.8 0 1 0 -7.6 0zM58.92 1861.94 a3.8 3.8 0 1 0 7.6 0 a3.8 3.8 0 1 0 -7.6 0zM58.92 1823.94 a3.8 3.8 0 1 0 7.6 0 a3.8 3.8 0 1 0 -7.6 0zM91.83 1918.94 a3.8 3.8 0 1 0 7.6 0 a3.8 3.8 0 1 0 -7.6 0zM124.74 1937.94 a3.8 3.8 0 1 0 7.6 0 a3.8 3.8 0 1 0 -7.6 0zM124.74 1975.94 a3.8 3.8 0 1 0 7.6 0 a3.8 3.8 0 1 0 -7.6 0zM91.83 1994.94 a3.8 3.8 0 1 0 7.6 0 a3.8 3.8 0 1 0 -7.6 0zM58.92 1975.94 a3.8 3.8 0 1 0 7.6 0 a3.8 3.8 0 1 0 -7.6 0zM58.92 1937.94 a3.8 3.8 0 1 0 7.6 0 a3.8 3.8 0 1 0 -7.6 0zM157.65 892.94 a3.8 3.8 0 1 0 7.6 0 a3.8 3.8 0 1 0 -7.6 0zM190.56 911.94 a3.8 3.8 0 1 0 7.6 0 a3.8 3.8 0 1 0 -7.6 0zM190.56 949.94 a3.8 3.8 0 1 0 7.6 0 a3.8 3.8 0 1 0 -7.6 0zM157.65 968.94 a3.8 3.8 0 1 0 7.6 0 a3.8 3.8 0 1 0 -7.6 0zM124.74 949.94 a3.8 3.8 0 1 0 7.6 0 a3.8 3.8 0 1 0 -7.6 0zM124.74 911.94 a3.8 3.8 0 1 0 7.6 0 a3.8 3.8 0 1 0 -7.6 0zM223.47 -19.06 a3.8 3.8 0 1 0 7.6 0 a3.8 3.8 0 1 0 -7.6 0zM256.38 -0.06 a3.8 3.8 0 1 0 7.6 0 a3.8 3.8 0 1 0 -7.6 0zM256.38 37.94 a3.8 3.8 0 1 0 7.6 0 a3.8 3.8 0 1 0 -7.6 0zM223.47 56.94 a3.8 3.8 0 1 0 7.6 0 a3.8 3.8 0 1 0 -7.6 0zM190.56 37.94 a3.8 3.8 0 1 0 7.6 0 a3.8 3.8 0 1 0 -7.6 0zM190.56 -0.06 a3.8 3.8 0 1 0 7.6 0 a3.8 3.8 0 1 0 -7.6 0zM223.47 1804.94 a3.8 3.8 0 1 0 7.6 0 a3.8 3.8 0 1 0 -7.6 0zM256.38 1823.94 a3.8 3.8 0 1 0 7.6 0 a3.8 3.8 0 1 0 -7.6 0zM256.38 1861.94 a3.8 3.8 0 1 0 7.6 0 a3.8 3.8 0 1 0 -7.6 0zM223.47 1880.94 a3.8 3.8 0 1 0 7.6 0 a3.8 3.8 0 1 0 -7.6 0zM190.56 1861.94 a3.8 3.8 0 1 0 7.6 0 a3.8 3.8 0 1 0 -7.6 0zM190.56 1823.94 a3.8 3.8 0 1 0 7.6 0 a3.8 3.8 0 1 0 -7.6 0zM289.29 1880.94 a3.8 3.8 0 1 0 7.6 0 a3.8 3.8 0 1 0 -7.6 0zM289.29 1918.94 a3.8 3.8 0 1 0 7.6 0 a3.8 3.8 0 1 0 -7.6 0zM256.38 1937.94 a3.8 3.8 0 1 0 7.6 0 a3.8 3.8 0 1 0 -7.6 0zM223.47 1918.94 a3.8 3.8 0 1 0 7.6 0 a3.8 3.8 0 1 0 -7.6 0zM289.29 -19.06 a3.8 3.8 0 1 0 7.6 0 a3.8 3.8 0 1 0 -7.6 0zM322.2 -0.06 a3.8 3.8 0 1 0 7.6 0 a3.8 3.8 0 1 0 -7.6 0zM322.2 37.94 a3.8 3.8 0 1 0 7.6 0 a3.8 3.8 0 1 0 -7.6 0zM289.29 56.94 a3.8 3.8 0 1 0 7.6 0 a3.8 3.8 0 1 0 -7.6 0zM322.2 721.94 a3.8 3.8 0 1 0 7.6 0 a3.8 3.8 0 1 0 -7.6 0zM355.11 740.94 a3.8 3.8 0 1 0 7.6 0 a3.8 3.8 0 1 0 -7.6 0zM355.11 778.94 a3.8 3.8 0 1 0 7.6 0 a3.8 3.8 0 1 0 -7.6 0zM322.2 797.94 a3.8 3.8 0 1 0 7.6 0 a3.8 3.8 0 1 0 -7.6 0zM289.29 778.94 a3.8 3.8 0 1 0 7.6 0 a3.8 3.8 0 1 0 -7.6 0zM289.29 740.94 a3.8 3.8 0 1 0 7.6 0 a3.8 3.8 0 1 0 -7.6 0zM355.11 322.94 a3.8 3.8 0 1 0 7.6 0 a3.8 3.8 0 1 0 -7.6 0zM388.02 341.94 a3.8 3.8 0 1 0 7.6 0 a3.8 3.8 0 1 0 -7.6 0zM388.02 379.94 a3.8 3.8 0 1 0 7.6 0 a3.8 3.8 0 1 0 -7.6 0zM355.11 398.94 a3.8 3.8 0 1 0 7.6 0 a3.8 3.8 0 1 0 -7.6 0zM322.2 379.94 a3.8 3.8 0 1 0 7.6 0 a3.8 3.8 0 1 0 -7.6 0zM322.2 341.94 a3.8 3.8 0 1 0 7.6 0 a3.8 3.8 0 1 0 -7.6 0zM355.11 892.94 a3.8 3.8 0 1 0 7.6 0 a3.8 3.8 0 1 0 -7.6 0zM388.02 911.94 a3.8 3.8 0 1 0 7.6 0 a3.8 3.8 0 1 0 -7.6 0zM388.02 949.94 a3.8 3.8 0 1 0 7.6 0 a3.8 3.8 0 1 0 -7.6 0zM355.11 968.94 a3.8 3.8 0 1 0 7.6 0 a3.8 3.8 0 1 0 -7.6 0zM322.2 949.94 a3.8 3.8 0 1 0 7.6 0 a3.8 3.8 0 1 0 -7.6 0zM322.2 911.94 a3.8 3.8 0 1 0 7.6 0 a3.8 3.8 0 1 0 -7.6 0zM355.11 2032.94 a3.8 3.8 0 1 0 7.6 0 a3.8 3.8 0 1 0 -7.6 0zM388.02 2051.94 a3.8 3.8 0 1 0 7.6 0 a3.8 3.8 0 1 0 -7.6 0zM388.02 2089.94 a3.8 3.8 0 1 0 7.6 0 a3.8 3.8 0 1 0 -7.6 0zM355.11 2108.94 a3.8 3.8 0 1 0 7.6 0 a3.8 3.8 0 1 0 -7.6 0zM322.2 2089.94 a3.8 3.8 0 1 0 7.6 0 a3.8 3.8 0 1 0 -7.6 0zM322.2 2051.94 a3.8 3.8 0 1 0 7.6 0 a3.8 3.8 0 1 0 -7.6 0zM420.93 94.94 a3.8 3.8 0 1 0 7.6 0 a3.8 3.8 0 1 0 -7.6 0zM453.84 113.94 a3.8 3.8 0 1 0 7.6 0 a3.8 3.8 0 1 0 -7.6 0zM453.84 151.94 a3.8 3.8 0 1 0 7.6 0 a3.8 3.8 0 1 0 -7.6 0zM420.93 170.94 a3.8 3.8 0 1 0 7.6 0 a3.8 3.8 0 1 0 -7.6 0zM388.02 151.94 a3.8 3.8 0 1 0 7.6 0 a3.8 3.8 0 1 0 -7.6 0zM388.02 113.94 a3.8 3.8 0 1 0 7.6 0 a3.8 3.8 0 1 0 -7.6 0zM420.93 1462.94 a3.8 3.8 0 1 0 7.6 0 a3.8 3.8 0 1 0 -7.6 0zM453.84 1481.94 a3.8 3.8 0 1 0 7.6 0 a3.8 3.8 0 1 0 -7.6 0zM453.84 1519.94 a3.8 3.8 0 1 0 7.6 0 a3.8 3.8 0 1 0 -7.6 0zM420.93 1538.94 a3.8 3.8 0 1 0 7.6 0 a3.8 3.8 0 1 0 -7.6 0zM388.02 1519.94 a3.8 3.8 0 1 0 7.6 0 a3.8 3.8 0 1 0 -7.6 0zM388.02 1481.94 a3.8 3.8 0 1 0 7.6 0 a3.8 3.8 0 1 0 -7.6 0zM420.93 1804.94 a3.8 3.8 0 1 0 7.6 0 a3.8 3.8 0 1 0 -7.6 0zM453.84 1823.94 a3.8 3.8 0 1 0 7.6 0 a3.8 3.8 0 1 0 -7.6 0zM453.84 1861.94 a3.8 3.8 0 1 0 7.6 0 a3.8 3.8 0 1 0 -7.6 0zM420.93 1880.94 a3.8 3.8 0 1 0 7.6 0 a3.8 3.8 0 1 0 -7.6 0zM388.02 1861.94 a3.8 3.8 0 1 0 7.6 0 a3.8 3.8 0 1 0 -7.6 0zM388.02 1823.94 a3.8 3.8 0 1 0 7.6 0 a3.8 3.8 0 1 0 -7.6 0zM420.93 1918.94 a3.8 3.8 0 1 0 7.6 0 a3.8 3.8 0 1 0 -7.6 0zM453.84 1937.94 a3.8 3.8 0 1 0 7.6 0 a3.8 3.8 0 1 0 -7.6 0zM453.84 1975.94 a3.8 3.8 0 1 0 7.6 0 a3.8 3.8 0 1 0 -7.6 0zM420.93 1994.94 a3.8 3.8 0 1 0 7.6 0 a3.8 3.8 0 1 0 -7.6 0zM388.02 1975.94 a3.8 3.8 0 1 0 7.6 0 a3.8 3.8 0 1 0 -7.6 0zM388.02 1937.94 a3.8 3.8 0 1 0 7.6 0 a3.8 3.8 0 1 0 -7.6 0zM519.66 493.94 a3.8 3.8 0 1 0 7.6 0 a3.8 3.8 0 1 0 -7.6 0zM552.57 512.94 a3.8 3.8 0 1 0 7.6 0 a3.8 3.8 0 1 0 -7.6 0zM552.57 550.94 a3.8 3.8 0 1 0 7.6 0 a3.8 3.8 0 1 0 -7.6 0zM519.66 569.94 a3.8 3.8 0 1 0 7.6 0 a3.8 3.8 0 1 0 -7.6 0zM486.75 550.94 a3.8 3.8 0 1 0 7.6 0 a3.8 3.8 0 1 0 -7.6 0zM486.75 512.94 a3.8 3.8 0 1 0 7.6 0 a3.8 3.8 0 1 0 -7.6 0zM486.75 664.94 a3.8 3.8 0 1 0 7.6 0 a3.8 3.8 0 1 0 -7.6 0zM519.66 683.94 a3.8 3.8 0 1 0 7.6 0 a3.8 3.8 0 1 0 -7.6 0zM519.66 721.94 a3.8 3.8 0 1 0 7.6 0 a3.8 3.8 0 1 0 -7.6 0zM486.75 740.94 a3.8 3.8 0 1 0 7.6 0 a3.8 3.8 0 1 0 -7.6 0zM453.84 721.94 a3.8 3.8 0 1 0 7.6 0 a3.8 3.8 0 1 0 -7.6 0zM453.84 683.94 a3.8 3.8 0 1 0 7.6 0 a3.8 3.8 0 1 0 -7.6 0zM519.66 2089.94 a3.8 3.8 0 1 0 7.6 0 a3.8 3.8 0 1 0 -7.6 0zM552.57 2108.94 a3.8 3.8 0 1 0 7.6 0 a3.8 3.8 0 1 0 -7.6 0zM552.57 2146.94 a3.8 3.8 0 1 0 7.6 0 a3.8 3.8 0 1 0 -7.6 0zM519.66 2165.94 a3.8 3.8 0 1 0 7.6 0 a3.8 3.8 0 1 0 -7.6 0zM486.75 2146.94 a3.8 3.8 0 1 0 7.6 0 a3.8 3.8 0 1 0 -7.6 0zM486.75 2108.94 a3.8 3.8 0 1 0 7.6 0 a3.8 3.8 0 1 0 -7.6 0zM552.57 94.94 a3.8 3.8 0 1 0 7.6 0 a3.8 3.8 0 1 0 -7.6 0zM585.48 113.94 a3.8 3.8 0 1 0 7.6 0 a3.8 3.8 0 1 0 -7.6 0zM585.48 151.94 a3.8 3.8 0 1 0 7.6 0 a3.8 3.8 0 1 0 -7.6 0zM552.57 170.94 a3.8 3.8 0 1 0 7.6 0 a3.8 3.8 0 1 0 -7.6 0zM519.66 151.94 a3.8 3.8 0 1 0 7.6 0 a3.8 3.8 0 1 0 -7.6 0zM519.66 113.94 a3.8 3.8 0 1 0 7.6 0 a3.8 3.8 0 1 0 -7.6 0zM585.48 493.94 a3.8 3.8 0 1 0 7.6 0 a3.8 3.8 0 1 0 -7.6 0zM618.39 512.94 a3.8 3.8 0 1 0 7.6 0 a3.8 3.8 0 1 0 -7.6 0zM618.39 550.94 a3.8 3.8 0 1 0 7.6 0 a3.8 3.8 0 1 0 -7.6 0zM585.48 569.94 a3.8 3.8 0 1 0 7.6 0 a3.8 3.8 0 1 0 -7.6 0zM552.57 1462.94 a3.8 3.8 0 1 0 7.6 0 a3.8 3.8 0 1 0 -7.6 0zM585.48 1481.94 a3.8 3.8 0 1 0 7.6 0 a3.8 3.8 0 1 0 -7.6 0zM585.48 1519.94 a3.8 3.8 0 1 0 7.6 0 a3.8 3.8 0 1 0 -7.6 0zM552.57 1538.94 a3.8 3.8 0 1 0 7.6 0 a3.8 3.8 0 1 0 -7.6 0zM519.66 1519.94 a3.8 3.8 0 1 0 7.6 0 a3.8 3.8 0 1 0 -7.6 0zM519.66 1481.94 a3.8 3.8 0 1 0 7.6 0 a3.8 3.8 0 1 0 -7.6 0zM552.57 1804.94 a3.8 3.8 0 1 0 7.6 0 a3.8 3.8 0 1 0 -7.6 0zM585.48 1823.94 a3.8 3.8 0 1 0 7.6 0 a3.8 3.8 0 1 0 -7.6 0zM585.48 1861.94 a3.8 3.8 0 1 0 7.6 0 a3.8 3.8 0 1 0 -7.6 0zM552.57 1880.94 a3.8 3.8 0 1 0 7.6 0 a3.8 3.8 0 1 0 -7.6 0zM519.66 1861.94 a3.8 3.8 0 1 0 7.6 0 a3.8 3.8 0 1 0 -7.6 0zM519.66 1823.94 a3.8 3.8 0 1 0 7.6 0 a3.8 3.8 0 1 0 -7.6 0zM651.3 265.94 a3.8 3.8 0 1 0 7.6 0 a3.8 3.8 0 1 0 -7.6 0zM684.21 284.94 a3.8 3.8 0 1 0 7.6 0 a3.8 3.8 0 1 0 -7.6 0zM684.21 322.94 a3.8 3.8 0 1 0 7.6 0 a3.8 3.8 0 1 0 -7.6 0zM651.3 341.94 a3.8 3.8 0 1 0 7.6 0 a3.8 3.8 0 1 0 -7.6 0zM618.39 322.94 a3.8 3.8 0 1 0 7.6 0 a3.8 3.8 0 1 0 -7.6 0zM618.39 284.94 a3.8 3.8 0 1 0 7.6 0 a3.8 3.8 0 1 0 -7.6 0zM651.3 379.94 a3.8 3.8 0 1 0 7.6 0 a3.8 3.8 0 1 0 -7.6 0zM618.39 398.94 a3.8 3.8 0 1 0 7.6 0 a3.8 3.8 0 1 0 -7.6 0zM585.48 379.94 a3.8 3.8 0 1 0 7.6 0 a3.8 3.8 0 1 0 -7.6 0zM585.48 341.94 a3.8 3.8 0 1 0 7.6 0 a3.8 3.8 0 1 0 -7.6 0zM684.21 398.94 a3.8 3.8 0 1 0 7.6 0 a3.8 3.8 0 1 0 -7.6 0zM684.21 436.94 a3.8 3.8 0 1 0 7.6 0 a3.8 3.8 0 1 0 -7.6 0zM651.3 455.94 a3.8 3.8 0 1 0 7.6 0 a3.8 3.8 0 1 0 -7.6 0zM618.39 436.94 a3.8 3.8 0 1 0 7.6 0 a3.8 3.8 0 1 0 -7.6 0zM618.39 1120.94 a3.8 3.8 0 1 0 7.6 0 a3.8 3.8 0 1 0 -7.6 0zM651.3 1139.94 a3.8 3.8 0 1 0 7.6 0 a3.8 3.8 0 1 0 -7.6 0zM651.3 1177.94 a3.8 3.8 0 1 0 7.6 0 a3.8 3.8 0 1 0 -7.6 0zM618.39 1196.94 a3.8 3.8 0 1 0 7.6 0 a3.8 3.8 0 1 0 -7.6 0zM585.48 1177.94 a3.8 3.8 0 1 0 7.6 0 a3.8 3.8 0 1 0 -7.6 0zM585.48 1139.94 a3.8 3.8 0 1 0 7.6 0 a3.8 3.8 0 1 0 -7.6 0zM651.3 1861.94 a3.8 3.8 0 1 0 7.6 0 a3.8 3.8 0 1 0 -7.6 0zM684.21 1880.94 a3.8 3.8 0 1 0 7.6 0 a3.8 3.8 0 1 0 -7.6 0zM684.21 1918.94 a3.8 3.8 0 1 0 7.6 0 a3.8 3.8 0 1 0 -7.6 0zM651.3 1937.94 a3.8 3.8 0 1 0 7.6 0 a3.8 3.8 0 1 0 -7.6 0zM618.39 1918.94 a3.8 3.8 0 1 0 7.6 0 a3.8 3.8 0 1 0 -7.6 0zM618.39 1880.94 a3.8 3.8 0 1 0 7.6 0 a3.8 3.8 0 1 0 -7.6 0zM684.21 -19.06 a3.8 3.8 0 1 0 7.6 0 a3.8 3.8 0 1 0 -7.6 0zM717.12 -0.06 a3.8 3.8 0 1 0 7.6 0 a3.8 3.8 0 1 0 -7.6 0zM717.12 37.94 a3.8 3.8 0 1 0 7.6 0 a3.8 3.8 0 1 0 -7.6 0zM684.21 56.94 a3.8 3.8 0 1 0 7.6 0 a3.8 3.8 0 1 0 -7.6 0zM651.3 37.94 a3.8 3.8 0 1 0 7.6 0 a3.8 3.8 0 1 0 -7.6 0zM651.3 -0.06 a3.8 3.8 0 1 0 7.6 0 a3.8 3.8 0 1 0 -7.6 0zM684.21 664.94 a3.8 3.8 0 1 0 7.6 0 a3.8 3.8 0 1 0 -7.6 0zM717.12 683.94 a3.8 3.8 0 1 0 7.6 0 a3.8 3.8 0 1 0 -7.6 0zM717.12 721.94 a3.8 3.8 0 1 0 7.6 0 a3.8 3.8 0 1 0 -7.6 0zM684.21 740.94 a3.8 3.8 0 1 0 7.6 0 a3.8 3.8 0 1 0 -7.6 0zM651.3 721.94 a3.8 3.8 0 1 0 7.6 0 a3.8 3.8 0 1 0 -7.6 0zM651.3 683.94 a3.8 3.8 0 1 0 7.6 0 a3.8 3.8 0 1 0 -7.6 0zM750.03 740.94 a3.8 3.8 0 1 0 7.6 0 a3.8 3.8 0 1 0 -7.6 0zM750.03 778.94 a3.8 3.8 0 1 0 7.6 0 a3.8 3.8 0 1 0 -7.6 0zM717.12 797.94 a3.8 3.8 0 1 0 7.6 0 a3.8 3.8 0 1 0 -7.6 0zM684.21 778.94 a3.8 3.8 0 1 0 7.6 0 a3.8 3.8 0 1 0 -7.6 0zM684.21 1690.94 a3.8 3.8 0 1 0 7.6 0 a3.8 3.8 0 1 0 -7.6 0zM717.12 1709.94 a3.8 3.8 0 1 0 7.6 0 a3.8 3.8 0 1 0 -7.6 0zM717.12 1747.94 a3.8 3.8 0 1 0 7.6 0 a3.8 3.8 0 1 0 -7.6 0zM684.21 1766.94 a3.8 3.8 0 1 0 7.6 0 a3.8 3.8 0 1 0 -7.6 0zM651.3 1747.94 a3.8 3.8 0 1 0 7.6 0 a3.8 3.8 0 1 0 -7.6 0zM651.3 1709.94 a3.8 3.8 0 1 0 7.6 0 a3.8 3.8 0 1 0 -7.6 0zM684.21 1804.94 a3.8 3.8 0 1 0 7.6 0 a3.8 3.8 0 1 0 -7.6 0zM717.12 1823.94 a3.8 3.8 0 1 0 7.6 0 a3.8 3.8 0 1 0 -7.6 0zM717.12 1861.94 a3.8 3.8 0 1 0 7.6 0 a3.8 3.8 0 1 0 -7.6 0zM651.3 1823.94 a3.8 3.8 0 1 0 7.6 0 a3.8 3.8 0 1 0 -7.6 0zM717.12 1937.94 a3.8 3.8 0 1 0 7.6 0 a3.8 3.8 0 1 0 -7.6 0zM717.12 1975.94 a3.8 3.8 0 1 0 7.6 0 a3.8 3.8 0 1 0 -7.6 0zM684.21 1994.94 a3.8 3.8 0 1 0 7.6 0 a3.8 3.8 0 1 0 -7.6 0zM651.3 1975.94 a3.8 3.8 0 1 0 7.6 0 a3.8 3.8 0 1 0 -7.6 0zM684.21 2032.94 a3.8 3.8 0 1 0 7.6 0 a3.8 3.8 0 1 0 -7.6 0zM717.12 2051.94 a3.8 3.8 0 1 0 7.6 0 a3.8 3.8 0 1 0 -7.6 0zM717.12 2089.94 a3.8 3.8 0 1 0 7.6 0 a3.8 3.8 0 1 0 -7.6 0zM684.21 2108.94 a3.8 3.8 0 1 0 7.6 0 a3.8 3.8 0 1 0 -7.6 0zM651.3 2089.94 a3.8 3.8 0 1 0 7.6 0 a3.8 3.8 0 1 0 -7.6 0zM651.3 2051.94 a3.8 3.8 0 1 0 7.6 0 a3.8 3.8 0 1 0 -7.6 0zM750.03 2108.94 a3.8 3.8 0 1 0 7.6 0 a3.8 3.8 0 1 0 -7.6 0zM750.03 2146.94 a3.8 3.8 0 1 0 7.6 0 a3.8 3.8 0 1 0 -7.6 0zM717.12 2165.94 a3.8 3.8 0 1 0 7.6 0 a3.8 3.8 0 1 0 -7.6 0zM684.21 2146.94 a3.8 3.8 0 1 0 7.6 0 a3.8 3.8 0 1 0 -7.6 0zM750.03 1690.94 a3.8 3.8 0 1 0 7.6 0 a3.8 3.8 0 1 0 -7.6 0zM782.94 1709.94 a3.8 3.8 0 1 0 7.6 0 a3.8 3.8 0 1 0 -7.6 0zM782.94 1747.94 a3.8 3.8 0 1 0 7.6 0 a3.8 3.8 0 1 0 -7.6 0zM750.03 1766.94 a3.8 3.8 0 1 0 7.6 0 a3.8 3.8 0 1 0 -7.6 0zM848.76 151.94 a3.8 3.8 0 1 0 7.6 0 a3.8 3.8 0 1 0 -7.6 0zM881.67 170.94 a3.8 3.8 0 1 0 7.6 0 a3.8 3.8 0 1 0 -7.6 0zM881.67 208.94 a3.8 3.8 0 1 0 7.6 0 a3.8 3.8 0 1 0 -7.6 0zM848.76 227.94 a3.8 3.8 0 1 0 7.6 0 a3.8 3.8 0 1 0 -7.6 0zM815.85 208.94 a3.8 3.8 0 1 0 7.6 0 a3.8 3.8 0 1 0 -7.6 0zM815.85 170.94 a3.8 3.8 0 1 0 7.6 0 a3.8 3.8 0 1 0 -7.6 0zM848.76 265.94 a3.8 3.8 0 1 0 7.6 0 a3.8 3.8 0 1 0 -7.6 0zM815.85 284.94 a3.8 3.8 0 1 0 7.6 0 a3.8 3.8 0 1 0 -7.6 0zM782.94 265.94 a3.8 3.8 0 1 0 7.6 0 a3.8 3.8 0 1 0 -7.6 0zM782.94 227.94 a3.8 3.8 0 1 0 7.6 0 a3.8 3.8 0 1 0 -7.6 0zM848.76 1861.94 a3.8 3.8 0 1 0 7.6 0 a3.8 3.8 0 1 0 -7.6 0zM881.67 1880.94 a3.8 3.8 0 1 0 7.6 0 a3.8 3.8 0 1 0 -7.6 0zM881.67 1918.94 a3.8 3.8 0 1 0 7.6 0 a3.8 3.8 0 1 0 -7.6 0zM848.76 1937.94 a3.8 3.8 0 1 0 7.6 0 a3.8 3.8 0 1 0 -7.6 0zM815.85 1918.94 a3.8 3.8 0 1 0 7.6 0 a3.8 3.8 0 1 0 -7.6 0zM815.85 1880.94 a3.8 3.8 0 1 0 7.6 0 a3.8 3.8 0 1 0 -7.6 0zM848.76 1975.94 a3.8 3.8 0 1 0 7.6 0 a3.8 3.8 0 1 0 -7.6 0zM881.67 1994.94 a3.8 3.8 0 1 0 7.6 0 a3.8 3.8 0 1 0 -7.6 0zM881.67 2032.94 a3.8 3.8 0 1 0 7.6 0 a3.8 3.8 0 1 0 -7.6 0zM848.76 2051.94 a3.8 3.8 0 1 0 7.6 0 a3.8 3.8 0 1 0 -7.6 0zM815.85 2032.94 a3.8 3.8 0 1 0 7.6 0 a3.8 3.8 0 1 0 -7.6 0zM815.85 1994.94 a3.8 3.8 0 1 0 7.6 0 a3.8 3.8 0 1 0 -7.6 0zM848.76 2089.94 a3.8 3.8 0 1 0 7.6 0 a3.8 3.8 0 1 0 -7.6 0zM815.85 2108.94 a3.8 3.8 0 1 0 7.6 0 a3.8 3.8 0 1 0 -7.6 0zM782.94 2089.94 a3.8 3.8 0 1 0 7.6 0 a3.8 3.8 0 1 0 -7.6 0zM782.94 2051.94 a3.8 3.8 0 1 0 7.6 0 a3.8 3.8 0 1 0 -7.6 0zM815.85 2146.94 a3.8 3.8 0 1 0 7.6 0 a3.8 3.8 0 1 0 -7.6 0zM848.76 2165.94 a3.8 3.8 0 1 0 7.6 0 a3.8 3.8 0 1 0 -7.6 0zM848.76 2203.94 a3.8 3.8 0 1 0 7.6 0 a3.8 3.8 0 1 0 -7.6 0zM815.85 2222.94 a3.8 3.8 0 1 0 7.6 0 a3.8 3.8 0 1 0 -7.6 0zM782.94 2203.94 a3.8 3.8 0 1 0 7.6 0 a3.8 3.8 0 1 0 -7.6 0zM782.94 2165.94 a3.8 3.8 0 1 0 7.6 0 a3.8 3.8 0 1 0 -7.6 0zM881.67 94.94 a3.8 3.8 0 1 0 7.6 0 a3.8 3.8 0 1 0 -7.6 0zM914.58 113.94 a3.8 3.8 0 1 0 7.6 0 a3.8 3.8 0 1 0 -7.6 0zM914.58 151.94 a3.8 3.8 0 1 0 7.6 0 a3.8 3.8 0 1 0 -7.6 0zM848.76 113.94 a3.8 3.8 0 1 0 7.6 0 a3.8 3.8 0 1 0 -7.6 0zM881.67 436.94 a3.8 3.8 0 1 0 7.6 0 a3.8 3.8 0 1 0 -7.6 0zM914.58 455.94 a3.8 3.8 0 1 0 7.6 0 a3.8 3.8 0 1 0 -7.6 0zM914.58 493.94 a3.8 3.8 0 1 0 7.6 0 a3.8 3.8 0 1 0 -7.6 0zM881.67 512.94 a3.8 3.8 0 1 0 7.6 0 a3.8 3.8 0 1 0 -7.6 0zM848.76 493.94 a3.8 3.8 0 1 0 7.6 0 a3.8 3.8 0 1 0 -7.6 0zM848.76 455.94 a3.8 3.8 0 1 0 7.6 0 a3.8 3.8 0 1 0 -7.6 0zM914.58 721.94 a3.8 3.8 0 1 0 7.6 0 a3.8 3.8 0 1 0 -7.6 0zM947.49 740.94 a3.8 3.8 0 1 0 7.6 0 a3.8 3.8 0 1 0 -7.6 0zM947.49 778.94 a3.8 3.8 0 1 0 7.6 0 a3.8 3.8 0 1 0 -7.6 0zM914.58 797.94 a3.8 3.8 0 1 0 7.6 0 a3.8 3.8 0 1 0 -7.6 0zM881.67 778.94 a3.8 3.8 0 1 0 7.6 0 a3.8 3.8 0 1 0 -7.6 0zM881.67 740.94 a3.8 3.8 0 1 0 7.6 0 a3.8 3.8 0 1 0 -7.6 0zM914.58 835.94 a3.8 3.8 0 1 0 7.6 0 a3.8 3.8 0 1 0 -7.6 0zM881.67 854.94 a3.8 3.8 0 1 0 7.6 0 a3.8 3.8 0 1 0 -7.6 0zM848.76 835.94 a3.8 3.8 0 1 0 7.6 0 a3.8 3.8 0 1 0 -7.6 0zM848.76 797.94 a3.8 3.8 0 1 0 7.6 0 a3.8 3.8 0 1 0 -7.6 0zM914.58 1975.94 a3.8 3.8 0 1 0 7.6 0 a3.8 3.8 0 1 0 -7.6 0zM947.49 1994.94 a3.8 3.8 0 1 0 7.6 0 a3.8 3.8 0 1 0 -7.6 0zM947.49 2032.94 a3.8 3.8 0 1 0 7.6 0 a3.8 3.8 0 1 0 -7.6 0zM914.58 2051.94 a3.8 3.8 0 1 0 7.6 0 a3.8 3.8 0 1 0 -7.6 0zM914.58 2089.94 a3.8 3.8 0 1 0 7.6 0 a3.8 3.8 0 1 0 -7.6 0zM947.49 2108.94 a3.8 3.8 0 1 0 7.6 0 a3.8 3.8 0 1 0 -7.6 0zM947.49 2146.94 a3.8 3.8 0 1 0 7.6 0 a3.8 3.8 0 1 0 -7.6 0zM914.58 2165.94 a3.8 3.8 0 1 0 7.6 0 a3.8 3.8 0 1 0 -7.6 0zM881.67 2146.94 a3.8 3.8 0 1 0 7.6 0 a3.8 3.8 0 1 0 -7.6 0zM881.67 2108.94 a3.8 3.8 0 1 0 7.6 0 a3.8 3.8 0 1 0 -7.6 0zM914.58 2203.94 a3.8 3.8 0 1 0 7.6 0 a3.8 3.8 0 1 0 -7.6 0zM881.67 2222.94 a3.8 3.8 0 1 0 7.6 0 a3.8 3.8 0 1 0 -7.6 0zM980.4 151.94 a3.8 3.8 0 1 0 7.6 0 a3.8 3.8 0 1 0 -7.6 0zM1013.31 170.94 a3.8 3.8 0 1 0 7.6 0 a3.8 3.8 0 1 0 -7.6 0zM1013.31 208.94 a3.8 3.8 0 1 0 7.6 0 a3.8 3.8 0 1 0 -7.6 0zM980.4 227.94 a3.8 3.8 0 1 0 7.6 0 a3.8 3.8 0 1 0 -7.6 0zM947.49 208.94 a3.8 3.8 0 1 0 7.6 0 a3.8 3.8 0 1 0 -7.6 0zM947.49 170.94 a3.8 3.8 0 1 0 7.6 0 a3.8 3.8 0 1 0 -7.6 0zM980.4 1519.94 a3.8 3.8 0 1 0 7.6 0 a3.8 3.8 0 1 0 -7.6 0zM1013.31 1538.94 a3.8 3.8 0 1 0 7.6 0 a3.8 3.8 0 1 0 -7.6 0zM1013.31 1576.94 a3.8 3.8 0 1 0 7.6 0 a3.8 3.8 0 1 0 -7.6 0zM980.4 1595.94 a3.8 3.8 0 1 0 7.6 0 a3.8 3.8 0 1 0 -7.6 0zM947.49 1576.94 a3.8 3.8 0 1 0 7.6 0 a3.8 3.8 0 1 0 -7.6 0zM947.49 1538.94 a3.8 3.8 0 1 0 7.6 0 a3.8 3.8 0 1 0 -7.6 0zM947.49 1690.94 a3.8 3.8 0 1 0 7.6 0 a3.8 3.8 0 1 0 -7.6 0zM980.4 1709.94 a3.8 3.8 0 1 0 7.6 0 a3.8 3.8 0 1 0 -7.6 0zM980.4 1747.94 a3.8 3.8 0 1 0 7.6 0 a3.8 3.8 0 1 0 -7.6 0zM947.49 1766.94 a3.8 3.8 0 1 0 7.6 0 a3.8 3.8 0 1 0 -7.6 0zM914.58 1747.94 a3.8 3.8 0 1 0 7.6 0 a3.8 3.8 0 1 0 -7.6 0zM914.58 1709.94 a3.8 3.8 0 1 0 7.6 0 a3.8 3.8 0 1 0 -7.6 0zM1013.31 436.94 a3.8 3.8 0 1 0 7.6 0 a3.8 3.8 0 1 0 -7.6 0zM1046.22 455.94 a3.8 3.8 0 1 0 7.6 0 a3.8 3.8 0 1 0 -7.6 0zM1046.22 493.94 a3.8 3.8 0 1 0 7.6 0 a3.8 3.8 0 1 0 -7.6 0zM1013.31 512.94 a3.8 3.8 0 1 0 7.6 0 a3.8 3.8 0 1 0 -7.6 0zM980.4 493.94 a3.8 3.8 0 1 0 7.6 0 a3.8 3.8 0 1 0 -7.6 0zM980.4 455.94 a3.8 3.8 0 1 0 7.6 0 a3.8 3.8 0 1 0 -7.6 0zM1046.22 721.94 a3.8 3.8 0 1 0 7.6 0 a3.8 3.8 0 1 0 -7.6 0zM1079.13 740.94 a3.8 3.8 0 1 0 7.6 0 a3.8 3.8 0 1 0 -7.6 0zM1079.13 778.94 a3.8 3.8 0 1 0 7.6 0 a3.8 3.8 0 1 0 -7.6 0zM1046.22 797.94 a3.8 3.8 0 1 0 7.6 0 a3.8 3.8 0 1 0 -7.6 0zM1013.31 778.94 a3.8 3.8 0 1 0 7.6 0 a3.8 3.8 0 1 0 -7.6 0zM1013.31 740.94 a3.8 3.8 0 1 0 7.6 0 a3.8 3.8 0 1 0 -7.6 0zM1046.22 835.94 a3.8 3.8 0 1 0 7.6 0 a3.8 3.8 0 1 0 -7.6 0zM1013.31 854.94 a3.8 3.8 0 1 0 7.6 0 a3.8 3.8 0 1 0 -7.6 0zM980.4 835.94 a3.8 3.8 0 1 0 7.6 0 a3.8 3.8 0 1 0 -7.6 0zM980.4 797.94 a3.8 3.8 0 1 0 7.6 0 a3.8 3.8 0 1 0 -7.6 0zM1046.22 1519.94 a3.8 3.8 0 1 0 7.6 0 a3.8 3.8 0 1 0 -7.6 0zM1079.13 1538.94 a3.8 3.8 0 1 0 7.6 0 a3.8 3.8 0 1 0 -7.6 0zM1079.13 1576.94 a3.8 3.8 0 1 0 7.6 0 a3.8 3.8 0 1 0 -7.6 0zM1046.22 1595.94 a3.8 3.8 0 1 0 7.6 0 a3.8 3.8 0 1 0 -7.6 0zM1046.22 1633.94 a3.8 3.8 0 1 0 7.6 0 a3.8 3.8 0 1 0 -7.6 0zM1079.13 1652.94 a3.8 3.8 0 1 0 7.6 0 a3.8 3.8 0 1 0 -7.6 0zM1079.13 1690.94 a3.8 3.8 0 1 0 7.6 0 a3.8 3.8 0 1 0 -7.6 0zM1046.22 1709.94 a3.8 3.8 0 1 0 7.6 0 a3.8 3.8 0 1 0 -7.6 0zM1013.31 1690.94 a3.8 3.8 0 1 0 7.6 0 a3.8 3.8 0 1 0 -7.6 0zM1013.31 1652.94 a3.8 3.8 0 1 0 7.6 0 a3.8 3.8 0 1 0 -7.6 0zM1046.22 1747.94 a3.8 3.8 0 1 0 7.6 0 a3.8 3.8 0 1 0 -7.6 0zM1013.31 1766.94 a3.8 3.8 0 1 0 7.6 0 a3.8 3.8 0 1 0 -7.6 0zM1013.31 1918.94 a3.8 3.8 0 1 0 7.6 0 a3.8 3.8 0 1 0 -7.6 0zM1046.22 1937.94 a3.8 3.8 0 1 0 7.6 0 a3.8 3.8 0 1 0 -7.6 0zM1046.22 1975.94 a3.8 3.8 0 1 0 7.6 0 a3.8 3.8 0 1 0 -7.6 0zM1013.31 1994.94 a3.8 3.8 0 1 0 7.6 0 a3.8 3.8 0 1 0 -7.6 0zM980.4 1975.94 a3.8 3.8 0 1 0 7.6 0 a3.8 3.8 0 1 0 -7.6 0zM980.4 1937.94 a3.8 3.8 0 1 0 7.6 0 a3.8 3.8 0 1 0 -7.6 0zM1046.22 2089.94 a3.8 3.8 0 1 0 7.6 0 a3.8 3.8 0 1 0 -7.6 0zM1079.13 2108.94 a3.8 3.8 0 1 0 7.6 0 a3.8 3.8 0 1 0 -7.6 0zM1079.13 2146.94 a3.8 3.8 0 1 0 7.6 0 a3.8 3.8 0 1 0 -7.6 0zM1046.22 2165.94 a3.8 3.8 0 1 0 7.6 0 a3.8 3.8 0 1 0 -7.6 0zM1013.31 2146.94 a3.8 3.8 0 1 0 7.6 0 a3.8 3.8 0 1 0 -7.6 0zM1013.31 2108.94 a3.8 3.8 0 1 0 7.6 0 a3.8 3.8 0 1 0 -7.6 0zM1079.13 892.94 a3.8 3.8 0 1 0 7.6 0 a3.8 3.8 0 1 0 -7.6 0zM1112.04 911.94 a3.8 3.8 0 1 0 7.6 0 a3.8 3.8 0 1 0 -7.6 0zM1112.04 949.94 a3.8 3.8 0 1 0 7.6 0 a3.8 3.8 0 1 0 -7.6 0zM1079.13 968.94 a3.8 3.8 0 1 0 7.6 0 a3.8 3.8 0 1 0 -7.6 0zM1046.22 949.94 a3.8 3.8 0 1 0 7.6 0 a3.8 3.8 0 1 0 -7.6 0zM1046.22 911.94 a3.8 3.8 0 1 0 7.6 0 a3.8 3.8 0 1 0 -7.6 0zM1079.13 1006.94 a3.8 3.8 0 1 0 7.6 0 a3.8 3.8 0 1 0 -7.6 0zM1112.04 1025.94 a3.8 3.8 0 1 0 7.6 0 a3.8 3.8 0 1 0 -7.6 0zM1112.04 1063.94 a3.8 3.8 0 1 0 7.6 0 a3.8 3.8 0 1 0 -7.6 0zM1079.13 1082.94 a3.8 3.8 0 1 0 7.6 0 a3.8 3.8 0 1 0 -7.6 0zM1046.22 1063.94 a3.8 3.8 0 1 0 7.6 0 a3.8 3.8 0 1 0 -7.6 0zM1046.22 1025.94 a3.8 3.8 0 1 0 7.6 0 a3.8 3.8 0 1 0 -7.6 0zM1112.04 1519.94 a3.8 3.8 0 1 0 7.6 0 a3.8 3.8 0 1 0 -7.6 0zM1144.95 1538.94 a3.8 3.8 0 1 0 7.6 0 a3.8 3.8 0 1 0 -7.6 0zM1144.95 1576.94 a3.8 3.8 0 1 0 7.6 0 a3.8 3.8 0 1 0 -7.6 0zM1112.04 1595.94 a3.8 3.8 0 1 0 7.6 0 a3.8 3.8 0 1 0 -7.6 0zM1144.95 94.94 a3.8 3.8 0 1 0 7.6 0 a3.8 3.8 0 1 0 -7.6 0zM1177.86 113.94 a3.8 3.8 0 1 0 7.6 0 a3.8 3.8 0 1 0 -7.6 0zM1177.86 151.94 a3.8 3.8 0 1 0 7.6 0 a3.8 3.8 0 1 0 -7.6 0zM1144.95 170.94 a3.8 3.8 0 1 0 7.6 0 a3.8 3.8 0 1 0 -7.6 0zM1112.04 151.94 a3.8 3.8 0 1 0 7.6 0 a3.8 3.8 0 1 0 -7.6 0zM1112.04 113.94 a3.8 3.8 0 1 0 7.6 0 a3.8 3.8 0 1 0 -7.6 0zM1144.95 778.94 a3.8 3.8 0 1 0 7.6 0 a3.8 3.8 0 1 0 -7.6 0zM1177.86 797.94 a3.8 3.8 0 1 0 7.6 0 a3.8 3.8 0 1 0 -7.6 0zM1177.86 835.94 a3.8 3.8 0 1 0 7.6 0 a3.8 3.8 0 1 0 -7.6 0zM1144.95 854.94 a3.8 3.8 0 1 0 7.6 0 a3.8 3.8 0 1 0 -7.6 0zM1112.04 835.94 a3.8 3.8 0 1 0 7.6 0 a3.8 3.8 0 1 0 -7.6 0zM1112.04 797.94 a3.8 3.8 0 1 0 7.6 0 a3.8 3.8 0 1 0 -7.6 0zM1144.95 1120.94 a3.8 3.8 0 1 0 7.6 0 a3.8 3.8 0 1 0 -7.6 0zM1177.86 1139.94 a3.8 3.8 0 1 0 7.6 0 a3.8 3.8 0 1 0 -7.6 0zM1177.86 1177.94 a3.8 3.8 0 1 0 7.6 0 a3.8 3.8 0 1 0 -7.6 0zM1144.95 1196.94 a3.8 3.8 0 1 0 7.6 0 a3.8 3.8 0 1 0 -7.6 0zM1112.04 1177.94 a3.8 3.8 0 1 0 7.6 0 a3.8 3.8 0 1 0 -7.6 0zM1112.04 1139.94 a3.8 3.8 0 1 0 7.6 0 a3.8 3.8 0 1 0 -7.6 0zM1144.95 1804.94 a3.8 3.8 0 1 0 7.6 0 a3.8 3.8 0 1 0 -7.6 0zM1177.86 1823.94 a3.8 3.8 0 1 0 7.6 0 a3.8 3.8 0 1 0 -7.6 0zM1177.86 1861.94 a3.8 3.8 0 1 0 7.6 0 a3.8 3.8 0 1 0 -7.6 0zM1144.95 1880.94 a3.8 3.8 0 1 0 7.6 0 a3.8 3.8 0 1 0 -7.6 0zM1112.04 1861.94 a3.8 3.8 0 1 0 7.6 0 a3.8 3.8 0 1 0 -7.6 0zM1112.04 1823.94 a3.8 3.8 0 1 0 7.6 0 a3.8 3.8 0 1 0 -7.6 0zM1210.77 -19.06 a3.8 3.8 0 1 0 7.6 0 a3.8 3.8 0 1 0 -7.6 0zM1243.68 -0.06 a3.8 3.8 0 1 0 7.6 0 a3.8 3.8 0 1 0 -7.6 0zM1243.68 37.94 a3.8 3.8 0 1 0 7.6 0 a3.8 3.8 0 1 0 -7.6 0zM1210.77 56.94 a3.8 3.8 0 1 0 7.6 0 a3.8 3.8 0 1 0 -7.6 0zM1177.86 37.94 a3.8 3.8 0 1 0 7.6 0 a3.8 3.8 0 1 0 -7.6 0zM1177.86 -0.06 a3.8 3.8 0 1 0 7.6 0 a3.8 3.8 0 1 0 -7.6 0zM1243.68 1405.94 a3.8 3.8 0 1 0 7.6 0 a3.8 3.8 0 1 0 -7.6 0zM1276.59 1424.94 a3.8 3.8 0 1 0 7.6 0 a3.8 3.8 0 1 0 -7.6 0zM1276.59 1462.94 a3.8 3.8 0 1 0 7.6 0 a3.8 3.8 0 1 0 -7.6 0zM1243.68 1481.94 a3.8 3.8 0 1 0 7.6 0 a3.8 3.8 0 1 0 -7.6 0zM1210.77 1462.94 a3.8 3.8 0 1 0 7.6 0 a3.8 3.8 0 1 0 -7.6 0zM1210.77 1424.94 a3.8 3.8 0 1 0 7.6 0 a3.8 3.8 0 1 0 -7.6 0zM1210.77 1918.94 a3.8 3.8 0 1 0 7.6 0 a3.8 3.8 0 1 0 -7.6 0zM1243.68 1937.94 a3.8 3.8 0 1 0 7.6 0 a3.8 3.8 0 1 0 -7.6 0zM1243.68 1975.94 a3.8 3.8 0 1 0 7.6 0 a3.8 3.8 0 1 0 -7.6 0zM1210.77 1994.94 a3.8 3.8 0 1 0 7.6 0 a3.8 3.8 0 1 0 -7.6 0zM1177.86 1975.94 a3.8 3.8 0 1 0 7.6 0 a3.8 3.8 0 1 0 -7.6 0zM1177.86 1937.94 a3.8 3.8 0 1 0 7.6 0 a3.8 3.8 0 1 0 -7.6 0zM1210.77 2146.94 a3.8 3.8 0 1 0 7.6 0 a3.8 3.8 0 1 0 -7.6 0zM1243.68 2165.94 a3.8 3.8 0 1 0 7.6 0 a3.8 3.8 0 1 0 -7.6 0zM1243.68 2203.94 a3.8 3.8 0 1 0 7.6 0 a3.8 3.8 0 1 0 -7.6 0zM1210.77 2222.94 a3.8 3.8 0 1 0 7.6 0 a3.8 3.8 0 1 0 -7.6 0zM1177.86 2203.94 a3.8 3.8 0 1 0 7.6 0 a3.8 3.8 0 1 0 -7.6 0zM1177.86 2165.94 a3.8 3.8 0 1 0 7.6 0 a3.8 3.8 0 1 0 -7.6 0zM1309.5 607.94 a3.8 3.8 0 1 0 7.6 0 a3.8 3.8 0 1 0 -7.6 0zM1342.41 626.94 a3.8 3.8 0 1 0 7.6 0 a3.8 3.8 0 1 0 -7.6 0zM1342.41 664.94 a3.8 3.8 0 1 0 7.6 0 a3.8 3.8 0 1 0 -7.6 0zM1309.5 683.94 a3.8 3.8 0 1 0 7.6 0 a3.8 3.8 0 1 0 -7.6 0zM1276.59 664.94 a3.8 3.8 0 1 0 7.6 0 a3.8 3.8 0 1 0 -7.6 0zM1276.59 626.94 a3.8 3.8 0 1 0 7.6 0 a3.8 3.8 0 1 0 -7.6 0zM1276.59 1006.94 a3.8 3.8 0 1 0 7.6 0 a3.8 3.8 0 1 0 -7.6 0zM1309.5 1025.94 a3.8 3.8 0 1 0 7.6 0 a3.8 3.8 0 1 0 -7.6 0zM1309.5 1063.94 a3.8 3.8 0 1 0 7.6 0 a3.8 3.8 0 1 0 -7.6 0zM1276.59 1082.94 a3.8 3.8 0 1 0 7.6 0 a3.8 3.8 0 1 0 -7.6 0zM1243.68 1063.94 a3.8 3.8 0 1 0 7.6 0 a3.8 3.8 0 1 0 -7.6 0zM1243.68 1025.94 a3.8 3.8 0 1 0 7.6 0 a3.8 3.8 0 1 0 -7.6 0zM1276.59 1804.94 a3.8 3.8 0 1 0 7.6 0 a3.8 3.8 0 1 0 -7.6 0zM1309.5 1823.94 a3.8 3.8 0 1 0 7.6 0 a3.8 3.8 0 1 0 -7.6 0zM1309.5 1861.94 a3.8 3.8 0 1 0 7.6 0 a3.8 3.8 0 1 0 -7.6 0zM1276.59 1880.94 a3.8 3.8 0 1 0 7.6 0 a3.8 3.8 0 1 0 -7.6 0zM1243.68 1861.94 a3.8 3.8 0 1 0 7.6 0 a3.8 3.8 0 1 0 -7.6 0zM1243.68 1823.94 a3.8 3.8 0 1 0 7.6 0 a3.8 3.8 0 1 0 -7.6 0zM1342.41 94.94 a3.8 3.8 0 1 0 7.6 0 a3.8 3.8 0 1 0 -7.6 0zM1375.32 113.94 a3.8 3.8 0 1 0 7.6 0 a3.8 3.8 0 1 0 -7.6 0zM1375.32 151.94 a3.8 3.8 0 1 0 7.6 0 a3.8 3.8 0 1 0 -7.6 0zM1342.41 170.94 a3.8 3.8 0 1 0 7.6 0 a3.8 3.8 0 1 0 -7.6 0zM1309.5 151.94 a3.8 3.8 0 1 0 7.6 0 a3.8 3.8 0 1 0 -7.6 0zM1309.5 113.94 a3.8 3.8 0 1 0 7.6 0 a3.8 3.8 0 1 0 -7.6 0zM1408.23 170.94 a3.8 3.8 0 1 0 7.6 0 a3.8 3.8 0 1 0 -7.6 0zM1408.23 208.94 a3.8 3.8 0 1 0 7.6 0 a3.8 3.8 0 1 0 -7.6 0zM1375.32 227.94 a3.8 3.8 0 1 0 7.6 0 a3.8 3.8 0 1 0 -7.6 0zM1342.41 208.94 a3.8 3.8 0 1 0 7.6 0 a3.8 3.8 0 1 0 -7.6 0zM1342.41 1006.94 a3.8 3.8 0 1 0 7.6 0 a3.8 3.8 0 1 0 -7.6 0zM1375.32 1025.94 a3.8 3.8 0 1 0 7.6 0 a3.8 3.8 0 1 0 -7.6 0zM1375.32 1063.94 a3.8 3.8 0 1 0 7.6 0 a3.8 3.8 0 1 0 -7.6 0zM1342.41 1082.94 a3.8 3.8 0 1 0 7.6 0 a3.8 3.8 0 1 0 -7.6 0zM1342.41 1120.94 a3.8 3.8 0 1 0 7.6 0 a3.8 3.8 0 1 0 -7.6 0zM1375.32 1139.94 a3.8 3.8 0 1 0 7.6 0 a3.8 3.8 0 1 0 -7.6 0zM1375.32 1177.94 a3.8 3.8 0 1 0 7.6 0 a3.8 3.8 0 1 0 -7.6 0zM1342.41 1196.94 a3.8 3.8 0 1 0 7.6 0 a3.8 3.8 0 1 0 -7.6 0zM1309.5 1177.94 a3.8 3.8 0 1 0 7.6 0 a3.8 3.8 0 1 0 -7.6 0zM1309.5 1139.94 a3.8 3.8 0 1 0 7.6 0 a3.8 3.8 0 1 0 -7.6 0zM1342.41 1804.94 a3.8 3.8 0 1 0 7.6 0 a3.8 3.8 0 1 0 -7.6 0zM1375.32 1823.94 a3.8 3.8 0 1 0 7.6 0 a3.8 3.8 0 1 0 -7.6 0zM1375.32 1861.94 a3.8 3.8 0 1 0 7.6 0 a3.8 3.8 0 1 0 -7.6 0zM1342.41 1880.94 a3.8 3.8 0 1 0 7.6 0 a3.8 3.8 0 1 0 -7.6 0zM1408.23 1880.94 a3.8 3.8 0 1 0 7.6 0 a3.8 3.8 0 1 0 -7.6 0zM1408.23 1918.94 a3.8 3.8 0 1 0 7.6 0 a3.8 3.8 0 1 0 -7.6 0zM1375.32 1937.94 a3.8 3.8 0 1 0 7.6 0 a3.8 3.8 0 1 0 -7.6 0zM1342.41 1918.94 a3.8 3.8 0 1 0 7.6 0 a3.8 3.8 0 1 0 -7.6 0zM1441.14 607.94 a3.8 3.8 0 1 0 7.6 0 a3.8 3.8 0 1 0 -7.6 0zM1474.05 626.94 a3.8 3.8 0 1 0 7.6 0 a3.8 3.8 0 1 0 -7.6 0zM1474.05 664.94 a3.8 3.8 0 1 0 7.6 0 a3.8 3.8 0 1 0 -7.6 0zM1441.14 683.94 a3.8 3.8 0 1 0 7.6 0 a3.8 3.8 0 1 0 -7.6 0zM1408.23 664.94 a3.8 3.8 0 1 0 7.6 0 a3.8 3.8 0 1 0 -7.6 0zM1408.23 626.94 a3.8 3.8 0 1 0 7.6 0 a3.8 3.8 0 1 0 -7.6 0zM1441.14 835.94 a3.8 3.8 0 1 0 7.6 0 a3.8 3.8 0 1 0 -7.6 0zM1474.05 854.94 a3.8 3.8 0 1 0 7.6 0 a3.8 3.8 0 1 0 -7.6 0zM1474.05 892.94 a3.8 3.8 0 1 0 7.6 0 a3.8 3.8 0 1 0 -7.6 0zM1441.14 911.94 a3.8 3.8 0 1 0 7.6 0 a3.8 3.8 0 1 0 -7.6 0zM1408.23 892.94 a3.8 3.8 0 1 0 7.6 0 a3.8 3.8 0 1 0 -7.6 0zM1408.23 854.94 a3.8 3.8 0 1 0 7.6 0 a3.8 3.8 0 1 0 -7.6 0zM1408.23 1348.94 a3.8 3.8 0 1 0 7.6 0 a3.8 3.8 0 1 0 -7.6 0zM1441.14 1367.94 a3.8 3.8 0 1 0 7.6 0 a3.8 3.8 0 1 0 -7.6 0zM1441.14 1405.94 a3.8 3.8 0 1 0 7.6 0 a3.8 3.8 0 1 0 -7.6 0zM1408.23 1424.94 a3.8 3.8 0 1 0 7.6 0 a3.8 3.8 0 1 0 -7.6 0zM1375.32 1405.94 a3.8 3.8 0 1 0 7.6 0 a3.8 3.8 0 1 0 -7.6 0zM1375.32 1367.94 a3.8 3.8 0 1 0 7.6 0 a3.8 3.8 0 1 0 -7.6 0zM1474.05 1424.94 a3.8 3.8 0 1 0 7.6 0 a3.8 3.8 0 1 0 -7.6 0zM1474.05 1462.94 a3.8 3.8 0 1 0 7.6 0 a3.8 3.8 0 1 0 -7.6 0zM1441.14 1481.94 a3.8 3.8 0 1 0 7.6 0 a3.8 3.8 0 1 0 -7.6 0zM1408.23 1462.94 a3.8 3.8 0 1 0 7.6 0 a3.8 3.8 0 1 0 -7.6 0zM1474.05 -19.06 a3.8 3.8 0 1 0 7.6 0 a3.8 3.8 0 1 0 -7.6 0zM1506.96 -0.06 a3.8 3.8 0 1 0 7.6 0 a3.8 3.8 0 1 0 -7.6 0zM1506.96 37.94 a3.8 3.8 0 1 0 7.6 0 a3.8 3.8 0 1 0 -7.6 0zM1474.05 56.94 a3.8 3.8 0 1 0 7.6 0 a3.8 3.8 0 1 0 -7.6 0zM1441.14 37.94 a3.8 3.8 0 1 0 7.6 0 a3.8 3.8 0 1 0 -7.6 0zM1441.14 -0.06 a3.8 3.8 0 1 0 7.6 0 a3.8 3.8 0 1 0 -7.6 0zM1539.87 56.94 a3.8 3.8 0 1 0 7.6 0 a3.8 3.8 0 1 0 -7.6 0zM1539.87 94.94 a3.8 3.8 0 1 0 7.6 0 a3.8 3.8 0 1 0 -7.6 0zM1506.96 113.94 a3.8 3.8 0 1 0 7.6 0 a3.8 3.8 0 1 0 -7.6 0zM1474.05 94.94 a3.8 3.8 0 1 0 7.6 0 a3.8 3.8 0 1 0 -7.6 0zM1506.96 265.94 a3.8 3.8 0 1 0 7.6 0 a3.8 3.8 0 1 0 -7.6 0zM1539.87 284.94 a3.8 3.8 0 1 0 7.6 0 a3.8 3.8 0 1 0 -7.6 0zM1539.87 322.94 a3.8 3.8 0 1 0 7.6 0 a3.8 3.8 0 1 0 -7.6 0zM1506.96 341.94 a3.8 3.8 0 1 0 7.6 0 a3.8 3.8 0 1 0 -7.6 0zM1474.05 322.94 a3.8 3.8 0 1 0 7.6 0 a3.8 3.8 0 1 0 -7.6 0zM1474.05 284.94 a3.8 3.8 0 1 0 7.6 0 a3.8 3.8 0 1 0 -7.6 0zM1506.96 949.94 a3.8 3.8 0 1 0 7.6 0 a3.8 3.8 0 1 0 -7.6 0zM1539.87 968.94 a3.8 3.8 0 1 0 7.6 0 a3.8 3.8 0 1 0 -7.6 0zM1539.87 1006.94 a3.8 3.8 0 1 0 7.6 0 a3.8 3.8 0 1 0 -7.6 0zM1506.96 1025.94 a3.8 3.8 0 1 0 7.6 0 a3.8 3.8 0 1 0 -7.6 0zM1474.05 1006.94 a3.8 3.8 0 1 0 7.6 0 a3.8 3.8 0 1 0 -7.6 0zM1474.05 968.94 a3.8 3.8 0 1 0 7.6 0 a3.8 3.8 0 1 0 -7.6 0zM1474.05 1348.94 a3.8 3.8 0 1 0 7.6 0 a3.8 3.8 0 1 0 -7.6 0zM1506.96 1367.94 a3.8 3.8 0 1 0 7.6 0 a3.8 3.8 0 1 0 -7.6 0zM1506.96 1405.94 a3.8 3.8 0 1 0 7.6 0 a3.8 3.8 0 1 0 -7.6 0zM1474.05 1804.94 a3.8 3.8 0 1 0 7.6 0 a3.8 3.8 0 1 0 -7.6 0zM1506.96 1823.94 a3.8 3.8 0 1 0 7.6 0 a3.8 3.8 0 1 0 -7.6 0zM1506.96 1861.94 a3.8 3.8 0 1 0 7.6 0 a3.8 3.8 0 1 0 -7.6 0zM1474.05 1880.94 a3.8 3.8 0 1 0 7.6 0 a3.8 3.8 0 1 0 -7.6 0zM1441.14 1861.94 a3.8 3.8 0 1 0 7.6 0 a3.8 3.8 0 1 0 -7.6 0zM1441.14 1823.94 a3.8 3.8 0 1 0 7.6 0 a3.8 3.8 0 1 0 -7.6 0zM1572.78 949.94 a3.8 3.8 0 1 0 7.6 0 a3.8 3.8 0 1 0 -7.6 0zM1605.69 968.94 a3.8 3.8 0 1 0 7.6 0 a3.8 3.8 0 1 0 -7.6 0zM1605.69 1006.94 a3.8 3.8 0 1 0 7.6 0 a3.8 3.8 0 1 0 -7.6 0zM1572.78 1025.94 a3.8 3.8 0 1 0 7.6 0 a3.8 3.8 0 1 0 -7.6 0zM1572.78 1405.94 a3.8 3.8 0 1 0 7.6 0 a3.8 3.8 0 1 0 -7.6 0zM1605.69 1424.94 a3.8 3.8 0 1 0 7.6 0 a3.8 3.8 0 1 0 -7.6 0zM1605.69 1462.94 a3.8 3.8 0 1 0 7.6 0 a3.8 3.8 0 1 0 -7.6 0zM1572.78 1481.94 a3.8 3.8 0 1 0 7.6 0 a3.8 3.8 0 1 0 -7.6 0zM1539.87 1462.94 a3.8 3.8 0 1 0 7.6 0 a3.8 3.8 0 1 0 -7.6 0zM1539.87 1424.94 a3.8 3.8 0 1 0 7.6 0 a3.8 3.8 0 1 0 -7.6 0zM1572.78 1633.94 a3.8 3.8 0 1 0 7.6 0 a3.8 3.8 0 1 0 -7.6 0zM1605.69 1652.94 a3.8 3.8 0 1 0 7.6 0 a3.8 3.8 0 1 0 -7.6 0zM1605.69 1690.94 a3.8 3.8 0 1 0 7.6 0 a3.8 3.8 0 1 0 -7.6 0zM1572.78 1709.94 a3.8 3.8 0 1 0 7.6 0 a3.8 3.8 0 1 0 -7.6 0zM1539.87 1690.94 a3.8 3.8 0 1 0 7.6 0 a3.8 3.8 0 1 0 -7.6 0zM1539.87 1652.94 a3.8 3.8 0 1 0 7.6 0 a3.8 3.8 0 1 0 -7.6 0zM1539.87 1804.94 a3.8 3.8 0 1 0 7.6 0 a3.8 3.8 0 1 0 -7.6 0zM1572.78 1823.94 a3.8 3.8 0 1 0 7.6 0 a3.8 3.8 0 1 0 -7.6 0zM1572.78 1861.94 a3.8 3.8 0 1 0 7.6 0 a3.8 3.8 0 1 0 -7.6 0zM1539.87 1880.94 a3.8 3.8 0 1 0 7.6 0 a3.8 3.8 0 1 0 -7.6 0zM1572.78 1975.94 a3.8 3.8 0 1 0 7.6 0 a3.8 3.8 0 1 0 -7.6 0zM1605.69 1994.94 a3.8 3.8 0 1 0 7.6 0 a3.8 3.8 0 1 0 -7.6 0zM1605.69 2032.94 a3.8 3.8 0 1 0 7.6 0 a3.8 3.8 0 1 0 -7.6 0zM1572.78 2051.94 a3.8 3.8 0 1 0 7.6 0 a3.8 3.8 0 1 0 -7.6 0zM1539.87 2032.94 a3.8 3.8 0 1 0 7.6 0 a3.8 3.8 0 1 0 -7.6 0zM1539.87 1994.94 a3.8 3.8 0 1 0 7.6 0 a3.8 3.8 0 1 0 -7.6 0zM1572.78 2089.94 a3.8 3.8 0 1 0 7.6 0 a3.8 3.8 0 1 0 -7.6 0zM1605.69 2108.94 a3.8 3.8 0 1 0 7.6 0 a3.8 3.8 0 1 0 -7.6 0zM1605.69 2146.94 a3.8 3.8 0 1 0 7.6 0 a3.8 3.8 0 1 0 -7.6 0zM1572.78 2165.94 a3.8 3.8 0 1 0 7.6 0 a3.8 3.8 0 1 0 -7.6 0zM1539.87 2146.94 a3.8 3.8 0 1 0 7.6 0 a3.8 3.8 0 1 0 -7.6 0zM1539.87 2108.94 a3.8 3.8 0 1 0 7.6 0 a3.8 3.8 0 1 0 -7.6 0zM1638.6 151.94 a3.8 3.8 0 1 0 7.6 0 a3.8 3.8 0 1 0 -7.6 0zM1671.51 170.94 a3.8 3.8 0 1 0 7.6 0 a3.8 3.8 0 1 0 -7.6 0zM1671.51 208.94 a3.8 3.8 0 1 0 7.6 0 a3.8 3.8 0 1 0 -7.6 0zM1638.6 227.94 a3.8 3.8 0 1 0 7.6 0 a3.8 3.8 0 1 0 -7.6 0zM1605.69 208.94 a3.8 3.8 0 1 0 7.6 0 a3.8 3.8 0 1 0 -7.6 0zM1605.69 170.94 a3.8 3.8 0 1 0 7.6 0 a3.8 3.8 0 1 0 -7.6 0zM1638.6 379.94 a3.8 3.8 0 1 0 7.6 0 a3.8 3.8 0 1 0 -7.6 0zM1671.51 398.94 a3.8 3.8 0 1 0 7.6 0 a3.8 3.8 0 1 0 -7.6 0zM1671.51 436.94 a3.8 3.8 0 1 0 7.6 0 a3.8 3.8 0 1 0 -7.6 0zM1638.6 455.94 a3.8 3.8 0 1 0 7.6 0 a3.8 3.8 0 1 0 -7.6 0zM1605.69 436.94 a3.8 3.8 0 1 0 7.6 0 a3.8 3.8 0 1 0 -7.6 0zM1605.69 398.94 a3.8 3.8 0 1 0 7.6 0 a3.8 3.8 0 1 0 -7.6 0zM1638.6 721.94 a3.8 3.8 0 1 0 7.6 0 a3.8 3.8 0 1 0 -7.6 0zM1671.51 740.94 a3.8 3.8 0 1 0 7.6 0 a3.8 3.8 0 1 0 -7.6 0zM1671.51 778.94 a3.8 3.8 0 1 0 7.6 0 a3.8 3.8 0 1 0 -7.6 0zM1638.6 797.94 a3.8 3.8 0 1 0 7.6 0 a3.8 3.8 0 1 0 -7.6 0zM1605.69 778.94 a3.8 3.8 0 1 0 7.6 0 a3.8 3.8 0 1 0 -7.6 0zM1605.69 740.94 a3.8 3.8 0 1 0 7.6 0 a3.8 3.8 0 1 0 -7.6 0zM1638.6 835.94 a3.8 3.8 0 1 0 7.6 0 a3.8 3.8 0 1 0 -7.6 0zM1605.69 854.94 a3.8 3.8 0 1 0 7.6 0 a3.8 3.8 0 1 0 -7.6 0zM1572.78 835.94 a3.8 3.8 0 1 0 7.6 0 a3.8 3.8 0 1 0 -7.6 0zM1572.78 797.94 a3.8 3.8 0 1 0 7.6 0 a3.8 3.8 0 1 0 -7.6 0zM1605.69 1120.94 a3.8 3.8 0 1 0 7.6 0 a3.8 3.8 0 1 0 -7.6 0zM1638.6 1139.94 a3.8 3.8 0 1 0 7.6 0 a3.8 3.8 0 1 0 -7.6 0zM1638.6 1177.94 a3.8 3.8 0 1 0 7.6 0 a3.8 3.8 0 1 0 -7.6 0zM1605.69 1196.94 a3.8 3.8 0 1 0 7.6 0 a3.8 3.8 0 1 0 -7.6 0zM1572.78 1177.94 a3.8 3.8 0 1 0 7.6 0 a3.8 3.8 0 1 0 -7.6 0zM1572.78 1139.94 a3.8 3.8 0 1 0 7.6 0 a3.8 3.8 0 1 0 -7.6 0zM1638.6 1291.94 a3.8 3.8 0 1 0 7.6 0 a3.8 3.8 0 1 0 -7.6 0zM1671.51 1310.94 a3.8 3.8 0 1 0 7.6 0 a3.8 3.8 0 1 0 -7.6 0zM1671.51 1348.94 a3.8 3.8 0 1 0 7.6 0 a3.8 3.8 0 1 0 -7.6 0zM1638.6 1367.94 a3.8 3.8 0 1 0 7.6 0 a3.8 3.8 0 1 0 -7.6 0zM1605.69 1348.94 a3.8 3.8 0 1 0 7.6 0 a3.8 3.8 0 1 0 -7.6 0zM1605.69 1310.94 a3.8 3.8 0 1 0 7.6 0 a3.8 3.8 0 1 0 -7.6 0zM1605.69 1804.94 a3.8 3.8 0 1 0 7.6 0 a3.8 3.8 0 1 0 -7.6 0zM1638.6 1823.94 a3.8 3.8 0 1 0 7.6 0 a3.8 3.8 0 1 0 -7.6 0zM1638.6 1861.94 a3.8 3.8 0 1 0 7.6 0 a3.8 3.8 0 1 0 -7.6 0zM1605.69 1880.94 a3.8 3.8 0 1 0 7.6 0 a3.8 3.8 0 1 0 -7.6 0zM1671.51 94.94 a3.8 3.8 0 1 0 7.6 0 a3.8 3.8 0 1 0 -7.6 0zM1704.41 113.94 a3.8 3.8 0 1 0 7.6 0 a3.8 3.8 0 1 0 -7.6 0zM1704.41 151.94 a3.8 3.8 0 1 0 7.6 0 a3.8 3.8 0 1 0 -7.6 0zM1638.6 113.94 a3.8 3.8 0 1 0 7.6 0 a3.8 3.8 0 1 0 -7.6 0zM1704.41 607.94 a3.8 3.8 0 1 0 7.6 0 a3.8 3.8 0 1 0 -7.6 0zM1737.32 626.94 a3.8 3.8 0 1 0 7.6 0 a3.8 3.8 0 1 0 -7.6 0zM1737.32 664.94 a3.8 3.8 0 1 0 7.6 0 a3.8 3.8 0 1 0 -7.6 0zM1704.41 683.94 a3.8 3.8 0 1 0 7.6 0 a3.8 3.8 0 1 0 -7.6 0zM1671.51 664.94 a3.8 3.8 0 1 0 7.6 0 a3.8 3.8 0 1 0 -7.6 0zM1671.51 626.94 a3.8 3.8 0 1 0 7.6 0 a3.8 3.8 0 1 0 -7.6 0zM1704.41 835.94 a3.8 3.8 0 1 0 7.6 0 a3.8 3.8 0 1 0 -7.6 0zM1737.32 854.94 a3.8 3.8 0 1 0 7.6 0 a3.8 3.8 0 1 0 -7.6 0zM1737.32 892.94 a3.8 3.8 0 1 0 7.6 0 a3.8 3.8 0 1 0 -7.6 0zM1704.41 911.94 a3.8 3.8 0 1 0 7.6 0 a3.8 3.8 0 1 0 -7.6 0zM1671.51 892.94 a3.8 3.8 0 1 0 7.6 0 a3.8 3.8 0 1 0 -7.6 0zM1671.51 854.94 a3.8 3.8 0 1 0 7.6 0 a3.8 3.8 0 1 0 -7.6 0zM1671.51 1462.94 a3.8 3.8 0 1 0 7.6 0 a3.8 3.8 0 1 0 -7.6 0zM1704.41 1481.94 a3.8 3.8 0 1 0 7.6 0 a3.8 3.8 0 1 0 -7.6 0zM1704.41 1519.94 a3.8 3.8 0 1 0 7.6 0 a3.8 3.8 0 1 0 -7.6 0zM1671.51 1538.94 a3.8 3.8 0 1 0 7.6 0 a3.8 3.8 0 1 0 -7.6 0zM1638.6 1519.94 a3.8 3.8 0 1 0 7.6 0 a3.8 3.8 0 1 0 -7.6 0zM1638.6 1481.94 a3.8 3.8 0 1 0 7.6 0 a3.8 3.8 0 1 0 -7.6 0zM1704.41 1747.94 a3.8 3.8 0 1 0 7.6 0 a3.8 3.8 0 1 0 -7.6 0zM1737.32 1766.94 a3.8 3.8 0 1 0 7.6 0 a3.8 3.8 0 1 0 -7.6 0zM1737.32 1804.94 a3.8 3.8 0 1 0 7.6 0 a3.8 3.8 0 1 0 -7.6 0zM1704.41 1823.94 a3.8 3.8 0 1 0 7.6 0 a3.8 3.8 0 1 0 -7.6 0zM1671.51 1804.94 a3.8 3.8 0 1 0 7.6 0 a3.8 3.8 0 1 0 -7.6 0zM1671.51 1766.94 a3.8 3.8 0 1 0 7.6 0 a3.8 3.8 0 1 0 -7.6 0zM1770.23 835.94 a3.8 3.8 0 1 0 7.6 0 a3.8 3.8 0 1 0 -7.6 0zM1803.14 854.94 a3.8 3.8 0 1 0 7.6 0 a3.8 3.8 0 1 0 -7.6 0zM1803.14 892.94 a3.8 3.8 0 1 0 7.6 0 a3.8 3.8 0 1 0 -7.6 0zM1770.23 911.94 a3.8 3.8 0 1 0 7.6 0 a3.8 3.8 0 1 0 -7.6 0zM1770.23 949.94 a3.8 3.8 0 1 0 7.6 0 a3.8 3.8 0 1 0 -7.6 0zM1737.32 968.94 a3.8 3.8 0 1 0 7.6 0 a3.8 3.8 0 1 0 -7.6 0zM1704.41 949.94 a3.8 3.8 0 1 0 7.6 0 a3.8 3.8 0 1 0 -7.6 0zM1737.32 2146.94 a3.8 3.8 0 1 0 7.6 0 a3.8 3.8 0 1 0 -7.6 0zM1770.23 2165.94 a3.8 3.8 0 1 0 7.6 0 a3.8 3.8 0 1 0 -7.6 0zM1770.23 2203.94 a3.8 3.8 0 1 0 7.6 0 a3.8 3.8 0 1 0 -7.6 0zM1737.32 2222.94 a3.8 3.8 0 1 0 7.6 0 a3.8 3.8 0 1 0 -7.6 0zM1704.41 2203.94 a3.8 3.8 0 1 0 7.6 0 a3.8 3.8 0 1 0 -7.6 0zM1704.41 2165.94 a3.8 3.8 0 1 0 7.6 0 a3.8 3.8 0 1 0 -7.6 0zM1803.14 -19.06 a3.8 3.8 0 1 0 7.6 0 a3.8 3.8 0 1 0 -7.6 0zM1836.05 -0.06 a3.8 3.8 0 1 0 7.6 0 a3.8 3.8 0 1 0 -7.6 0zM1836.05 37.94 a3.8 3.8 0 1 0 7.6 0 a3.8 3.8 0 1 0 -7.6 0zM1803.14 56.94 a3.8 3.8 0 1 0 7.6 0 a3.8 3.8 0 1 0 -7.6 0zM1770.23 37.94 a3.8 3.8 0 1 0 7.6 0 a3.8 3.8 0 1 0 -7.6 0zM1770.23 -0.06 a3.8 3.8 0 1 0 7.6 0 a3.8 3.8 0 1 0 -7.6 0zM1836.05 1177.94 a3.8 3.8 0 1 0 7.6 0 a3.8 3.8 0 1 0 -7.6 0zM1868.96 1196.94 a3.8 3.8 0 1 0 7.6 0 a3.8 3.8 0 1 0 -7.6 0zM1868.96 1234.94 a3.8 3.8 0 1 0 7.6 0 a3.8 3.8 0 1 0 -7.6 0zM1836.05 1253.94 a3.8 3.8 0 1 0 7.6 0 a3.8 3.8 0 1 0 -7.6 0zM1803.14 1234.94 a3.8 3.8 0 1 0 7.6 0 a3.8 3.8 0 1 0 -7.6 0zM1803.14 1196.94 a3.8 3.8 0 1 0 7.6 0 a3.8 3.8 0 1 0 -7.6 0zM1803.14 1462.94 a3.8 3.8 0 1 0 7.6 0 a3.8 3.8 0 1 0 -7.6 0zM1836.05 1481.94 a3.8 3.8 0 1 0 7.6 0 a3.8 3.8 0 1 0 -7.6 0zM1836.05 1519.94 a3.8 3.8 0 1 0 7.6 0 a3.8 3.8 0 1 0 -7.6 0zM1803.14 1538.94 a3.8 3.8 0 1 0 7.6 0 a3.8 3.8 0 1 0 -7.6 0zM1770.23 1519.94 a3.8 3.8 0 1 0 7.6 0 a3.8 3.8 0 1 0 -7.6 0zM1770.23 1481.94 a3.8 3.8 0 1 0 7.6 0 a3.8 3.8 0 1 0 -7.6 0zM1868.96 1538.94 a3.8 3.8 0 1 0 7.6 0 a3.8 3.8 0 1 0 -7.6 0zM1868.96 1576.94 a3.8 3.8 0 1 0 7.6 0 a3.8 3.8 0 1 0 -7.6 0zM1836.05 1595.94 a3.8 3.8 0 1 0 7.6 0 a3.8 3.8 0 1 0 -7.6 0zM1803.14 1576.94 a3.8 3.8 0 1 0 7.6 0 a3.8 3.8 0 1 0 -7.6 0zM1836.05 1633.94 a3.8 3.8 0 1 0 7.6 0 a3.8 3.8 0 1 0 -7.6 0zM1868.96 1652.94 a3.8 3.8 0 1 0 7.6 0 a3.8 3.8 0 1 0 -7.6 0zM1868.96 1690.94 a3.8 3.8 0 1 0 7.6 0 a3.8 3.8 0 1 0 -7.6 0zM1836.05 1709.94 a3.8 3.8 0 1 0 7.6 0 a3.8 3.8 0 1 0 -7.6 0zM1803.14 1690.94 a3.8 3.8 0 1 0 7.6 0 a3.8 3.8 0 1 0 -7.6 0zM1803.14 1652.94 a3.8 3.8 0 1 0 7.6 0 a3.8 3.8 0 1 0 -7.6 0zM1901.87 721.94 a3.8 3.8 0 1 0 7.6 0 a3.8 3.8 0 1 0 -7.6 0zM1934.78 740.94 a3.8 3.8 0 1 0 7.6 0 a3.8 3.8 0 1 0 -7.6 0zM1934.78 778.94 a3.8 3.8 0 1 0 7.6 0 a3.8 3.8 0 1 0 -7.6 0zM1901.87 797.94 a3.8 3.8 0 1 0 7.6 0 a3.8 3.8 0 1 0 -7.6 0zM1868.96 778.94 a3.8 3.8 0 1 0 7.6 0 a3.8 3.8 0 1 0 -7.6 0zM1868.96 740.94 a3.8 3.8 0 1 0 7.6 0 a3.8 3.8 0 1 0 -7.6 0zM1901.87 1291.94 a3.8 3.8 0 1 0 7.6 0 a3.8 3.8 0 1 0 -7.6 0zM1934.78 1310.94 a3.8 3.8 0 1 0 7.6 0 a3.8 3.8 0 1 0 -7.6 0zM1934.78 1348.94 a3.8 3.8 0 1 0 7.6 0 a3.8 3.8 0 1 0 -7.6 0zM1901.87 1367.94 a3.8 3.8 0 1 0 7.6 0 a3.8 3.8 0 1 0 -7.6 0zM1868.96 1348.94 a3.8 3.8 0 1 0 7.6 0 a3.8 3.8 0 1 0 -7.6 0zM1868.96 1310.94 a3.8 3.8 0 1 0 7.6 0 a3.8 3.8 0 1 0 -7.6 0zM1901.87 1975.94 a3.8 3.8 0 1 0 7.6 0 a3.8 3.8 0 1 0 -7.6 0zM1934.78 1994.94 a3.8 3.8 0 1 0 7.6 0 a3.8 3.8 0 1 0 -7.6 0zM1934.78 2032.94 a3.8 3.8 0 1 0 7.6 0 a3.8 3.8 0 1 0 -7.6 0zM1901.87 2051.94 a3.8 3.8 0 1 0 7.6 0 a3.8 3.8 0 1 0 -7.6 0zM1868.96 2032.94 a3.8 3.8 0 1 0 7.6 0 a3.8 3.8 0 1 0 -7.6 0zM1868.96 1994.94 a3.8 3.8 0 1 0 7.6 0 a3.8 3.8 0 1 0 -7.6 0zM1934.78 208.94 a3.8 3.8 0 1 0 7.6 0 a3.8 3.8 0 1 0 -7.6 0zM1967.69 227.94 a3.8 3.8 0 1 0 7.6 0 a3.8 3.8 0 1 0 -7.6 0zM1967.69 265.94 a3.8 3.8 0 1 0 7.6 0 a3.8 3.8 0 1 0 -7.6 0zM1934.78 284.94 a3.8 3.8 0 1 0 7.6 0 a3.8 3.8 0 1 0 -7.6 0zM1901.87 265.94 a3.8 3.8 0 1 0 7.6 0 a3.8 3.8 0 1 0 -7.6 0zM1901.87 227.94 a3.8 3.8 0 1 0 7.6 0 a3.8 3.8 0 1 0 -7.6 0zM1967.69 835.94 a3.8 3.8 0 1 0 7.6 0 a3.8 3.8 0 1 0 -7.6 0zM2000.6 854.94 a3.8 3.8 0 1 0 7.6 0 a3.8 3.8 0 1 0 -7.6 0zM2000.6 892.94 a3.8 3.8 0 1 0 7.6 0 a3.8 3.8 0 1 0 -7.6 0zM1967.69 911.94 a3.8 3.8 0 1 0 7.6 0 a3.8 3.8 0 1 0 -7.6 0zM1934.78 892.94 a3.8 3.8 0 1 0 7.6 0 a3.8 3.8 0 1 0 -7.6 0zM1934.78 854.94 a3.8 3.8 0 1 0 7.6 0 a3.8 3.8 0 1 0 -7.6 0zM1934.78 1120.94 a3.8 3.8 0 1 0 7.6 0 a3.8 3.8 0 1 0 -7.6 0zM1967.69 1139.94 a3.8 3.8 0 1 0 7.6 0 a3.8 3.8 0 1 0 -7.6 0zM1967.69 1177.94 a3.8 3.8 0 1 0 7.6 0 a3.8 3.8 0 1 0 -7.6 0zM1934.78 1196.94 a3.8 3.8 0 1 0 7.6 0 a3.8 3.8 0 1 0 -7.6 0zM1901.87 1177.94 a3.8 3.8 0 1 0 7.6 0 a3.8 3.8 0 1 0 -7.6 0zM1901.87 1139.94 a3.8 3.8 0 1 0 7.6 0 a3.8 3.8 0 1 0 -7.6 0zM1934.78 1918.94 a3.8 3.8 0 1 0 7.6 0 a3.8 3.8 0 1 0 -7.6 0zM1967.69 1937.94 a3.8 3.8 0 1 0 7.6 0 a3.8 3.8 0 1 0 -7.6 0zM1967.69 1975.94 a3.8 3.8 0 1 0 7.6 0 a3.8 3.8 0 1 0 -7.6 0zM1901.87 1937.94 a3.8 3.8 0 1 0 7.6 0 a3.8 3.8 0 1 0 -7.6 0zM2000.6 -19.06 a3.8 3.8 0 1 0 7.6 0 a3.8 3.8 0 1 0 -7.6 0zM2033.51 -0.06 a3.8 3.8 0 1 0 7.6 0 a3.8 3.8 0 1 0 -7.6 0zM2033.51 37.94 a3.8 3.8 0 1 0 7.6 0 a3.8 3.8 0 1 0 -7.6 0zM2000.6 56.94 a3.8 3.8 0 1 0 7.6 0 a3.8 3.8 0 1 0 -7.6 0zM1967.69 37.94 a3.8 3.8 0 1 0 7.6 0 a3.8 3.8 0 1 0 -7.6 0zM1967.69 -0.06 a3.8 3.8 0 1 0 7.6 0 a3.8 3.8 0 1 0 -7.6 0zM2033.51 911.94 a3.8 3.8 0 1 0 7.6 0 a3.8 3.8 0 1 0 -7.6 0zM2033.51 949.94 a3.8 3.8 0 1 0 7.6 0 a3.8 3.8 0 1 0 -7.6 0zM2000.6 968.94 a3.8 3.8 0 1 0 7.6 0 a3.8 3.8 0 1 0 -7.6 0zM1967.69 949.94 a3.8 3.8 0 1 0 7.6 0 a3.8 3.8 0 1 0 -7.6 0zM2000.6 1690.94 a3.8 3.8 0 1 0 7.6 0 a3.8 3.8 0 1 0 -7.6 0zM2033.51 1709.94 a3.8 3.8 0 1 0 7.6 0 a3.8 3.8 0 1 0 -7.6 0zM2033.51 1747.94 a3.8 3.8 0 1 0 7.6 0 a3.8 3.8 0 1 0 -7.6 0zM2000.6 1766.94 a3.8 3.8 0 1 0 7.6 0 a3.8 3.8 0 1 0 -7.6 0zM1967.69 1747.94 a3.8 3.8 0 1 0 7.6 0 a3.8 3.8 0 1 0 -7.6 0zM1967.69 1709.94 a3.8 3.8 0 1 0 7.6 0 a3.8 3.8 0 1 0 -7.6 0zM2066.42 322.94 a3.8 3.8 0 1 0 7.6 0 a3.8 3.8 0 1 0 -7.6 0zM2099.33 341.94 a3.8 3.8 0 1 0 7.6 0 a3.8 3.8 0 1 0 -7.6 0zM2099.33 379.94 a3.8 3.8 0 1 0 7.6 0 a3.8 3.8 0 1 0 -7.6 0zM2066.42 398.94 a3.8 3.8 0 1 0 7.6 0 a3.8 3.8 0 1 0 -7.6 0zM2033.51 379.94 a3.8 3.8 0 1 0 7.6 0 a3.8 3.8 0 1 0 -7.6 0zM2033.51 341.94 a3.8 3.8 0 1 0 7.6 0 a3.8 3.8 0 1 0 -7.6 0zM2066.42 1006.94 a3.8 3.8 0 1 0 7.6 0 a3.8 3.8 0 1 0 -7.6 0zM2099.33 1025.94 a3.8 3.8 0 1 0 7.6 0 a3.8 3.8 0 1 0 -7.6 0zM2099.33 1063.94 a3.8 3.8 0 1 0 7.6 0 a3.8 3.8 0 1 0 -7.6 0zM2066.42 1082.94 a3.8 3.8 0 1 0 7.6 0 a3.8 3.8 0 1 0 -7.6 0zM2033.51 1063.94 a3.8 3.8 0 1 0 7.6 0 a3.8 3.8 0 1 0 -7.6 0zM2033.51 1025.94 a3.8 3.8 0 1 0 7.6 0 a3.8 3.8 0 1 0 -7.6 0zM2099.33 1519.94 a3.8 3.8 0 1 0 7.6 0 a3.8 3.8 0 1 0 -7.6 0zM2132.24 1538.94 a3.8 3.8 0 1 0 7.6 0 a3.8 3.8 0 1 0 -7.6 0zM2132.24 1576.94 a3.8 3.8 0 1 0 7.6 0 a3.8 3.8 0 1 0 -7.6 0zM2099.33 1595.94 a3.8 3.8 0 1 0 7.6 0 a3.8 3.8 0 1 0 -7.6 0zM2066.42 1576.94 a3.8 3.8 0 1 0 7.6 0 a3.8 3.8 0 1 0 -7.6 0zM2066.42 1538.94 a3.8 3.8 0 1 0 7.6 0 a3.8 3.8 0 1 0 -7.6 0zM2165.15 493.94 a3.8 3.8 0 1 0 7.6 0 a3.8 3.8 0 1 0 -7.6 0zM2198.06 512.94 a3.8 3.8 0 1 0 7.6 0 a3.8 3.8 0 1 0 -7.6 0zM2198.06 550.94 a3.8 3.8 0 1 0 7.6 0 a3.8 3.8 0 1 0 -7.6 0zM2165.15 569.94 a3.8 3.8 0 1 0 7.6 0 a3.8 3.8 0 1 0 -7.6 0zM2132.24 550.94 a3.8 3.8 0 1 0 7.6 0 a3.8 3.8 0 1 0 -7.6 0zM2132.24 512.94 a3.8 3.8 0 1 0 7.6 0 a3.8 3.8 0 1 0 -7.6 0zM2165.15 607.94 a3.8 3.8 0 1 0 7.6 0 a3.8 3.8 0 1 0 -7.6 0zM2132.24 626.94 a3.8 3.8 0 1 0 7.6 0 a3.8 3.8 0 1 0 -7.6 0zM2099.33 607.94 a3.8 3.8 0 1 0 7.6 0 a3.8 3.8 0 1 0 -7.6 0zM2099.33 569.94 a3.8 3.8 0 1 0 7.6 0 a3.8 3.8 0 1 0 -7.6 0zM2165.15 949.94 a3.8 3.8 0 1 0 7.6 0 a3.8 3.8 0 1 0 -7.6 0zM2198.06 968.94 a3.8 3.8 0 1 0 7.6 0 a3.8 3.8 0 1 0 -7.6 0zM2198.06 1006.94 a3.8 3.8 0 1 0 7.6 0 a3.8 3.8 0 1 0 -7.6 0zM2165.15 1025.94 a3.8 3.8 0 1 0 7.6 0 a3.8 3.8 0 1 0 -7.6 0zM2132.24 1006.94 a3.8 3.8 0 1 0 7.6 0 a3.8 3.8 0 1 0 -7.6 0zM2132.24 968.94 a3.8 3.8 0 1 0 7.6 0 a3.8 3.8 0 1 0 -7.6 0zM2165.15 1177.94 a3.8 3.8 0 1 0 7.6 0 a3.8 3.8 0 1 0 -7.6 0zM2198.06 1196.94 a3.8 3.8 0 1 0 7.6 0 a3.8 3.8 0 1 0 -7.6 0zM2198.06 1234.94 a3.8 3.8 0 1 0 7.6 0 a3.8 3.8 0 1 0 -7.6 0zM2165.15 1253.94 a3.8 3.8 0 1 0 7.6 0 a3.8 3.8 0 1 0 -7.6 0zM2132.24 1234.94 a3.8 3.8 0 1 0 7.6 0 a3.8 3.8 0 1 0 -7.6 0zM2132.24 1196.94 a3.8 3.8 0 1 0 7.6 0 a3.8 3.8 0 1 0 -7.6 0zM2132.24 1804.94 a3.8 3.8 0 1 0 7.6 0 a3.8 3.8 0 1 0 -7.6 0zM2165.15 1823.94 a3.8 3.8 0 1 0 7.6 0 a3.8 3.8 0 1 0 -7.6 0zM2165.15 1861.94 a3.8 3.8 0 1 0 7.6 0 a3.8 3.8 0 1 0 -7.6 0zM2132.24 1880.94 a3.8 3.8 0 1 0 7.6 0 a3.8 3.8 0 1 0 -7.6 0zM2099.33 1861.94 a3.8 3.8 0 1 0 7.6 0 a3.8 3.8 0 1 0 -7.6 0zM2099.33 1823.94 a3.8 3.8 0 1 0 7.6 0 a3.8 3.8 0 1 0 -7.6 0zM2165.15 1975.94 a3.8 3.8 0 1 0 7.6 0 a3.8 3.8 0 1 0 -7.6 0zM2198.06 1994.94 a3.8 3.8 0 1 0 7.6 0 a3.8 3.8 0 1 0 -7.6 0zM2198.06 2032.94 a3.8 3.8 0 1 0 7.6 0 a3.8 3.8 0 1 0 -7.6 0zM2165.15 2051.94 a3.8 3.8 0 1 0 7.6 0 a3.8 3.8 0 1 0 -7.6 0zM2132.24 2032.94 a3.8 3.8 0 1 0 7.6 0 a3.8 3.8 0 1 0 -7.6 0zM2132.24 1994.94 a3.8 3.8 0 1 0 7.6 0 a3.8 3.8 0 1 0 -7.6 0zM2132.24 2146.94 a3.8 3.8 0 1 0 7.6 0 a3.8 3.8 0 1 0 -7.6 0zM2165.15 2165.94 a3.8 3.8 0 1 0 7.6 0 a3.8 3.8 0 1 0 -7.6 0zM2165.15 2203.94 a3.8 3.8 0 1 0 7.6 0 a3.8 3.8 0 1 0 -7.6 0zM2132.24 2222.94 a3.8 3.8 0 1 0 7.6 0 a3.8 3.8 0 1 0 -7.6 0zM2099.33 2203.94 a3.8 3.8 0 1 0 7.6 0 a3.8 3.8 0 1 0 -7.6 0zM2099.33 2165.94 a3.8 3.8 0 1 0 7.6 0 a3.8 3.8 0 1 0 -7.6 0z" fill="rgba(189, 115, 1, 0.73)"></path><path d="M24.4 428.03L197.61 528.03L197.61 728.03L24.4 828.03L-148.81 728.03L-148.81 528.03zM24.4 1028.03L197.61 1128.03L197.61 1328.03L24.4 1428.03L-148.81 1328.03L-148.81 1128.03zM197.61 1928.03L370.82 2028.03L370.82 2228.03L197.61 2328.03L24.4 2228.03L24.4 2028.03zM370.82 -171.97L544.03 -71.97L544.03 128.03L370.82 228.03L197.61 128.03L197.61 -71.97zM370.82 1028.03L544.03 1128.03L544.03 1328.03L370.82 1428.03L197.61 1328.03L197.61 1128.03zM890.45 128.03L1063.66 228.03L1063.66 428.03L890.45 528.03L717.24 428.03L717.24 228.03zM717.24 428.03L890.45 528.03L890.45 728.03L717.24 828.03L544.03 728.03L544.03 528.03zM717.24 1028.03L890.45 1128.03L890.45 1328.03L717.24 1428.03L544.03 1328.03L544.03 1128.03zM890.45 1328.03L1063.66 1428.03L1063.66 1628.03L890.45 1728.03L717.24 1628.03L717.24 1428.03zM1236.87 1328.03L1410.08 1428.03L1410.08 1628.03L1236.87 1728.03L1063.66 1628.03L1063.66 1428.03zM1063.66 1628.03L1236.87 1728.03L1236.87 1928.03L1063.66 2028.03L890.45 1928.03L890.45 1728.03zM1583.29 128.03L1756.5 228.03L1756.5 428.03L1583.29 528.03L1410.08 428.03L1410.08 228.03zM1583.29 728.03L1756.5 828.03L1756.5 1028.03L1583.29 1128.03L1410.08 1028.03L1410.08 828.03zM1410.08 1628.03L1583.29 1728.03L1583.29 1928.03L1410.08 2028.03L1236.87 1928.03L1236.87 1728.03zM1929.71 128.03L2102.92 228.03L2102.92 428.03L1929.71 528.03L1756.5 428.03L1756.5 228.03zM1929.71 728.03L2102.92 828.03L2102.92 1028.03L1929.71 1128.03L1756.5 1028.03L1756.5 828.03zM2102.92 -171.97L2276.13 -71.97L2276.13 128.03L2102.92 228.03L1929.71 128.03L1929.71 -71.97zM2276.13 128.03L2449.34 228.03L2449.34 428.03L2276.13 528.03L2102.92 428.03L2102.92 228.03zM2102.92 428.03L2276.13 528.03L2276.13 728.03L2102.92 828.03L1929.71 728.03L1929.71 528.03zM2276.13 1328.03L2449.34 1428.03L2449.34 1628.03L2276.13 1728.03L2102.92 1628.03L2102.92 1428.03z" stroke="rgba(255, 206, 132, 0.12)" stroke-width="2"></path></g><defs><mask id="SvgjsMask2076"><rect width="2140" height="2140" fill="#ffffff"></rect></mask></defs></svg>